<svg width="256" height="35" viewBox="0 0 256 35" fill="none" xmlns="http://www.w3.org/2000/svg">
<path d="M10.0703 26C10.0703 24.752 10.3516 22.959 10.9316 20.6035L11.1953 19.8125H18.2793L18.5605 20.5684C19.123 23.0117 19.4219 24.8223 19.4395 26H29.3008C28.0879 23.3809 26.998 20.3398 26.0488 16.8945L23.5703 9.91602C23.166 8.47461 22.8496 6.89258 22.5859 5.1875C22.3223 3.48242 22.1465 2.02344 22.0938 0.792969H7.41602C7.38086 1.9707 7.22266 3.39453 6.95898 5.09961C6.69531 6.80469 6.34375 8.42188 5.93945 9.91602L3.44336 16.8945C2.38867 20.6387 1.29883 23.6621 0.173828 26H10.0703ZM13.5684 12.2891C13.8672 11.3574 14.166 9.91602 14.5 7.92969H14.9746C15.2734 9.77539 15.5898 11.2344 15.9414 12.2891L17.4531 16.209H12.0566L13.5684 12.2891ZM40.8489 33.207C40.5852 32.0996 40.3919 30.7109 40.2337 29.0234C40.0755 27.3184 40.0052 25.6836 40.0052 24.084V21.5H40.4798C41.6048 24.541 44.2415 26.5098 48.0384 26.5098C50.8333 26.5098 53.0657 25.4551 54.4192 23.6973C55.7552 21.957 56.4583 19.6895 56.4583 17.0352C56.4583 14.3809 55.7552 12.0781 54.4192 10.3203C53.0657 8.5625 50.8333 7.49023 48.0384 7.49023C44.2591 7.49023 41.7278 9.42383 40.4798 12.4297H40.0052V11.9902C40.0052 11.2344 40.0579 10.584 40.1809 10.0391C40.2864 9.49414 40.4973 8.80859 40.7962 8H30.97C31.2337 9.10742 31.4622 10.4961 31.6204 12.166C31.7786 13.8359 31.8489 15.4883 31.8489 17.1055V24.084C31.8489 25.7012 31.7786 27.3535 31.6204 29.041C31.4622 30.7109 31.2337 32.0996 30.97 33.207H40.8489ZM44.4348 21.3945C43.1516 21.3945 42.1145 20.9727 41.3235 20.1113C40.5325 19.25 40.1282 18.2305 40.1282 17.0352C40.1282 15.752 40.5149 14.6797 41.3059 13.8535C42.0794 13.0273 43.1165 12.6055 44.4348 12.6055C45.7884 12.6055 46.8606 13.0098 47.6868 13.8359C48.4954 14.6621 48.8997 15.7344 48.8997 17.0352C48.8997 18.3008 48.4954 19.3379 47.6868 20.1641C46.8606 20.9902 45.7884 21.3945 44.4348 21.3945ZM69.4478 33.207C69.1841 32.0996 68.9908 30.7109 68.8326 29.0234C68.6744 27.3184 68.6041 25.6836 68.6041 24.084V21.5H69.0787C70.2037 24.541 72.8404 26.5098 76.6373 26.5098C79.4322 26.5098 81.6646 25.4551 83.0181 23.6973C84.3541 21.957 85.0572 19.6895 85.0572 17.0352C85.0572 14.3809 84.3541 12.0781 83.0181 10.3203C81.6646 8.5625 79.4322 7.49023 76.6373 7.49023C72.858 7.49023 70.3267 9.42383 69.0787 12.4297H68.6041V11.9902C68.6041 11.2344 68.6568 10.584 68.7798 10.0391C68.8853 9.49414 69.0962 8.80859 69.3951 8H59.5689C59.8326 9.10742 60.0611 10.4961 60.2193 12.166C60.3775 13.8359 60.4478 15.4883 60.4478 17.1055V24.084C60.4478 25.7012 60.3775 27.3535 60.2193 29.041C60.0611 30.7109 59.8326 32.0996 59.5689 33.207H69.4478ZM73.0337 21.3945C71.7505 21.3945 70.7134 20.9727 69.9224 20.1113C69.1314 19.25 68.7271 18.2305 68.7271 17.0352C68.7271 15.752 69.1138 14.6797 69.9048 13.8535C70.6783 13.0273 71.7154 12.6055 73.0337 12.6055C74.3873 12.6055 75.4595 13.0098 76.2857 13.8359C77.0943 14.6621 77.4986 15.7344 77.4986 17.0352C77.4986 18.3008 77.0943 19.3379 76.2857 20.1641C75.4595 20.9902 74.3873 21.3945 73.0337 21.3945ZM97.994 26C97.4666 23.5215 97.203 20.4805 97.203 16.8945V9.91602C97.203 6.3125 97.4666 3.27148 97.994 0.792969H88.1678C88.4315 1.91797 88.6424 3.32422 88.8006 5.01172C88.9588 6.7168 89.0467 8.35156 89.0467 9.91602V16.8945C89.0467 18.459 88.9588 20.0938 88.8006 21.7812C88.6424 23.4688 88.4315 24.875 88.1678 26H97.994ZM114.816 34.209C121.9 34.209 128.28 31.1504 128.28 25.2793C128.28 24.207 127.964 23.1172 127.314 22.0098V15.084C127.314 13.5898 127.384 12.3594 127.507 11.3574C127.63 10.3555 127.841 9.24805 128.14 8H118.278C118.577 8.70312 118.806 9.81055 118.929 11.3398C119.052 12.8691 119.105 14.2578 119.105 15.4883L119.14 17.2109C119.14 18.3711 118.753 19.3555 117.997 20.1465C117.224 20.9551 116.239 21.3594 115.026 21.3594C113.849 21.3594 112.952 20.9727 112.302 20.1992C111.651 19.4434 111.317 18.4414 111.317 17.2109V15.5234C111.317 13.0273 111.581 10.5137 112.109 8H102.282C102.862 10.6016 103.161 13.3965 103.161 16.3848V18.3008C103.161 20.8496 103.864 22.8535 105.271 24.3125C106.677 25.7715 108.698 26.5098 111.353 26.5098C115.132 26.5098 117.593 24.6113 118.806 21.4297H119.21C120.036 22.1504 120.441 23.0293 120.441 24.084C120.441 25.666 119.79 26.8965 118.507 27.7578C117.224 28.6191 115.484 29.0586 113.304 29.0586C111.405 29.0586 109.472 28.7773 107.503 28.1973C105.534 27.6172 104.023 26.8613 102.968 25.9297L103.003 32.7676C104.392 33.207 106.202 33.5586 108.4 33.8223C110.597 34.0859 112.724 34.209 114.816 34.209ZM152.343 26C152.115 25.0684 151.922 23.6445 151.763 21.6934C151.605 19.7422 151.517 17.9492 151.517 16.3145V12.1484H152.045L161.308 26H169.043V9.91602C169.043 6.10156 169.324 3.06055 169.869 0.792969H160.008C160.218 1.68945 160.412 3.02539 160.57 4.83594C160.728 6.64648 160.799 8.29883 160.799 9.79297V14.082H160.289L151.394 0.863281L142.482 0.792969C143.027 3.20117 143.308 6.24219 143.308 9.91602V16.8945C143.308 20.5508 143.027 23.5918 142.482 26H152.343ZM185.179 26.5098C189.116 26.5098 192.263 25.4551 194.161 23.6973C196.042 21.9395 197.026 19.6543 197.026 17C197.026 14.3457 196.042 12.0605 194.161 10.3027C192.263 8.54492 189.134 7.49023 185.214 7.49023C181.276 7.49023 178.13 8.54492 176.249 10.3027C174.351 12.0605 173.366 14.3457 173.366 17C173.366 19.6543 174.351 21.9395 176.249 23.6973C178.13 25.4551 181.259 26.5098 185.179 26.5098ZM185.179 21.2539C183.931 21.2539 182.929 20.8496 182.155 20.041C181.382 19.25 180.995 18.2305 180.995 17C180.995 15.7695 181.382 14.75 182.155 13.9414C182.929 13.1504 183.931 12.7461 185.179 12.7461C186.462 12.7461 187.481 13.1504 188.255 13.9414C189.011 14.7324 189.397 15.752 189.397 17C189.397 18.248 189.011 19.2676 188.255 20.0586C187.481 20.8496 186.462 21.2539 185.179 21.2539ZM213.215 26L216.168 17.0352H216.608L219.596 26H230.248C230.178 24.1367 230.442 21.9043 231.039 19.3027L232.34 14.6621C232.955 12.043 233.729 9.81055 234.678 8H225.326C225.362 9.125 225.239 10.5488 224.957 12.2891L223.586 17.6152C223.428 18.1074 223.322 18.5293 223.27 18.8633H222.795L219.315 8H213.479L209.981 18.916H209.594L209.26 17.6152L207.854 12.2891C207.555 10.6543 207.432 9.23047 207.467 8H198.133C198.994 9.66992 199.785 11.9023 200.471 14.6621L201.737 19.3027C202.018 20.4453 202.246 21.6406 202.405 22.8887C202.563 24.1367 202.615 25.1738 202.563 26H213.215ZM254.118 17.1406L255.384 0.792969H246.384L247.614 17.1406H254.118ZM250.848 26.5098C252.184 26.5098 253.239 26.1582 254.03 25.4375C254.821 24.7168 255.208 23.8203 255.208 22.7305C255.208 21.6055 254.821 20.6738 254.03 19.9531C253.239 19.2324 252.184 18.8633 250.848 18.8633C249.53 18.8633 248.475 19.2324 247.702 19.9531C246.911 20.6738 246.524 21.6055 246.524 22.7305C246.524 23.8203 246.911 24.7168 247.702 25.4375C248.475 26.1582 249.53 26.5098 250.848 26.5098Z" fill="#F36A86"/>
</svg>
