<svg width="106" height="105" viewBox="0 0 106 105" fill="none" xmlns="http://www.w3.org/2000/svg">
<g clip-path="url(#clip0_12:648)">
<path d="M13.674 28.0972C13.1528 28.421 12.4411 28.9044 11.6681 29.5804C11.4467 29.7733 10.536 30.5682 10.0449 31.2305C8.53697 33.2629 9.30464 36.3113 9.41219 36.7178C10.541 40.9756 15.3048 42.4539 15.6485 42.5545C15.6603 43.0312 15.6827 43.6969 15.7249 44.4891C15.758 45.1017 15.8811 47.3227 16.1632 49.3529C16.5578 52.1986 16.7936 53.8852 17.7386 55.8878C18.4117 57.3114 19.2623 59.1133 21.274 60.4281C23.4789 61.8689 25.7287 61.8442 26.4256 61.8265C28.8699 61.7656 30.599 60.7548 31.5553 60.1778C36.7977 57.0223 38.2592 50.4975 38.5469 49.0854C39.2868 50.1324 40.0351 51.1839 40.7932 52.2376C41.4979 53.2178 42.2014 54.1905 42.905 55.1517C42.3514 59.1737 42.2308 61.4939 42.33 62.8683C42.3498 63.1531 42.421 63.9599 41.9691 64.2881C41.4523 64.6646 40.7737 64.0331 39.8099 64.1728C38.967 64.2935 38.4407 64.9251 37.6737 65.8709C36.4517 67.3799 35.8638 68.8715 35.6022 69.6351C34.8819 71.7424 34.9037 73.4263 34.9313 74.6727C34.9791 76.8502 35.4184 77.3419 35.5681 77.4939C36.5648 78.5007 38.3299 78.121 38.6412 78.0513C52.5681 75.8681 66.4932 73.6853 80.4202 71.5022C82.029 70.9164 82.5926 70.1817 82.7871 69.5735C83.1052 68.5741 82.7193 66.9759 82.7179 66.9551C82.7179 66.9551 82.0698 64.7058 81.7443 63.8455C80.8027 61.3658 78.8135 60.1942 77.8529 59.5154C76.7229 58.7164 74.8358 57.4182 72.1191 57.2492C70.8118 57.1682 69.7309 57.3757 69.0282 57.5641C69.0597 56.6821 69.0932 55.8017 69.1247 54.9197C69.6698 55.3319 70.5316 55.8794 71.6893 56.2222C74.3063 56.996 76.5443 56.1666 77.2832 55.8811C79.5968 54.9865 80.8733 53.4117 82.5175 51.3846C83.9827 49.5782 84.9128 47.8976 85.4685 46.7599C85.812 46.6889 86.8634 46.4269 87.7219 45.4572C88.5645 44.5072 88.7071 43.459 88.7415 43.1066C89.3205 42.7985 90.5551 42.0387 91.4546 40.5402C92.4294 38.9136 92.4388 37.3678 92.4333 36.688C92.4279 35.8995 92.3794 33.7659 90.7839 31.9073C89.6248 30.558 88.2213 30.0211 87.5346 29.8122C87.3688 29.6914 87.1213 29.5109 86.8199 29.2912C85.3952 28.2543 84.683 27.7368 84.5979 27.6929C83.4815 27.1148 81.5848 26.9221 80.398 27.7678C79.8388 28.1662 79.4364 28.7975 78.5335 28.9123C78.2305 28.9503 77.985 28.9163 77.7983 28.8808C76.001 28.5448 74.4411 27.3384 74.4411 27.3384C73.5103 26.6186 70.9135 24.6119 68.2959 24.3092C67.5037 24.2179 66.2859 24.2334 64.7119 24.8958C64.4049 24.0077 63.7834 22.5722 62.5213 21.1742C61.8288 20.4057 59.878 18.3111 56.6238 17.8641C56.09 17.7914 53.8959 17.5386 51.445 18.6759C49.2357 19.7009 48.0215 21.2965 47.5392 22.0146C47.0302 21.6864 46.2772 21.2496 45.3136 20.8553C44.0261 20.3288 42.5489 19.7234 40.6612 19.9049C38.8091 20.0827 37.5 20.9266 36.7365 21.42C35.2959 22.3494 34.4727 23.386 34.3046 23.603C32.9569 25.3319 32.5529 27.1455 32.4143 28.1587C32.0829 28.1611 31.7499 28.1656 31.4186 28.168C31.3863 27.9137 31.3489 27.5287 31.3422 27.0607C31.3165 25.3641 31.7259 24.5334 31.8464 23.5994C32.1613 21.1686 30.3935 19.0987 30.2661 18.9547C29.9389 18.5827 28.6155 17.1219 26.3916 16.9099C24.7407 16.7531 23.4849 17.3656 23.001 17.6359C22.6564 17.177 22.0228 16.4794 21.0283 16.0709C18.8663 15.1839 16.388 16.232 15.0233 17.67C14.8581 17.8446 13.9809 18.7924 13.6074 20.2771C13.3379 21.3432 13.4687 22.1292 13.5722 23.154C13.681 24.3229 13.7789 25.993 13.674 28.0972Z" fill="#F77655"/>
<path d="M28.5586 31.5412C27.8502 31.4864 28.2224 29.7007 28.511 27.1024C28.821 24.3121 29.1468 23.6776 28.7619 22.4872C28.6401 22.1117 28.0636 20.3316 26.4268 19.8027C25.0731 19.3647 23.4616 19.9338 22.333 21.2242C22.2408 20.9031 21.9498 20.0564 21.1159 19.4683C20.1123 18.7581 18.6685 18.6699 17.5964 19.3718C16.7749 19.9086 16.4649 20.716 16.3628 21.0256C16.4357 22.8655 16.4684 24.7765 16.4489 26.7568C16.4389 27.9214 16.4099 29.0623 16.3691 30.1764C15.7756 30.2942 14.8599 30.5464 13.8922 31.1481C13.2199 31.5662 12.5582 31.9788 12.1059 32.7913C11.3918 34.0739 11.7043 35.4473 11.855 35.9461C12.326 37.5158 13.5486 38.3213 14.2098 38.7572C14.4865 38.9407 15.4687 39.5628 16.9046 39.7953C17.552 39.8997 18.1064 39.8967 18.5061 39.8683C18.4375 41.0726 18.389 42.7581 18.4947 44.7702C18.7066 48.7733 19.3811 51.3006 19.5487 51.9073C20.4546 55.1934 21.4284 56.3944 21.7368 56.756C22.3559 57.4826 23.2519 58.5033 24.7635 58.8784C26.4238 59.2893 27.8223 58.6754 28.4518 58.3975C29.9465 57.7399 30.7801 56.7455 31.7943 55.5036C32.5893 54.5305 33.6632 53.0009 34.7192 50.5665C35.4546 48.8725 36.3457 46.3591 36.799 43.1326C37.3572 42.8868 38.0522 42.6863 38.4657 43.0009C38.7796 43.2396 38.7587 43.6414 38.9125 44.1969C39.159 45.0887 39.6286 45.5547 40.1376 46.2108C40.9322 47.2417 42.8364 50.0605 45.6212 54.2761C45.5666 56.2752 45.4572 58.3744 45.2756 60.5612C45.0594 63.1594 44.7644 65.6195 44.4197 67.9329C42.9725 67.7498 42.2717 67.2324 41.8999 66.7701C41.7056 66.5279 41.656 66.3698 41.4726 66.3185C40.6783 66.0922 39.2738 68.3467 38.6021 69.9487C38.1523 71.0202 37.5899 72.8453 37.7644 75.369C51.8811 73.1562 65.9979 70.9433 80.1128 68.7307C80.1071 67.7821 79.9504 65.9191 78.7577 64.0755C77.0182 61.3834 74.2771 60.5967 73.3532 60.3468C72.4334 60.0982 70.9066 59.6874 69.0134 60.1501C66.7881 60.6953 65.4357 62.1027 64.9327 62.6887C65.872 60.1182 66.6138 57.0047 66.6514 53.462C66.6577 52.9424 66.6468 52.4351 66.6246 51.9409C62.8741 45.6516 60.5791 42.1276 59.6775 41.266C59.6036 41.1956 59.3473 40.9593 59.3985 40.7263C59.524 40.1404 61.4663 40.0399 63.485 40.0858C63.6922 41.1401 64.0613 42.6552 64.7446 44.3994C65.6752 46.7722 67.0253 50.2155 70.3083 52.3549C71.338 53.0248 72.7099 53.9194 74.491 53.7756C75.0352 53.7322 76.4649 53.5234 79.0241 51.0211C80.3565 49.7178 82.2389 47.5562 83.8122 44.299C84.1992 44.1888 84.9457 43.9154 85.6245 43.2351C86.5886 42.2698 86.7787 41.1228 86.8239 40.742C87.2308 40.6744 88.0776 40.4692 88.7146 39.7649C89.5983 38.7856 89.5053 37.4751 89.437 36.5039C89.3578 35.4028 89.3357 34.4587 88.6055 33.6809C87.7748 32.7967 86.6122 32.714 86.2481 32.7024C85.8097 32.1801 85.3844 31.8025 85.058 31.5448C84.5356 31.131 84.011 30.7156 83.2052 30.4892C82.892 30.401 82.3466 30.2539 81.6619 30.3745C81.4097 30.4198 80.3318 30.6097 80.0342 31.3752C79.9799 31.5152 79.9651 31.6396 79.9599 31.7281C80.3015 31.8519 79.2776 31.4747 78.9296 31.371C78.5013 31.2418 77.8396 31.1682 76.8591 31.4687C76.2089 31.2617 75.5429 31.0268 74.8623 30.7597C72.1746 29.7053 69.9134 28.4048 68.0604 27.1166C66.1326 27.3463 64.2045 27.5742 62.2785 27.8037C62.2556 27.1952 62.1569 26.286 61.7925 25.2506C61.5345 24.517 61.1635 23.4636 60.1658 22.4874C59.8575 22.1869 58.7409 21.1569 57.0262 20.8613C56.2756 20.7311 55.7039 20.794 54.5997 20.9138C53.5516 21.0266 53.006 21.0854 52.3387 21.4016C51.6144 21.744 51.1878 22.1845 50.4499 22.9389C49.7337 23.6728 49.3755 24.0397 49.1288 24.6065C49.0769 24.7252 48.4572 26.1722 48.6916 26.9382C48.7073 26.9891 48.753 27.123 48.6899 27.2435C48.5757 27.4635 48.1766 27.4841 47.873 27.4688C47.8502 27.1406 47.782 26.6575 47.5751 26.116C46.8125 24.1211 44.901 23.2997 44.4634 23.1109C43.1058 22.5267 41.9089 22.5904 41.3369 22.6267C40.6366 22.6716 39.0074 22.7993 37.5279 24.0036C36.4828 24.8538 36.0098 25.8374 35.7824 26.3211C35.0308 27.9241 35.0439 29.516 35.0569 30.2557C35.0593 30.4288 35.1674 30.6445 35.0718 30.6671C33.0087 31.1525 30.6297 31.7028 28.5586 31.5412Z" fill="#F77655" stroke="black" stroke-width="0.565086" stroke-miterlimit="10"/>
<path d="M38.8457 43.0551C41.0099 42.7159 43.1742 42.3766 45.3384 42.0374C47.5279 45.3987 49.7195 48.7616 51.909 52.123C52.0892 52.2873 52.5087 52.7135 52.6943 53.4108C52.9044 54.192 52.6942 54.8331 52.6106 55.0541C51.8983 58.3307 51.1875 61.6052 50.4752 64.8819C51.1883 64.1523 52.3125 63.2116 53.8997 62.5605C55.0803 62.0761 56.0636 61.9391 56.4251 61.8977C57.0467 61.825 58.3986 61.6798 60.0304 62.1772C61.7123 62.6895 62.7685 63.6012 63.3903 64.1501C64.1027 64.7782 64.8172 65.4078 65.2813 66.4829C65.4188 66.8007 65.5637 67.3843 65.8471 68.5353C65.8778 68.6583 66.3417 70.5474 66.3843 70.7219" stroke="black" stroke-width="0.565086" stroke-miterlimit="10"/>
<path d="M46.3214 43.1517C46.6656 43.4504 47.1941 43.8538 47.9107 44.2048C48.5404 44.5122 49.1725 44.823 50.0155 44.8243C51.0015 44.8261 51.7249 44.4057 52.0495 44.2138C53.7233 43.2154 54.1974 41.4233 54.3083 40.9998C54.4842 40.3335 54.4917 39.8099 54.4999 39.1203C54.5169 37.8783 54.336 36.8581 54.1702 36.1653C53.9268 36.4131 53.5535 36.7557 53.05 37.0959C51.869 37.893 50.7582 38.1415 50.19 38.263C49.2271 38.4692 48.4858 38.4596 47.8956 38.4529C47.0646 38.4421 46.3952 38.4288 45.5917 38.1201C45.0256 37.9019 44.4753 37.5172 44.475 37.5153C44.2959 37.3947 44.1511 37.2858 44.0488 37.2046C44.2651 38.1831 44.5868 39.311 45.069 40.5262C45.4656 41.5241 45.9003 42.3997 46.3214 43.1517Z" stroke="black" stroke-width="0.565086" stroke-miterlimit="10"/>
<path d="M74.2115 30.7135C74.3932 32.0311 74.5752 33.3505 74.7589 34.6678C72.7728 36.1803 70.7868 37.6928 68.8005 39.2034C68.8441 40.005 68.985 41.1593 69.4335 42.4636C70.3273 45.0634 72.513 48.4615 74.3636 48.1409C74.9651 48.0371 75.3403 47.5722 76.0383 46.7097C77.1402 45.3472 77.5629 43.9444 77.7407 43.1329C77.315 42.9956 76.5898 42.6994 75.8927 42.0593C75.5698 41.763 75.0082 41.2332 74.6997 40.3474C74.5538 39.9279 74.1949 38.9031 74.7106 37.9357C75.0893 37.2262 75.7392 36.9203 76.0373 36.7782C76.8094 36.4131 77.5101 36.4558 78.1588 36.4952C78.5151 36.5176 79.1835 36.5615 79.9731 36.8915C80.7137 37.2006 81.4749 37.5198 81.8026 38.3092C82.0202 38.8338 82.0542 39.5854 81.6538 40.1572C81.2895 40.6795 80.7358 40.8083 80.0294 40.9724C79.5492 41.0839 78.8025 41.2581 78.0215 40.8982C77.6599 40.7318 77.4069 40.5045 77.2531 40.338" stroke="black" stroke-width="0.565086" stroke-miterlimit="10"/>
<path d="M76.7097 31.5874C76.4936 31.7776 76.196 32.0683 75.8985 32.4696C75.6167 32.8493 75.2612 33.3302 75.0965 34.031C74.9638 34.5952 75.0158 35.0484 75.0892 35.6871C75.1483 36.2098 75.2497 36.6381 75.3351 36.9393" stroke="black" stroke-width="0.565086" stroke-miterlimit="10"/>
<path d="M79.9575 31.7265C80.2195 31.9142 80.5842 32.2212 80.9191 32.6797C81.3657 33.2903 81.529 33.8577 81.6134 34.1533C81.7335 34.5788 81.8862 35.1268 81.7793 35.8319C81.6781 36.4998 81.3925 36.9888 81.2007 37.261" stroke="black" stroke-width="0.565086" stroke-miterlimit="10"/>
<path d="M86.2032 32.8481C86.3266 33.5381 86.3758 34.1195 86.3968 34.5452C86.4418 35.4648 86.4643 35.9245 86.2721 36.3894C86.0964 36.8135 85.8274 37.1283 85.3548 37.6771C85.1001 37.9745 84.8712 38.2048 84.7071 38.3621" stroke="black" stroke-width="0.565086" stroke-miterlimit="10"/>
<path d="M81.6635 36.489C81.8878 36.7761 82.2972 37.2229 82.9385 37.5799C83.7092 38.0082 84.4312 38.0895 84.8131 38.1059" stroke="black" stroke-width="0.565086" stroke-miterlimit="10"/>
<path d="M84.7726 38.2102C84.8101 38.4617 84.9508 39.189 85.5699 39.8298C86.1819 40.4622 86.8947 40.6307 87.146 40.6771" stroke="black" stroke-width="0.565086" stroke-miterlimit="10"/>
<path d="M80.6529 43.5639C81.0773 43.7052 81.5619 43.8409 82.1007 43.9452C82.9009 44.1 83.622 44.151 84.2286 44.1531" stroke="black" stroke-width="0.565086" stroke-miterlimit="10"/>
<path d="M77.8204 43.2656C78.0203 43.3125 78.259 43.3513 78.5295 43.3623C79.0131 43.3818 79.4207 43.3065 79.7132 43.2263" stroke="black" stroke-width="0.565086" stroke-miterlimit="10"/>
<path d="M68.7544 38.9922C68.8347 38.7622 68.9425 38.343 68.8417 37.846C68.6183 36.737 67.5636 36.2484 67.4384 36.1917C67.6662 35.8814 68.2244 35.0275 68.2458 33.8134C68.2742 32.2189 67.3529 31.1583 67.1344 30.9199C67.3628 30.5161 67.6683 29.8619 67.7949 29.0032C67.8962 28.3238 67.8532 27.7452 67.7893 27.3376" stroke="black" stroke-width="0.565086" stroke-miterlimit="10"/>
<path d="M67.2768 36.0999C63.0492 36.5338 58.8219 36.9696 54.5925 37.4038" stroke="black" stroke-width="0.565086" stroke-miterlimit="10"/>
<path d="M68.814 39.0868C64.0374 39.7764 59.2626 40.4658 54.4856 41.1536" stroke="black" stroke-width="0.565086" stroke-miterlimit="10"/>
<path d="M27.1773 36.3962C26.684 36.6795 25.8607 37.0469 24.8139 37.0584C24.38 37.0635 23.791 37.0643 23.141 36.7372C22.8553 36.5933 22.1556 36.2282 21.7936 35.3907C21.7037 35.1818 21.3589 34.3931 21.7272 33.5193C22.0647 32.7171 22.7711 32.3947 22.9353 32.3232C23.8824 32.1252 26.6663 31.5916 28.5049 32.0336C28.8021 32.1052 29.041 32.1936 29.2604 32.3041C30.564 32.9578 31.0573 34.2799 31.178 34.6004C31.3257 34.9948 31.7857 36.2268 31.2602 37.6057C30.7696 38.8914 29.7282 39.4969 29.2617 39.7684C27.8743 40.575 26.4716 40.4936 25.7346 40.4509C25.0652 40.4128 24.5158 40.2892 24.1349 40.183C23.9869 40.8926 23.8142 41.9683 23.8089 43.2847C23.8004 45.4806 24.2698 45.4223 24.5598 48.4884C24.697 49.935 24.6846 50.9265 25.4222 51.9224C25.6304 52.2044 26.1035 52.8261 26.6953 52.7944C27.0791 52.7743 27.4245 52.4837 27.9716 51.62C28.9189 50.1217 29.2795 48.7858 29.2795 48.7858C29.593 47.6232 30.118 46.0099 31.0557 43.9639C32.9114 43.7245 34.7672 43.485 36.6229 43.2456" stroke="black" stroke-width="0.565086" stroke-miterlimit="10"/>
<path d="M38.6051 43.0401C38.8299 43.0507 39.0549 43.0631 39.2796 43.0736" stroke="black" stroke-width="0.565086" stroke-miterlimit="10"/>
<path d="M53.1731 43.4529C57.2602 49.615 59.0239 52.1699 59.4099 52.6013C59.4446 52.6397 59.5892 52.7963 59.7058 53.0411C59.9868 53.63 59.8714 54.2316 59.8293 54.4498C59.5658 55.8334 59.4301 57.2427 59.1196 58.6183C58.9565 59.3417 58.7485 60.3867 58.5938 61.6865" stroke="black" stroke-width="0.565086" stroke-miterlimit="10"/>
<path d="M66.974 30.9087C64.847 31.2422 61.7306 31.54 59.6036 31.8734" stroke="black" stroke-width="0.565086" stroke-miterlimit="10"/>
<path d="M51.5532 32.415C50.2543 32.6186 48.3543 32.9165 47.0554 33.1201" stroke="black" stroke-width="0.565086" stroke-miterlimit="10"/>
<path d="M31.7119 31.5977C32.2771 35.5435 32.8406 39.4915 33.4058 43.4373" stroke="black" stroke-width="0.565086" stroke-miterlimit="10"/>
<path d="M34.3235 31.0583C34.7705 35.078 35.2154 39.096 35.6625 43.1157" stroke="black" stroke-width="0.565086" stroke-miterlimit="10"/>
<path d="M36.5044 33.1885C36.8191 36.1573 37.2105 39.627 37.5253 42.5959" stroke="black" stroke-width="0.565086" stroke-miterlimit="10"/>
<path d="M44.1255 38.3167C41.8868 38.6676 39.6482 39.0185 37.4077 39.3697" stroke="black" stroke-width="0.565086" stroke-miterlimit="10"/>
<path d="M56.4092 33.6495C52.8666 34.2048 49.5445 31.7831 48.9892 28.2404C48.4339 24.6978 50.8556 21.3758 54.3982 20.8204C57.9409 20.2651 61.2629 22.6868 61.8182 26.2294C62.3736 29.7721 59.9519 33.0941 56.4092 33.6495Z" fill="black" stroke="black" stroke-width="0.565086" stroke-miterlimit="10"/>
<path d="M42.8118 35.781C39.2692 36.3364 35.9471 33.9147 35.3918 30.372C34.8365 26.8294 37.2582 23.5074 40.8008 22.952C44.3435 22.3967 47.6655 24.8184 48.2208 28.361C48.7762 31.9037 46.3545 35.2257 42.8118 35.781Z" fill="black" stroke="black" stroke-width="0.565086" stroke-miterlimit="10"/>
<path d="M77.3066 34.3179C77.2479 34.5273 77.1941 34.7798 77.169 35.0697C77.1284 35.5527 77.1814 35.9638 77.2473 36.2624" stroke="black" stroke-width="0.565086" stroke-miterlimit="10"/>
<path d="M22.3101 21.4038C22.3005 21.8534 22.2893 22.3051 22.2778 22.7549C22.213 25.4916 22.1371 28.2185 22.052 30.9354" stroke="black" stroke-width="0.565086" stroke-miterlimit="10"/>
<path d="M22.7983 31.0312C22.3326 31.1252 21.8653 31.2214 21.3996 31.3153" stroke="black" stroke-width="0.565086" stroke-miterlimit="10"/>
<path d="M16.0188 30.5366C16.8732 30.4408 17.5398 30.5461 17.9683 30.6524C18.9622 30.8989 19.6673 31.3832 20.6376 32.051C21.1848 32.4285 21.6163 32.7727 21.9087 33.0205" stroke="black" stroke-width="0.565086" stroke-miterlimit="10"/>
<path d="M15.3146 35.4501C15.6018 35.5309 16.0005 35.6419 16.4765 35.7713C19.4463 36.5699 20.0697 36.5694 20.6071 36.3002C20.8704 36.1674 21.2415 35.9072 21.5678 35.3374" stroke="black" stroke-width="0.565086" stroke-miterlimit="10"/>
<path d="M52.269 37.6807C52.5599 39.536 52.8507 41.3913 53.1415 43.2466" stroke="black" stroke-width="0.565086" stroke-miterlimit="10"/>
<path d="M49.5759 38.5254C49.898 40.5798 50.2197 42.6324 50.5418 44.6868" stroke="black" stroke-width="0.565086" stroke-miterlimit="10"/>
<path d="M46.4419 38.5542C46.4985 40.1679 46.5529 41.78 46.6094 43.3936" stroke="black" stroke-width="0.565086" stroke-miterlimit="10"/>
<path d="M60.5371 30.2467C59.8446 30.0979 58.9144 29.8929 57.9273 28.9475C57.6963 28.7263 57.2996 28.3366 56.9888 27.7161C56.5099 26.7654 56.5757 25.92 56.5488 25.5295C56.4866 24.5974 55.729 23.2671 52.4799 21.6239C52.2033 21.5624 52.0668 21.6162 52.0058 21.6524C51.9743 21.6707 51.8859 21.7265 51.817 21.7735C51.7668 21.8062 51.7325 21.8306 51.6792 21.8676C51.5813 21.9363 51.4868 22.0026 51.3676 22.0937C51.3676 22.0937 51.2924 22.1494 51.2216 22.2082C50.7946 22.5496 50.2759 23.2544 50.2759 23.2544C49.7644 23.9562 49.8629 23.9159 49.4903 24.4338C49.4903 24.4338 49.34 24.6423 49.2419 24.9895C49.2274 25.0432 49.2062 25.1266 49.2278 25.2281C49.2452 25.315 49.2858 25.3792 49.3145 25.4166C49.7152 25.5521 50.573 25.9038 51.2872 26.7623C51.7761 27.3511 52.0045 27.9445 52.1148 28.32C52.297 28.8863 52.5669 29.538 52.9797 30.213C54.1513 32.1286 55.5748 32.975 56.4941 33.4391C57.0256 33.3272 57.4477 33.1734 57.7499 33.0459C57.9539 32.9605 58.1933 32.8582 58.4831 32.6755C58.7573 32.5029 58.8689 32.3881 59.2318 32.0758C60.1611 31.278 60.4351 31.1645 60.5324 30.7641C60.5853 30.5537 60.5617 30.3668 60.5371 30.2467Z" fill="#F77655"/>
<path d="M46.9024 32.3837C46.2098 32.2348 45.2797 32.0298 44.2926 31.0844C44.0615 30.8633 43.6648 30.4736 43.354 29.8531C42.8752 28.9024 42.9409 28.0569 42.9141 27.6665C42.8518 26.7344 42.0942 25.4041 38.8451 23.7608C38.5685 23.6993 38.4321 23.7531 38.371 23.7894C38.3396 23.8077 38.2511 23.8635 38.1822 23.9105C38.132 23.9432 38.0977 23.9676 38.0444 24.0046C37.9465 24.0733 37.852 24.1396 37.7329 24.2307C37.7329 24.2307 37.6577 24.2863 37.5868 24.3451C37.1599 24.6866 36.6412 25.3914 36.6412 25.3914C36.1296 26.0931 36.2282 26.0529 35.8556 26.5708C35.8556 26.5708 35.7052 26.7793 35.6071 27.1264C35.5927 27.1802 35.5714 27.2636 35.593 27.3651C35.6105 27.4519 35.651 27.5161 35.6798 27.5536C36.0804 27.689 36.9383 28.0408 37.6525 28.8993C38.1413 29.4881 38.3697 30.0814 38.48 30.4569C38.6622 31.0232 38.9322 31.6749 39.345 32.35C40.5166 34.2655 41.94 35.112 42.8593 35.5761C43.3909 35.4642 43.8129 35.3103 44.1152 35.1829C44.3191 35.0975 44.5586 34.9952 44.8483 34.8125C45.1225 34.6398 45.2342 34.5251 45.5971 34.2127C46.5264 33.415 46.8003 33.3015 46.8977 32.9011C46.9505 32.6907 46.9269 32.5037 46.9024 32.3837Z" fill="#F77655"/>
<path d="M36.239 75.3262C36.3786 75.2911 36.5586 75.289 36.7232 75.3636L38.4394 75.4961C42.5345 75.1021 50.7601 74.3199 50.9011 74.3436C51.0421 74.3672 59.9093 72.5692 64.3252 71.6672L78.8944 69.7267C79.963 68.7583 82.1401 67.2958 82.3002 69.1928C82.3874 69.141 82.5934 69.2384 82.7194 70.0424C82.8769 71.0474 96.1396 71.371 97.2988 72.5623C98.458 73.7535 99.6694 78.1972 99.8882 79.593L100.606 84.1714L85.7567 86.499L80.0059 87.4005C79.6281 88.0318 72.3776 88.1107 72.0666 88.7544C71.6779 89.559 69.2229 91.9785 67.9946 92.171C66.7663 92.3636 65.3782 92.7721 62.441 91.9168C60.0913 91.2326 59.3003 90.979 59.1985 90.9378L52.6847 92.6557L44.9239 93.8722C43.6711 94.0305 40.7894 94.4288 39.2847 94.7562C37.4039 95.1654 27.88 94.9422 27.0821 93.8659C26.2841 92.7897 25.7388 83.8368 25.762 81.4305C25.7853 79.0242 36.7816 78.7879 37.1157 76.9049C37.2905 75.9198 37.0343 75.5046 36.7232 75.3636L36.239 75.3262Z" fill="#F77655"/>
<path d="M34.4839 91.5807C35.9167 91.3561 37.0294 90.7808 37.7531 89.9107C38.4769 89.0406 38.7789 87.7903 38.5464 86.307C38.3158 84.8363 37.6448 83.7321 36.6895 83.1252C35.7342 82.5183 34.4852 82.3067 33.065 82.5293L28.6719 83.2179C28.8236 83.6081 28.9721 84.1021 29.1249 84.7055C29.2777 85.3089 29.394 85.8856 29.482 86.4474L29.8748 88.9533C29.9629 89.515 30.0287 90.0997 30.0669 90.7146C30.105 91.3294 30.1148 91.8453 30.0907 92.2694L34.4839 91.5807ZM32.3598 85.6212L33.6474 85.4194C34.0829 85.3511 34.4781 85.4379 34.8329 85.6798C35.1887 85.9279 35.4015 86.2955 35.4787 86.7879C35.5569 87.2865 35.4667 87.7016 35.2093 88.0395C34.9455 88.3783 34.5958 88.5819 34.154 88.6511L32.8663 88.853L32.3598 85.6212ZM44.252 90.2371C44.8896 90.1372 45.5245 89.9794 46.1515 89.7712C46.7775 89.5567 47.2471 89.3343 47.5666 89.1032L47.1826 86.9839C46.9843 87.2866 46.6572 87.5513 46.2012 87.778C45.7452 88.0047 45.2522 88.1596 44.7283 88.2417C44.0466 88.3486 43.4295 88.2901 42.878 88.0726C42.3202 87.8561 41.9881 87.5524 41.8753 87.1627L41.9664 87.0837C42.7365 87.4998 43.6163 87.543 44.7272 87.3688C46.4125 87.1046 47.2853 86.3599 47.0983 85.1669C47.0221 84.6809 46.8023 84.2691 46.3666 83.9235C45.7454 83.4259 44.6279 83.1872 42.9858 83.4381C41.6287 83.6509 40.5718 84.211 39.9881 84.9428C39.399 85.6818 39.1572 86.5734 39.3047 87.5139C39.4649 88.5365 39.9922 89.301 40.8918 89.8002C41.7914 90.2995 42.9076 90.4478 44.252 90.2371ZM43.4879 86.8064C42.8125 86.9123 42.2755 86.8283 41.8706 86.5555C41.871 86.1868 41.9926 85.8897 42.2217 85.6597C42.4518 85.4361 42.7399 85.294 43.0808 85.2405C43.8445 85.1208 44.3757 85.3738 44.4559 85.8851C44.4905 86.106 44.4109 86.2996 44.218 86.4721C44.0262 86.6509 43.7846 86.7599 43.4879 86.8064ZM52.0348 89.0171C53.2467 88.8272 54.1522 88.4977 54.7566 88.0214C55.361 87.5451 55.6081 86.976 55.5022 86.3006C55.3541 85.315 54.3852 85.0336 53.3549 85.0205C51.9582 84.9807 50.399 85.348 50.3288 84.8998C50.2882 84.641 50.7203 84.3858 51.484 84.266C52.0206 84.1819 52.568 84.1673 53.1209 84.2293C53.6739 84.2914 54.1342 84.3809 54.5017 84.4979L54.1671 82.2804C53.122 82.0497 52.0436 82.0183 50.9327 82.1924C49.7776 82.3735 48.9226 82.6951 48.3677 83.1572C47.8075 83.6265 47.5734 84.1547 47.6664 84.7481C48.0483 87.1845 52.6995 85.3366 52.839 86.2266C52.8836 86.5106 52.4033 86.7476 51.5134 86.8871C51.0399 86.9613 50.4527 86.9693 49.7589 86.9164C49.0588 86.8644 48.4474 86.7598 47.9204 86.616L48.3013 89.0462C48.746 89.1188 49.3528 89.153 50.1281 89.1479C50.896 89.1374 51.5361 89.0953 52.0348 89.0171ZM58.3031 80.4874C58.5465 80.1841 58.634 79.8341 58.5716 79.4364C58.5083 79.0325 58.317 78.7197 57.9924 78.5054C57.6678 78.2912 57.2693 78.2243 56.7896 78.2995C56.3098 78.3747 55.9509 78.5603 55.7137 78.8626C55.4703 79.1659 55.3838 79.5222 55.4472 79.9262C55.5095 80.3239 55.6998 80.6303 56.0244 80.8446C56.3427 81.0598 56.7412 81.1267 57.2209 81.0515C57.7007 80.9763 58.0596 80.7907 58.3031 80.4874ZM60.0602 87.5716C59.729 86.7375 59.4569 85.6613 59.2511 84.3484L58.971 82.5621C58.878 81.9688 58.8364 81.4967 58.8388 81.1407C58.5196 81.4559 58.0354 81.6676 57.3726 81.7715C56.7098 81.8754 56.1652 81.8249 55.7269 81.6285C55.8273 81.8973 55.9321 82.3594 56.0359 83.0222L56.316 84.8085C56.5218 86.1214 56.5919 87.2292 56.5318 88.1246L60.0602 87.5716ZM65.5467 89.7317C68.0904 89.3329 70.2096 87.8755 69.8791 85.7673C69.8257 85.4264 69.6848 85.1057 69.464 84.8105L69.1602 82.8727C68.9544 81.5598 68.8842 80.452 68.9443 79.5566L65.4159 80.1097C65.5823 80.3876 65.6957 80.6155 65.7696 80.798C65.8381 80.9877 65.8946 81.2246 65.9392 81.5086L65.9619 81.6538L65.7915 81.6805C65.1858 80.6631 64.1374 80.1225 62.7993 80.3323C61.7957 80.4896 61.0544 81.0003 60.6736 81.7067C60.2865 82.4141 60.1637 83.2806 60.3131 84.2337C60.4625 85.1868 60.8426 85.9615 61.4266 86.5102C62.0052 87.0662 62.8662 87.3192 63.8699 87.1619C65.2396 86.9472 66.0619 86.0875 66.302 84.9375L66.4472 84.9148C66.7559 85.151 66.9359 85.4332 66.9883 85.7677C67.0784 86.3421 66.9141 86.8205 66.5028 87.2084C66.0905 87.5899 65.4903 87.8456 64.714 87.9673C64.0323 88.0742 63.3221 88.0821 62.5825 87.9846C61.8429 87.8871 61.2575 87.7008 60.8264 87.4256L61.2239 89.879C61.7473 89.9586 62.4109 89.9839 63.2147 89.955C64.0186 89.926 64.7956 89.8494 65.5467 89.7317ZM64.8633 85.1243C64.3772 85.2005 63.9695 85.1156 63.6389 84.8635C63.302 84.6123 63.0985 84.2627 63.0273 83.8082C62.954 83.3411 63.0389 82.9333 63.2827 82.5912C63.5202 82.25 63.8825 82.0444 64.3686 81.9683C64.842 81.894 65.2381 81.9872 65.5687 82.2393C65.8992 82.4914 66.0984 82.8547 66.1706 83.3155C66.2389 83.751 66.1521 84.1462 65.9093 84.4947C65.6664 84.8432 65.3177 85.053 64.8633 85.1243ZM74.7736 85.2652C74.634 85.0348 74.494 84.6364 74.3554 84.0826C74.2168 83.5287 74.1154 83.0466 74.0511 82.6364L73.9415 82.0198C73.8752 81.5969 73.9587 81.2216 74.1856 80.895C74.4125 80.5684 74.7495 80.3669 75.185 80.2986C76.0245 80.167 76.6109 80.6895 76.7504 81.5795L76.8434 82.1728C76.9898 83.107 77.0303 84.0254 76.9702 84.9209L80.5112 84.3658C80.1704 83.5526 79.912 82.5648 79.73 81.4034L79.6221 80.7154C79.4787 79.8002 79.1134 79.1202 78.52 78.6764C77.9266 78.2327 77.1528 78.0823 76.1997 78.2317C74.9184 78.4326 74.1423 79.1751 73.8705 80.4529L73.7127 80.4777L73.686 80.3072C73.5979 79.7455 73.6417 79.2406 73.8109 78.7937L70.2131 79.3577C70.5364 80.1413 70.7868 81.0786 70.9579 82.1706L71.1242 83.231C71.2083 83.7675 71.2533 84.2196 71.2655 84.5863C71.2787 84.9594 71.2653 85.3689 71.2262 85.8212L74.7736 85.2652ZM85.8736 83.7128C86.5111 83.6128 87.146 83.4551 87.773 83.2469C88.3991 83.0323 88.8686 82.81 89.1881 82.5788L88.8042 80.4596C88.6059 80.7623 88.2787 81.027 87.8228 81.2537C87.3668 81.4803 86.8737 81.6352 86.3498 81.7174C85.6681 81.8242 85.051 81.7657 84.4996 81.5482C83.9418 81.3317 83.6096 81.0281 83.4968 80.6383L83.5879 80.5594C84.358 80.9754 85.2379 81.0186 86.3488 80.8445C88.0341 80.5803 88.9068 79.8356 88.7198 78.6426C88.6436 78.1566 88.4239 77.7448 87.9882 77.3992C87.3669 76.9016 86.2495 76.6629 84.6074 76.9138C83.2503 77.1265 82.1934 77.6867 81.6097 78.4184C81.0206 79.1575 80.7788 80.0491 80.9262 80.9896C81.0865 82.0121 81.6138 82.7767 82.5134 83.2759C83.4129 83.7751 84.5291 83.9235 85.8736 83.7128ZM85.1095 80.2821C84.4341 80.3879 83.8971 80.304 83.4922 80.0312C83.4926 79.6625 83.6141 79.3653 83.8433 79.1354C84.0734 78.9118 84.3615 78.7696 84.7023 78.7162C85.4661 78.5965 85.9973 78.8495 86.0774 79.3608C86.112 79.5817 86.0324 79.7752 85.8396 79.9477C85.6477 80.1266 85.4061 80.2356 85.1095 80.2821ZM93.8675 82.2721C93.602 81.8158 93.4054 81.1805 93.2777 80.3662L93.1867 79.7855C93.1026 79.249 93.229 78.7765 93.5586 78.3627C93.8883 77.9488 94.3213 77.6999 94.8515 77.6168C95.4638 77.5208 96.123 77.6826 96.5056 77.9783L96.0881 75.3146C95.7706 75.2286 95.4199 75.2189 95.0285 75.2802C93.7914 75.4742 93.0781 76.4526 93.0665 77.9871L92.9087 78.0118L92.8483 77.6268C92.7998 77.3175 92.7872 76.9897 92.8169 76.6423C92.8402 76.2959 92.9122 76.0129 93.0247 75.7819L89.3259 76.3617C89.6571 77.1958 89.9075 78.1331 90.0708 79.1746L90.239 80.2476C90.3201 80.7652 90.3631 81.2047 90.3744 81.5651C90.3866 81.9318 90.3742 82.3476 90.3391 82.8252L93.8675 82.2721Z" fill="black"/>
</g>
<defs>
<clipPath id="clip0_12:648">
<rect width="92.3789" height="91.0869" fill="white" transform="translate(0 14.3062) rotate(-8.90884)"/>
</clipPath>
</defs>
</svg>
