<svg width="24" height="25" viewBox="0 0 24 25" fill="none" xmlns="http://www.w3.org/2000/svg">
<path d="M4.38226 0.576172C1.95468 0.576172 0 2.53085 0 4.95842V20.1939C0 22.6215 1.95468 24.5761 4.38226 24.5761H12.6398V15.1937H10.1588V11.8157H12.6398V8.92967C12.6398 6.66227 14.1057 4.58042 17.4825 4.58042C18.8497 4.58042 19.8608 4.71168 19.8608 4.71168L19.7813 7.86618C19.7813 7.86618 18.7501 7.85644 17.625 7.85644C16.4073 7.85644 16.212 8.41751 16.212 9.34895V11.8157H19.878L19.7183 15.1937H16.212V24.5762H19.6177C22.0453 24.5762 24 22.6215 24 20.1939V4.95844C24 2.53087 22.0453 0.576196 19.6177 0.576196H4.38223L4.38226 0.576172Z" fill="#E8E8E8"/>
</svg>
