<svg width="25" height="25" viewBox="0 0 25 25" fill="none" xmlns="http://www.w3.org/2000/svg">
<path d="M4.77732 0.576172C2.19098 0.576172 0.0742188 2.69289 0.0742188 5.27927V19.8738C0.0742188 22.4602 2.19094 24.5762 4.77732 24.5762H19.3719C21.9582 24.5762 24.0742 22.4602 24.0742 19.8738V5.27927C24.0742 2.69294 21.9582 0.576172 19.3719 0.576172H4.77732ZM5.96022 4.53665C7.20032 4.53665 7.96416 5.35075 7.98774 6.42088C7.98774 7.46738 7.20027 8.30436 5.93624 8.30436H5.91297C4.69648 8.30436 3.91021 7.46742 3.91021 6.42088C3.91021 5.35078 4.72027 4.53665 5.9602 4.53665H5.96022ZM16.6468 9.53828C19.0317 9.53828 20.8196 11.0971 20.8196 14.4469V20.7004H17.1951V14.8662C17.1951 13.4001 16.6706 12.3999 15.3589 12.3999C14.3576 12.3999 13.7607 13.074 13.4987 13.7253C13.4029 13.9583 13.3794 14.2837 13.3794 14.6096V20.7004H9.75496C9.75496 20.7004 9.80253 10.8174 9.75496 9.79404H13.3802V11.3385C13.8618 10.5954 14.7234 9.53826 16.6468 9.53826V9.53828ZM4.124 9.79483H7.74845V20.7004H4.124V9.79483Z" fill="#E8E8E8"/>
</svg>
