<svg width="105" height="127" viewBox="0 0 105 127" fill="none" xmlns="http://www.w3.org/2000/svg">
<path d="M59.7073 30.7763C60.1974 30.4716 60.9543 29.9879 61.8667 29.3755C64.7938 27.3931 65.7476 26.4168 68.4149 24.5714C71.1358 22.6895 72.5165 21.754 73.4911 21.9503C75.3461 22.3232 76.3994 24.3091 78.4185 24.0667C79.1846 23.9749 79.2105 23.6655 79.9126 23.6507C80.6404 23.6315 81.5956 23.9382 84.0247 26.5036C85.0614 27.5992 87.0391 29.8196 88.7926 33.105C89.6181 34.6535 89.7763 35.2848 89.7121 35.9266C89.5792 37.1998 88.6342 37.6772 88.8272 38.8775C88.9418 39.6078 89.3402 39.7506 89.6278 40.4842C90.2042 41.948 89.4495 43.509 89.0362 44.3447C87.9811 46.4607 86.6155 47.1848 82.9698 50.0071C80.0133 52.2973 78.4077 53.7575 77.9604 54.1689C75.9131 56.0473 74.8404 57.0499 73.7261 58.7668C73.2464 59.5051 72.632 60.8107 71.3986 63.4239C71.1789 63.8892 70.562 65.2018 69.3021 68.0127C67.056 73.0299 67.3554 72.5569 66.969 73.2609C65.1172 76.6376 63.4666 77.8622 64.0069 79.0203C64.3594 79.7764 65.396 79.969 65.899 80.091C71.1009 81.3185 77.9152 88.3461 77.5295 93.0212C77.3314 95.4017 75.3232 96.8326 74.9189 97.1241C73.1561 98.3904 71.2235 98.2902 68.631 98.1216C67.6622 98.0558 65.2625 97.8464 60.8823 96.4625C59.6197 96.0643 56.283 94.967 51.9051 92.8545C50.5616 92.2077 48.4081 91.03 44.0965 88.6766C41.0753 87.0274 40.2121 86.5208 38.2892 85.5469C34.4679 83.6106 33.8378 83.5604 32.422 82.7765C26.9026 79.725 24.1536 73.7057 23.0976 71.3887C21.9621 68.8981 20.42 64.595 20.4993 59.3176C20.5196 58.0985 20.6625 54.2694 22.4072 49.9721C22.9425 48.6498 23.5033 47.5951 23.9448 46.8388C23.3742 46.1941 22.6166 45.2014 22.017 43.8586C20.723 40.9633 21.0317 38.3876 21.3148 36.0185C21.6136 33.5042 21.8968 31.1351 23.6303 29.1828C24.5689 28.1251 25.552 27.6203 26.8852 26.9304C29.1018 25.7876 31.1379 25.3059 32.5485 25.0772C32.6093 24.4791 32.8343 23.1299 33.819 21.9208C34.9042 20.5901 36.2706 20.2251 36.9347 20.0562C36.9347 20.0562 38.6465 19.6317 40.7728 20.2192C45.7381 21.5866 49.758 29.0306 49.9748 29.4422C50.9314 29.2259 52.1626 29.0569 53.6062 29.12C56.2735 29.2497 58.412 30.1193 59.7073 30.7763Z" fill="#B6E8F3"/>
<path d="M60.5907 34.8254C62.3508 33.901 64.2317 32.7983 66.1758 31.4858C67.7666 30.4113 69.2126 29.3221 70.5114 28.2584C72.2527 26.8212 73.0693 25.9594 74.3791 26.0409C75.51 26.1122 76.441 26.8533 77.0216 27.429C80.0488 31.6007 83.0759 35.7725 86.1043 39.9408C86.2057 40.348 86.3029 40.9928 86.1542 41.7238C85.8073 43.4476 84.3767 44.1889 84.1202 44.3156C80.6361 47.1603 77.1533 50.0014 73.6692 52.8461C73.1858 53.4356 72.5151 54.2755 71.7488 55.3138C71.0154 56.3058 69.9875 57.6998 69.1607 59.1556C68.292 60.6827 67.9971 61.6627 67.1336 64.0347C65.461 68.6268 64.6206 70.923 63.4299 73.0084C62.6575 74.3578 61.6047 76.1943 59.6643 78.0166C56.4846 80.9967 53.1502 82.3736 51.0879 82.9075C48.9278 83.4654 46.1875 83.7059 42.7899 82.9856C41.101 82.6261 39.7954 82.0468 37.7248 81.1229C35.4378 80.1009 33.9968 79.4577 32.3551 78.0961C30.5578 76.6032 29.5214 75.0813 28.6735 73.826C27.8829 72.6596 26.4749 70.3758 25.4529 67.2085C24.1931 63.3044 24.2495 61.0645 24.2333 60.0242C24.1914 57.3032 24.6401 55.2392 24.8883 54.2536C25.7114 50.9993 27.1488 48.6339 28.2721 47.1322C27.6212 46.515 26.6678 45.4743 25.8865 43.9654C24.2314 40.776 24.5449 37.8222 24.6613 36.9891C24.8316 35.7684 25.3464 33.5994 27.0378 31.7132C27.4317 31.2714 28.89 29.7296 31.4193 29.0362C33.7482 28.3928 35.7576 28.8087 36.6925 29.0643C36.668 28.7594 36.6229 28.3086 36.5394 27.7611C36.3289 26.4144 35.9961 26.0301 36.2007 25.5278C36.5634 24.6417 37.3694 24.1259 37.647 23.9968C37.7693 23.9389 38.7806 23.4953 39.981 23.9382C40.6943 24.2006 41.1062 24.647 41.5936 25.1208C44.1714 27.6389 45.1167 27.4244 46.1277 29.2317C46.4573 29.8169 46.8824 30.6 46.7516 31.5295C46.5992 32.6099 45.7916 33.1868 45.5849 33.333C44.3043 34.2442 42.7429 33.7217 42.505 33.6383C42.9641 34.4168 43.2643 35.0955 43.4716 35.5692C44.2604 37.4079 44.5281 37.9845 44.8565 38.6187C44.961 38.8249 44.6688 39.8765 44.5518 40.6886C44.5125 40.9675 45.0419 41.1431 45.1837 40.9292C45.5149 40.4247 45.7128 40.4273 46.0094 40.2452C47.8826 39.085 50.9851 40.4012 51.3183 38.9188C51.4127 38.509 51.0665 37.9697 50.7686 37.4656C50.3835 36.8088 50.1724 36.8206 49.9814 36.3917C49.4912 35.2929 50.3197 33.9907 50.4102 33.8516C50.4102 33.8516 50.8458 32.2648 51.9586 32.6126C54.0123 33.2559 57.5891 34.4036 60.5907 34.8254Z" fill="#B6E8F3" stroke="#0A2A2B" stroke-width="1.08519" stroke-miterlimit="10"/>
<path d="M47.9852 59.495C47.9278 60.4503 47.7402 61.8802 47.1158 63.4397C45.8347 66.6376 42.7951 70.1271 38.565 70.3781C36.5593 70.4958 34.9159 69.8513 34.3269 69.5979C33.5015 69.2412 31.7274 68.445 30.3762 66.5836C29.1861 64.9455 28.9443 63.3334 28.5428 60.6308C28.2883 58.9308 28.1007 57.6717 28.329 56.0727C28.6814 53.6236 29.8029 51.8115 30.8017 50.6211C31.0186 51.0591 31.3535 51.6837 31.8517 52.369C32.6342 53.4505 33.7454 54.6133 36.9963 56.5403C40.1112 58.3867 41.6704 59.3107 43.692 59.6303C45.509 59.9146 47.0153 59.7086 47.9852 59.495Z" stroke="#0A2A2B" stroke-width="1.08519" stroke-miterlimit="10"/>
<path d="M43.6036 59.4791C42.2569 62.8814 40.9116 66.2801 39.5649 69.6824" stroke="#0A2A2B" stroke-width="1.08519" stroke-miterlimit="10"/>
<path d="M38.0083 57.2833C36.3015 61.1344 34.5923 64.9802 32.8855 68.8314" stroke="#0A2A2B" stroke-width="1.08519" stroke-miterlimit="10"/>
<path d="M33.9401 54.3304C32.3936 57.3085 30.8434 60.2849 29.2968 63.263" stroke="#0A2A2B" stroke-width="1.08519" stroke-miterlimit="10"/>
<path d="M61.0791 34.4999C61.2968 34.7983 61.7794 35.5313 61.8641 36.5456C61.8911 36.8723 61.9382 37.5224 61.6212 38.1476C61.1109 39.1545 60.0228 39.3917 59.6033 39.4875C58.9019 39.642 58.2889 39.5731 56.4932 39.0894C54.1158 38.4497 53.2219 38.1466 52.8926 37.9913C52.2456 37.6822 51.7331 37.3672 51.3839 37.1333" stroke="#0A2A2B" stroke-width="1.08519" stroke-miterlimit="10"/>
<path d="M43.7565 33.8228C41.6132 32.366 39.5298 30.6466 37.5731 28.6001C37.4731 28.4938 37.3731 28.3875 37.2732 28.2812" stroke="#0A2A2B" stroke-width="1.08519" stroke-miterlimit="10"/>
<path d="M45.2236 41.8354C44.6633 43.3625 44.0123 44.9289 43.2523 46.5178C42.9569 47.1384 42.9008 47.2722 42.8057 47.4246C41.3805 49.7308 38.5214 50.082 37.8923 50.1589C36.0646 50.3808 34.6493 49.9263 32.334 49.1783C30.6946 48.6509 29.3674 48.0407 28.4467 47.569" stroke="#0A2A2B" stroke-width="1.08519" stroke-miterlimit="10"/>
<path d="M42.9002 46.2821C42.8812 46.8087 42.8811 47.542 42.9601 48.4156C43.0531 49.4647 43.1715 50.7813 43.7903 52.3836C44.491 54.1976 45.4463 55.3696 45.6478 55.6089C46.123 56.1794 46.5641 56.5854 47.151 57.1262C48.031 57.9331 48.4847 58.3492 49.1402 58.7329C50.1317 59.3082 50.983 59.4506 51.925 59.6112C53.5927 59.892 54.8513 59.7117 55.1035 59.6743C56.6086 59.4498 57.641 58.9073 58.2704 58.5742C59.1548 58.1061 60.012 57.6457 60.8143 56.6733C61.5418 55.785 61.8455 54.9273 62.2343 53.8214C62.5397 52.948 62.8555 52.0342 62.9307 50.7308C63.0123 49.3192 62.768 48.2069 62.6616 47.7818C62.3323 46.4439 61.8095 45.5214 61.3177 44.6589C61.1416 44.3491 60.5144 43.2661 59.4547 42.0241C58.686 41.1214 57.9474 40.439 57.3591 39.947" stroke="#0A2A2B" stroke-width="1.08519" stroke-miterlimit="10"/>
<path d="M70.2402 27.9653C73.3604 31.9575 76.4759 35.9515 79.5902 39.949C80.3558 40.929 81.6626 42.6135 82.4247 43.5919" stroke="#0A2A2B" stroke-width="1.08519" stroke-miterlimit="10"/>
<path d="M78.4233 47.1666C76.3091 44.4875 74.1744 41.7095 72.0296 38.8376C70.0272 36.1584 68.098 33.5096 66.2427 30.8997" stroke="#0A2A2B" stroke-width="1.08519" stroke-miterlimit="10"/>
<path d="M38.7587 40.5671C36.2548 39.0677 33.7496 37.5718 31.2492 36.074C31.5577 35.5073 32.4191 34.1104 34.1526 33.4506C35.7316 32.8496 37.1518 33.1867 38.0616 33.4021C38.7693 33.5716 40.1462 33.917 41.4853 35.0888C42.2974 35.8017 42.7646 36.5288 43.2252 37.2404C43.7989 38.1331 44.2359 38.8089 44.4387 39.8106C44.6031 40.6377 44.5645 41.4554 44.5411 41.9262C44.5256 42.2401 44.5072 42.5732 44.4326 42.995C44.2632 43.9404 43.9291 44.5898 43.4918 45.4251C43.0816 46.2074 42.8758 46.6003 42.6493 46.8145C42.5163 46.937 42.1455 47.2602 40.418 47.6552C39.418 47.883 38.8363 48.016 37.9737 48.0411C37.2011 48.0634 36.4191 48.0895 35.445 47.7942C33.8988 47.3235 32.8498 46.3464 32.3854 45.8594C31.1707 44.5776 30.7289 43.216 30.5635 42.6849C30.3928 42.1348 30.3088 41.6587 30.2621 41.3154C33.0926 41.0707 35.9257 40.8189 38.7587 40.5671Z" fill="#0A2A2B"/>
<path d="M49.1114 45.3504C49.3802 44.9624 49.8368 44.4117 50.542 43.9578C51.497 43.3377 52.4023 43.2172 53.0411 43.1398C53.5452 43.0771 54.8333 42.9726 56.4318 43.4802C57.2241 43.7308 58.6476 44.1846 59.9537 45.5635C59.9537 45.5635 61.7526 47.4634 62.0467 50.0947C62.1172 50.7213 62.0817 51.339 62.0817 51.339C62.0314 52.2009 61.8416 52.8199 61.7022 53.2649C61.6282 53.4936 61.3809 54.2503 60.8542 55.1427C60.4976 55.753 60.2281 56.2107 59.7178 56.6742C58.9354 57.3883 58.1179 57.6367 57.7516 57.7438C56.9825 57.9698 56.3753 57.9591 55.3396 57.9356C54.5362 57.9188 54.1333 57.9139 53.6017 57.7824C52.5085 57.5134 51.7267 56.9629 51.1801 56.5689C50.8581 56.3385 50.3203 55.9198 49.7439 55.2933C49.1878 54.6888 48.4206 53.861 48.0276 52.5879C47.8665 52.0669 47.8133 51.6174 47.7946 51.3202C50.5527 50.987 53.3144 50.6555 56.0726 50.3224C53.7542 48.6633 51.4345 47.0077 49.1114 45.3504Z" fill="#0A2A2B"/>
<path d="M78.2652 26.6309C78.3056 26.3843 78.7347 26.2188 79.5928 25.9001C80.1765 25.685 80.473 25.5755 80.7037 25.6271C81.3944 25.7853 81.8029 26.7629 81.9571 27.1054C83.4063 30.3438 86.3843 30.7921 86.6306 33.4182C86.7587 34.807 86.0788 36.2971 85.3894 36.303C85.1399 36.3038 84.947 36.1024 84.2168 35.1367C83.0712 33.6152 82.4967 32.8537 81.7122 31.5803C81.0943 30.5816 80.9509 30.2646 80.3924 29.4698C79.9166 28.7916 79.6764 28.4534 79.373 28.0896C78.5965 27.1632 78.2125 26.9453 78.2652 26.6309Z" fill="#0A2A2B"/>
<path d="M56.6633 80.1102C57.6323 80.4913 58.9479 81.0543 60.4577 81.8482C64.1818 83.8132 66.6423 85.9035 67.519 86.6813C69.9627 88.8397 73.0427 91.5636 72.5055 93.2323C72.1297 94.4005 70.1469 94.5615 68.8105 94.6687C66.039 94.8929 63.9426 94.1848 60.5108 92.9683C51.791 89.8757 54.5266 90.6266 50.0967 89.0875C50.0967 89.0875 45.315 87.424 42.1851 84.6408C41.948 84.43 41.2726 83.8302 41.3747 83.614C41.4732 83.408 42.251 83.6597 42.6548 83.8045C45.557 83.7454 47.5426 83.5217 48.6926 83.3594C49.2193 83.2857 49.7062 83.2013 50.2889 83.0498C51.0158 82.8616 51.7906 82.5959 53.5707 81.7242C54.4145 81.3228 55.466 80.7864 56.6633 80.1102Z" fill="#0A2A2B"/>
<path d="M19.5567 74.2964C20.6479 73.008 21.3361 65.732 20.9999 63L21.9999 65C22.3568 66.343 24.5828 66.8518 23.4999 68.5C22.336 70.2715 24.807 74.3054 26.5208 76.832C28.1749 78.5805 31.7289 82.2294 32.7126 82.8366C33.6963 83.4438 39.4782 83.4913 41.4999 84.5001C44.3169 85.6385 48.489 90.0514 48.6125 90.1093C48.7668 90.1816 56.3276 94.3956 56.6174 94.5923C56.9073 94.789 62.7585 96.742 63.0672 96.8867C63.3141 97.0025 67.696 97.3948 69.8561 97.5766L72.3281 96.7288C72.4669 96.7331 72.7962 97.2645 73.0029 99.3561C73.0487 99.8197 72.9112 100.749 73.0699 102.124C73.2087 103.327 73.082 104.013 72.8548 104.377C73.1137 104.471 73.4198 104.599 73.7796 104.768L76.043 105.829C78.1006 106.794 78.6478 109.608 77.4085 113.037C76.1871 116.417 76.4215 116.101 75.0032 119.693C73.5849 123.285 74.6402 121.53 72.7301 122.155C70.82 122.779 66.8927 120.33 63.189 118.593L69.3916 121.501C66.8196 120.296 66.5356 119.25 65.9183 118.961C65.3011 118.671 56.1151 115.459 55.2406 115.049C54.3662 114.639 50.8238 114.62 48.2518 113.414C45.6798 112.208 44.5996 111.701 43.821 109.694C43.1981 108.089 28.8249 103.028 27.4898 102.949L17.8191 98.4149L14.0837 96.6635C10.6141 94.834 10.0806 94.0811 7.6083 92.5327C4.51791 90.5972 5.77197 89.2392 4.8489 86.7996C3.92583 84.3599 7.61909 76.9697 9.28377 74.5271C10.9485 72.0846 11.4942 73.131 15.0574 74.9234C18.6206 76.7157 18.1926 75.9069 19.5567 74.2964Z" fill="#B6E8F3"/>
<path d="M11.9267 89.7584C12.0328 88.8698 12.3262 87.7557 12.8174 86.4063L13.587 84.2922L13.695 84.3424L13.9772 90.7127L14.7867 91.0894L18.9532 86.7895L19.0971 86.8565L18.3275 88.9707C17.8567 90.264 17.3692 91.2951 16.8732 92.0605L20.2368 93.6259C20.3611 92.6875 20.6567 91.5671 21.1276 90.2738L22.0262 87.8052C22.4993 86.5056 22.9868 85.4745 23.4828 84.7091L19.6995 82.9484L17.0333 85.8233C16.8129 86.0625 16.652 86.2349 16.5671 86.3335C16.3888 86.5341 16.0985 86.908 15.8132 87.3642L15.6753 87.3001C15.7434 86.67 15.7711 85.9776 15.7442 85.2234L15.6523 81.0649L11.809 79.2763C11.6924 80.1746 11.3907 81.2922 10.904 82.6291L10.0054 85.0977C9.52099 86.4283 9.03946 87.4622 8.56305 88.1931L11.9267 89.7584ZM23.6307 95.4162C24.8359 95.9771 25.8136 95.8722 26.421 95.2823L26.5589 95.3465L26.5182 95.4584C26.3688 95.8688 26.1897 96.149 25.9808 96.299L29.1106 97.7556C29.1121 97.3854 29.1782 96.9727 29.297 96.5116C29.4157 96.0506 29.6204 95.4114 29.9146 94.6031L30.3085 93.5211C30.9038 91.8858 29.9052 90.4685 27.3091 89.2603C26.8174 89.0315 26.25 88.8183 25.6104 88.6297C24.9649 88.4384 24.485 88.3314 24.1647 88.3059L23.5015 90.1278C23.798 90.0259 24.1829 90.0087 24.6562 90.0762C25.1234 90.141 25.604 90.2846 26.0896 90.5106C26.6353 90.7646 27.0457 91.101 27.3186 91.5262C27.5855 91.9485 27.6319 92.3991 27.453 92.8903L27.2493 93.4499L27.0874 93.3746C27.0202 92.4998 26.4016 91.6375 25.2205 91.0878C24.423 90.7167 23.7248 90.6317 23.1294 90.8418C22.5341 91.0519 22.1243 91.4648 21.9002 92.0804C21.7554 92.4783 21.72 92.8836 21.7905 93.2873C21.9268 94.1069 22.5695 94.9223 23.6307 95.4162ZM25.4165 94.5748C24.697 94.24 24.3695 93.6949 24.5348 93.241C24.7068 92.7684 25.2659 92.6578 25.9914 92.9954C26.3452 93.1601 26.6058 93.3686 26.7651 93.6245C26.9243 93.8804 26.9643 94.1172 26.8851 94.3348C26.7108 94.8136 26.142 94.9125 25.4165 94.5748ZM33.4875 99.7925C33.4798 99.5054 33.555 99.0677 33.7085 98.492C33.862 97.9163 34.0123 97.4263 34.1595 97.0221L34.3693 96.4072C34.521 95.9906 34.7796 95.7037 35.1393 95.5439C35.499 95.3841 35.8928 95.4001 36.3065 95.5926C37.1039 95.9638 37.3566 96.7721 37.0374 97.6489L36.8246 98.2334C36.4896 99.1537 36.07 99.9982 35.574 100.764L38.9377 102.329C39.0431 101.404 39.3071 100.37 39.7236 99.2262L39.9703 98.5484C40.2985 97.6468 40.3168 96.8263 40.019 96.0842C39.7212 95.3421 39.1207 94.7573 38.2154 94.3359C36.9982 93.7695 35.9535 93.9813 35.0835 94.9653L34.9336 94.8955L34.9947 94.7277C35.1962 94.1742 35.4844 93.7485 35.8534 93.4475L32.4358 91.857C32.3296 92.7457 32.0838 93.7292 31.6922 94.805L31.3119 95.8496C31.1195 96.3782 30.9348 96.8085 30.7638 97.1434C30.5905 97.4845 30.376 97.8427 30.1179 98.2244L33.4875 99.7925ZM42.2656 104.089C43.4708 104.649 44.4485 104.545 45.0559 103.955L45.1938 104.019L45.1531 104.131C45.0037 104.541 44.8245 104.821 44.6157 104.971L47.7455 106.428C47.747 106.058 47.8131 105.645 47.9318 105.184C48.0506 104.723 48.2552 104.084 48.5495 103.275L48.9434 102.194C49.5387 100.558 48.5401 99.1409 45.9439 97.9327C45.4523 97.7039 44.8848 97.4907 44.2453 97.3021C43.5998 97.1108 43.1199 97.0038 42.7996 96.9783L42.1364 98.8002C42.4329 98.6983 42.8178 98.6811 43.291 98.7486C43.7583 98.8134 44.2389 98.957 44.7245 99.183C45.2701 99.437 45.6805 99.7734 45.9535 100.199C46.2204 100.621 46.2667 101.071 46.0879 101.563L45.8842 102.122L45.7223 102.047C45.6551 101.172 45.0365 100.31 43.8553 99.7602C43.0579 99.3891 42.3596 99.3041 41.7643 99.5142C41.1689 99.7243 40.7592 100.137 40.5351 100.753C40.3903 101.151 40.3549 101.556 40.4253 101.96C40.5616 102.779 41.2044 103.595 42.2656 104.089ZM44.0514 103.247C43.3319 102.912 43.0044 102.367 43.1697 101.913C43.3417 101.441 43.9008 101.33 44.6263 101.668C44.9801 101.832 45.2407 102.041 45.3999 102.297C45.5592 102.553 45.5992 102.79 45.52 103.007C45.3457 103.486 44.7768 103.585 44.0514 103.247ZM51.3831 111.517C53.7994 112.641 56.3697 112.572 57.1257 110.495C57.2479 110.16 57.284 109.791 57.2375 109.398L57.9325 107.489C58.4033 106.196 58.8908 105.165 59.3868 104.4L56.0351 102.84C56.0427 103.185 56.0286 103.455 56.0027 103.661C55.9685 103.87 55.9004 104.115 55.7986 104.395L55.7465 104.538L55.5846 104.463C55.5603 103.201 54.9136 102.107 53.6425 101.515C52.6892 101.072 51.7896 101.097 51.1076 101.506C50.4196 101.913 49.8832 102.616 49.5414 103.555C49.1996 104.494 49.1475 105.408 49.385 106.238C49.6144 107.072 50.24 107.8 51.1933 108.243C52.4944 108.849 53.6376 108.559 54.4166 107.671L54.5545 107.735C54.7068 108.126 54.724 108.483 54.6041 108.813C54.3981 109.379 54.0178 109.711 53.4669 109.818C52.9183 109.919 52.2681 109.798 51.5306 109.455C50.8831 109.153 50.2598 108.747 49.663 108.229C49.0661 107.712 48.6478 107.204 48.408 106.707L47.5395 109.132C47.9566 109.508 48.5229 109.917 49.2384 110.359C49.9539 110.801 50.6696 111.185 51.3831 111.517ZM53.0692 107C52.6075 106.786 52.2938 106.472 52.1304 106.055C51.961 105.634 51.9566 105.203 52.1196 104.755C52.2871 104.295 52.5631 103.98 52.9453 103.816C53.3215 103.649 53.7393 103.677 54.201 103.891C54.6506 104.101 54.9501 104.415 55.1135 104.832C55.2769 105.25 55.2707 105.691 55.1055 106.145C54.9493 106.574 54.6779 106.876 54.2934 107.047C53.9089 107.217 53.5009 107.201 53.0692 107ZM62.0937 113.316C62.6992 113.598 63.3312 113.827 63.9812 114.006C64.6335 114.178 65.1533 114.253 65.5464 114.232L66.2613 112.115C65.9384 112.27 65.5219 112.316 65.0119 112.253C64.5019 112.19 63.9951 112.042 63.4974 111.81C62.8499 111.509 62.3406 111.097 61.9673 110.582C61.5881 110.063 61.4487 109.599 61.5434 109.184L61.6619 109.167C62.1276 109.987 62.8737 110.538 63.9289 111.029C65.5298 111.774 66.6599 111.617 67.0877 110.441C67.262 109.963 67.2743 109.467 67.0654 108.904C66.77 108.097 65.9136 107.234 64.357 106.502C63.0679 105.902 61.8685 105.787 60.9969 106.102C60.117 106.419 59.4645 107.075 59.1272 108.002C58.7605 109.009 58.8417 110 59.3791 110.97C59.9164 111.939 60.8166 112.722 62.0937 113.316ZM63.1265 109.805C62.485 109.506 62.0581 109.119 61.8401 108.639C62.0231 108.31 62.2763 108.115 62.59 108.043C62.9015 107.977 63.2233 108.018 63.547 108.168C64.2725 108.506 64.6105 109.041 64.4271 109.545C64.3479 109.763 64.1826 109.889 63.929 109.931C63.673 109.979 63.4083 109.936 63.1265 109.805ZM69.7799 116.683C69.7744 116.12 69.9176 115.438 70.2096 114.636L70.4178 114.063C70.6102 113.535 70.9545 113.186 71.447 113.008C71.9395 112.83 72.4406 112.86 72.9443 113.094C73.5258 113.365 74.0206 113.893 74.2079 114.38L75.1631 111.756C74.9289 111.495 74.6277 111.282 74.256 111.109C73.0808 110.562 71.9741 111.021 71.2038 112.386L71.0539 112.316L71.192 111.937C71.3029 111.632 71.4543 111.332 71.6522 111.039C71.8441 110.742 72.0471 110.532 72.2597 110.391L68.7462 108.755C68.622 109.694 68.3761 110.677 68.0026 111.703L67.6178 112.76C67.4322 113.27 67.252 113.688 67.0833 114.017C66.9123 114.352 66.6955 114.716 66.4283 115.123L69.7799 116.683Z" fill="black"/>
</svg>
