<svg width="595" height="144" viewBox="0 0 595 144" fill="none" xmlns="http://www.w3.org/2000/svg">
<rect width="1494.16" height="46.5655" transform="matrix(0.998543 -0.0538104 0.0513301 0.998678 -365.981 92.9443)" fill="#A9E9F5"/>
<path d="M580.494 49.4286L576.011 49.6797L577.619 81.7814L582.102 81.5304L580.494 49.4286Z" fill="black"/>
<path d="M584.238 49.2294L582.284 49.3364L583.911 81.4493L585.866 81.3423L584.238 49.2294Z" fill="black"/>
<path d="M589.256 48.9637L587.301 49.0708L588.929 81.1837L590.883 81.0767L589.256 48.9637Z" fill="black"/>
<path d="M98.3545 74.9516L93.8716 75.2026L95.4797 107.304L99.9626 107.053L98.3545 74.9516Z" fill="black"/>
<path d="M102.099 74.7523L100.144 74.8594L101.772 106.972L103.726 106.865L102.099 74.7523Z" fill="black"/>
<path d="M107.116 74.4867L105.161 74.5938L106.789 106.707L108.743 106.6L107.116 74.4867Z" fill="black"/>
<path d="M116.532 73.9888L113.943 74.1318L115.563 106.242L118.152 106.099L116.532 73.9888Z" fill="black"/>
<path d="M124.842 73.5498L118.57 73.9033L120.17 105.952L126.443 105.598L124.842 73.5498Z" fill="black"/>
<path d="M131.009 73.2227L126.802 73.458L128.409 105.516L132.616 105.28L131.009 73.2227Z" fill="black"/>
<path d="M138.198 72.8413L136.064 72.9585L137.687 105.025L139.821 104.908L138.198 72.8413Z" fill="black"/>
<path d="M142.314 72.6236L140.181 72.7407L141.804 104.808L143.937 104.69L142.314 72.6236Z" fill="black"/>
<path d="M151.586 72.1334L148.414 72.3096L150.027 104.372L153.199 104.196L151.586 72.1334Z" fill="black"/>
<path d="M159.657 71.7055L157.651 71.8154L159.275 103.883L161.281 103.773L159.657 71.7055Z" fill="black"/>
<path d="M165.471 71.3983L161.516 71.6191L163.125 103.678L167.08 103.457L165.471 71.3983Z" fill="black"/>
<path d="M177.074 70.7848L171.179 71.1167L172.781 103.167L178.675 102.835L177.074 70.7848Z" fill="black"/>
<path d="M180.916 70.58L178.91 70.6899L180.534 102.757L182.541 102.647L180.916 70.58Z" fill="black"/>
<path d="M190.596 70.0687L186.64 70.2896L188.249 102.348L192.204 102.127L190.596 70.0687Z" fill="black"/>
<path d="M194.445 69.8637L192.439 69.9736L194.063 102.041L196.07 101.931L194.445 69.8637Z" fill="black"/>
<path d="M204.125 69.3524L200.17 69.5732L201.778 101.632L205.734 101.411L204.125 69.3524Z" fill="black"/>
<path d="M211.84 68.9432L209.833 69.0532L211.458 101.121L213.464 101.011L211.84 68.9432Z" fill="black"/>
<path d="M219.594 68.5338L213.699 68.8657L215.3 100.916L221.195 100.584L219.594 68.5338Z" fill="black"/>
<path d="M223.436 68.3295L221.43 68.4395L223.054 100.507L225.06 100.397L223.436 68.3295Z" fill="black"/>
<path d="M233.115 67.8177L229.16 68.0386L230.768 100.097L234.723 99.8765L233.115 67.8177Z" fill="black"/>
<path d="M240.853 67.4083L234.958 67.7402L236.56 99.7903L242.455 99.4584L240.853 67.4083Z" fill="black"/>
<path d="M244.696 67.204L242.69 67.314L244.314 99.3814L246.321 99.2714L244.696 67.204Z" fill="black"/>
<path d="M248.56 66.9994L246.554 67.1094L248.178 99.1768L250.185 99.0668L248.56 66.9994Z" fill="black"/>
<path d="M258.24 66.4876L254.285 66.7085L255.893 98.7674L259.849 98.5465L258.24 66.4876Z" fill="black"/>
<path d="M265.956 66.0785L263.949 66.1885L265.574 98.2559L267.58 98.1459L265.956 66.0785Z" fill="black"/>
<path d="M273.686 65.6693L271.68 65.7793L273.304 97.8467L275.311 97.7367L273.686 65.6693Z" fill="black"/>
<path d="M279.501 65.3621L275.545 65.583L277.154 97.6418L281.109 97.4209L279.501 65.3621Z" fill="black"/>
<path d="M287.215 64.953L285.209 65.063L286.833 97.1305L288.839 97.0205L287.215 64.953Z" fill="black"/>
<path d="M296.878 64.4413L294.872 64.5513L296.497 96.6187L298.503 96.5087L296.878 64.4413Z" fill="black"/>
<path d="M302.694 64.1346L298.739 64.3555L300.347 96.4143L304.302 96.1934L302.694 64.1346Z" fill="black"/>
<path d="M310.424 63.7254L306.469 63.9463L308.077 96.0051L312.032 95.7842L310.424 63.7254Z" fill="black"/>
<path d="M322.027 63.1115L316.132 63.4434L317.734 95.4934L323.628 95.1615L322.027 63.1115Z" fill="black"/>
<path d="M325.87 62.9066L323.864 63.0166L325.488 95.084L327.494 94.974L325.87 62.9066Z" fill="black"/>
<path d="M331.684 62.5999L327.729 62.8208L329.337 94.8796L333.292 94.6587L331.684 62.5999Z" fill="black"/>
<path d="M377.529 69.8234L377.33 65.8228L361.431 60.0875L345.98 67.6076L346.531 78.7129L362.632 84.2984L377.881 76.928L378.333 86.033L363.083 93.4033L346.983 87.8179L350.925 85.7949" stroke="black" stroke-width="2"/>
<path d="M363.246 93.3335L361.941 68.6792" stroke="black" stroke-width="2"/>
<path d="M352.489 69.3115L370.979 68.3324" stroke="black" stroke-width="2"/>
<ellipse rx="0.708946" ry="0.703508" transform="matrix(-0.998389 0.0568358 0.0495298 0.998777 377.575 71.9065)" fill="black"/>
<path d="M-74.3627 108.746C-73.8128 108.716 -73.3045 108.559 -72.8262 108.275C-72.3591 108.003 -72.0131 107.656 -71.7989 107.257L-72.2545 101.566C-72.6959 102.799 -73.3843 103.564 -74.6948 103.636C-75.666 103.689 -76.1859 102.931 -76.8813 102.182C-77.1408 101.926 -77.388 101.682 -77.6458 101.461C-78.1489 101.031 -78.9859 100.724 -79.9572 100.777L-80.004 100.78L-80.0112 100.639L-79.7069 100.623C-76.2994 100.484 -73.6899 98.5108 -73.8622 95.8326C-73.9895 93.1168 -76.8226 91.64 -80.2721 91.8751L-89.8087 92.3954C-89.4779 93.5861 -89.2512 95.2638 -89.1415 97.4055L-88.7976 104.123C-88.6891 106.242 -88.7433 107.935 -88.9495 109.178L-83.6956 108.891C-84.0498 107.702 -84.2759 106.036 -84.3862 103.883L-84.4784 102.08C-84.3077 101.977 -83.7836 101.902 -82.906 101.854C-80.6242 101.729 -79.7431 103.125 -79.028 104.717C-78.1532 106.676 -77.4051 108.912 -74.3627 108.746ZM-84.7738 96.3105L-80.8188 96.0947C-80.0933 96.0551 -79.4882 96.1864 -79.0033 96.4886C-78.5185 96.7908 -78.2629 97.1993 -78.2371 97.7026C-78.1814 98.791 -79.2109 99.5396 -80.8374 99.6283L-84.5935 99.8332L-84.7738 96.3105ZM-63.236 108.116C-62.1244 108.055 -61.0064 107.888 -59.8711 107.603C-58.7357 107.319 -57.8836 107.002 -57.3042 106.63L-57.541 103.38C-57.95 103.872 -58.5978 104.283 -59.4844 104.613C-60.3704 104.955 -61.3111 105.147 -62.294 105.201C-64.9829 105.394 -67.473 103.969 -67.6286 102.076L-67.4579 101.973C-66.1375 102.781 -64.4297 103.134 -62.3352 103.02C-58.9535 102.836 -57.264 101.687 -57.382 99.3815C-57.4401 98.2463 -58.0071 97.2562 -59.0782 96.5048C-60.1609 95.7541 -61.9887 95.3492 -64.2822 95.4743C-66.6224 95.6019 -68.5523 96.4114 -69.7456 97.6266C-70.9389 98.8419 -71.549 100.448 -71.4585 102.215C-71.3621 104.099 -70.5704 105.582 -69.0712 106.674C-67.572 107.765 -65.6348 108.247 -63.236 108.116ZM-64.0168 101.574C-65.4795 101.654 -66.6541 101.401 -67.5634 100.829C-67.4619 100.061 -67.1181 99.4432 -66.5201 98.9764C-65.9215 98.5212 -65.2185 98.2716 -64.4111 98.2276C-63.5335 98.1797 -62.823 98.3052 -62.2563 98.6029C-61.6889 98.9123 -61.3976 99.3307 -61.3707 99.8573C-61.3161 100.922 -62.6711 101.501 -64.0168 101.574ZM-47.3573 107.249C-46.5499 107.205 -45.6408 107.085 -44.6423 106.878C-43.6444 106.66 -42.8811 106.442 -42.3653 106.203L-42.5384 102.82C-43.0593 103.189 -43.7002 103.506 -44.45 103.758C-45.2109 104.022 -45.9427 104.168 -46.6565 104.207C-48.1192 104.287 -49.2932 104.045 -50.1662 103.495C-51.051 102.944 -51.5142 102.148 -51.5663 101.13C-51.6184 100.112 -51.2502 99.2818 -50.4617 98.6402C-49.6732 97.9986 -48.5999 97.6467 -47.2543 97.5733C-46.5405 97.5343 -45.8336 97.5897 -45.1219 97.7386C-44.4097 97.8993 -43.8477 98.1034 -43.4244 98.3502L-43.3909 95.1092C-43.882 94.913 -44.6048 94.7764 -45.5604 94.676C-46.516 94.5755 -47.3152 94.5487 -47.9588 94.5838C-50.6384 94.73 -52.7327 95.5367 -53.9605 96.7655C-55.1878 98.0061 -55.7762 99.5756 -55.6852 101.355C-55.5941 103.133 -54.8603 104.631 -53.5256 105.72C-52.2019 106.821 -50.0369 107.396 -47.3573 107.249ZM-35.0298 106.237C-35.373 105.492 -35.5796 104.436 -35.6491 103.078L-35.7474 101.159C-35.8025 100.082 -35.4631 99.1482 -34.7403 98.3694C-34.0174 97.5906 -33.1356 97.1669 -32.1059 97.1107C-31.6027 97.0833 -31.0948 97.1495 -30.606 97.2988C-30.1173 97.4482 -29.7315 97.6502 -29.4498 97.8812L-29.6523 93.9255C-30.2721 93.7363 -30.8983 93.6531 -31.5302 93.6876C-33.7417 93.8082 -35.2429 95.4276 -35.6328 98.1247L-35.902 98.1393L-35.9475 97.2499C-35.9739 96.7349 -35.9429 96.1934 -35.8436 95.6129C-35.7436 95.0441 -35.6026 94.5904 -35.421 94.2402L-40.8621 94.537C-40.5301 95.7512 -40.3136 97.2299 -40.2243 98.9737L-40.0451 102.473C-39.9697 103.948 -40.0412 105.301 -40.2486 106.521L-35.0298 106.237ZM-21.357 105.831C-18.9582 105.7 -17.3886 104.5 -16.6366 102.229L-16.3675 102.214L-16.3429 102.694C-16.2908 103.712 -16.412 104.552 -16.7172 105.238L-11.4282 104.949C-11.7885 103.643 -12.0167 102.165 -12.1012 100.514L-12.2803 97.015C-12.3504 95.6457 -12.2666 94.3032 -12.0418 92.9648L-17.2606 93.2495C-17.0992 93.6515 -16.9615 94.2777 -16.8353 95.1393C-16.7207 96.0015 -16.6461 96.772 -16.6119 97.4391L-16.5208 99.218C-16.4759 100.096 -16.7412 100.873 -17.3278 101.562C-17.9138 102.263 -18.681 102.634 -19.6171 102.685C-21.4894 102.787 -22.6258 101.675 -22.7247 99.7442L-22.8223 97.8366C-22.9044 96.2332 -22.8254 94.7971 -22.5847 93.5399L-27.8035 93.8246C-27.4726 95.0154 -27.2519 96.576 -27.1536 98.4954L-27.0392 100.731C-26.9523 102.428 -26.4166 103.725 -25.4202 104.621C-24.4356 105.518 -23.0771 105.925 -21.357 105.831ZM-6.88951 91.381C-6.15233 91.3408 -5.58915 91.1106 -5.17717 90.6773C-4.76459 90.2558 -4.57974 89.7411 -4.61149 89.1208C-4.64325 88.5005 -4.88024 87.9971 -5.33416 87.611C-5.78808 87.225 -6.37163 87.0574 -7.10881 87.0976C-7.82259 87.1365 -8.38577 87.3668 -8.79775 87.8C-9.20973 88.2332 -9.40569 88.7603 -9.37393 89.3806C-9.34277 89.9892 -9.09468 90.4803 -8.64076 90.8663C-8.18684 91.2523 -7.60329 91.42 -6.88951 91.381ZM-3.55324 104.519C-3.91739 103.366 -4.15519 101.7 -4.26724 99.5119L-4.49792 95.0061C-4.55005 93.9879 -4.53289 93.1772 -4.45933 92.5512C-4.95562 92.9421 -5.70722 93.1591 -6.72523 93.2146C-7.74324 93.2702 -8.54792 93.138 -9.15156 92.8071C-9.02109 93.2929 -8.92064 94.109 -8.86251 95.2442L-8.63183 99.75C-8.51978 101.939 -8.58621 103.62 -8.83053 104.807L-3.55324 104.519ZM5.94221 104.342C6.96023 104.286 8.08087 103.944 8.72867 103.533L8.55491 100.139C8.18494 100.476 7.44804 100.751 6.68746 100.792C5.15459 100.876 4.18824 100.107 4.10375 98.4567L3.87307 93.9509L8.10894 93.7198L8.01427 91.8707L3.7784 92.1018L3.53273 87.3034L-0.471905 88.6133L-0.281963 92.3233L-2.69243 92.4548L-2.59776 94.3039L-0.187291 94.1724L0.12069 100.188C0.293854 103.57 2.84136 104.511 5.94221 104.342ZM15.8242 103.462C15.6511 103.061 15.5134 102.435 15.3877 101.585C15.2621 100.735 15.1874 99.9646 15.1521 99.2741L15.061 97.4952C15.0149 96.594 15.2562 95.8063 15.7849 95.1319C16.3136 94.4576 17.0457 94.0891 17.9935 94.0374C19.7721 93.9403 20.688 95.0992 20.7863 97.0185L20.8827 98.9028C20.9774 100.752 20.9569 102.185 20.8089 103.19L25.8873 102.913C25.527 101.607 25.2994 100.141 25.2155 98.5021L25.1311 96.8519C25.1002 96.0204 25.3661 95.2547 25.9065 94.5798C26.4469 93.9048 27.1556 93.5375 28.0332 93.4897C29.8235 93.392 30.7511 94.5502 30.8494 96.4696L30.9459 98.3538C31.0226 99.8519 30.9436 101.288 30.7082 102.65L35.9387 102.365C35.5809 101.105 35.3602 99.5448 35.2655 97.6957L35.1523 95.4837C34.9773 92.0663 33.2483 90.1538 29.8667 90.3383C27.3743 90.4742 25.6247 91.8254 24.9252 93.9761L24.6911 93.9889C23.9331 91.7886 22.3193 90.75 19.8269 90.8859C17.475 91.0143 15.9294 92.2252 15.178 94.5078L14.9088 94.5225L14.8843 94.0427C14.8321 93.0245 14.9639 92.1605 15.2808 91.4743L9.9918 91.7628C10.3496 93.0225 10.5662 94.5012 10.653 96.1982L10.8322 99.6975C10.9041 101.102 10.8326 102.455 10.6054 103.747L15.8242 103.462ZM45.9607 102.159C47.0723 102.098 48.1903 101.931 49.3256 101.647C50.461 101.362 51.3131 101.045 51.8925 100.673L51.6557 97.4236C51.2467 97.9153 50.5989 98.3262 49.7123 98.6562C48.8263 98.998 47.8857 99.1901 46.9027 99.2437C44.2138 99.4374 41.7237 98.0123 41.5681 96.1196L41.7388 96.0164C43.0592 96.8245 44.767 97.1773 46.8615 97.0631C50.2432 96.8786 51.9328 95.7302 51.8147 93.4246C51.7566 92.2894 51.1896 91.2993 50.1185 90.5479C49.0358 89.7972 47.208 89.3923 44.9146 89.5174C42.5743 89.645 40.6444 90.4545 39.4511 91.6697C38.2578 92.8849 37.6477 94.4909 37.7382 96.2581C37.8346 98.1423 38.6263 99.6248 40.1255 100.717C41.6247 101.808 43.562 102.29 45.9607 102.159ZM45.1799 95.6174C43.7173 95.6972 42.5427 95.4444 41.6333 94.872C41.7348 94.1036 42.0787 93.4863 42.6767 93.0194C43.2753 92.5643 43.9782 92.3147 44.7856 92.2706C45.6632 92.2228 46.3737 92.3483 46.9404 92.646C47.5078 92.9554 47.7991 93.3738 47.826 93.9004C47.8806 94.9654 46.5256 95.544 45.1799 95.6174ZM59.6573 101.071C59.4842 100.67 59.3465 100.044 59.2209 99.1938C59.0952 98.3439 59.0206 97.5734 58.9852 96.8829L58.8942 95.104C58.8492 94.2262 59.1262 93.4483 59.7122 92.7473C60.2988 92.0581 61.0661 91.6877 62.0139 91.6359C63.8744 91.5345 65.0237 92.6688 65.1226 94.5999L65.219 96.4841C65.2957 97.9822 65.2167 99.4183 64.9814 100.781L70.2002 100.496C69.8552 99.2591 69.6351 97.7102 69.5387 95.826L69.4254 93.6141C69.3385 91.9171 68.8028 90.6201 67.8175 89.7115C66.8206 88.8035 65.4738 88.3958 63.7537 88.4897C61.3432 88.6211 59.7626 89.834 59.0111 92.1166L58.742 92.1313L58.7174 91.6515C58.6653 90.6333 58.7971 89.7693 59.1139 89.0831L53.8249 89.3716C54.1828 90.6313 54.3993 92.11 54.4862 93.807L54.6653 97.3063C54.7372 98.7107 54.6657 100.064 54.4385 101.356L59.6573 101.071ZM79.2159 100.345C80.2339 100.289 81.3545 99.9463 82.0023 99.5354L81.8286 96.1414C81.4586 96.4784 80.7217 96.7534 79.9611 96.7949C78.4283 96.8785 77.4619 96.1097 77.3774 94.4595L77.1467 89.9537L81.3826 89.7226L81.2879 87.8735L77.0521 88.1045L76.8064 83.3061L72.8018 84.6161L72.9917 88.326L70.5812 88.4575L70.6759 90.3067L73.0864 90.1752L73.3944 96.1907C73.5675 99.573 76.115 100.514 79.2159 100.345Z" fill="black"/>
<path d="M406.963 83.2661C407.513 83.2361 408.021 83.0793 408.5 82.795C408.967 82.5231 409.313 82.1756 409.527 81.7766L409.071 76.086C408.63 77.3189 407.942 78.0841 406.631 78.1556C405.66 78.2086 405.14 77.4506 404.445 76.7022C404.185 76.4465 403.938 76.2017 403.68 75.9811C403.177 75.5508 402.34 75.2444 401.369 75.2974L401.322 75.2999L401.315 75.1595L401.619 75.1429C405.026 75.004 407.636 73.0308 407.464 70.3526C407.336 67.6368 404.503 66.16 401.054 66.3951L391.517 66.9154C391.848 68.1061 392.075 69.7838 392.184 71.9255L392.528 78.6433C392.637 80.7616 392.583 82.4545 392.376 83.6981L397.63 83.4114C397.276 82.222 397.05 80.556 396.94 78.4026L396.847 76.6003C397.018 76.4971 397.542 76.4215 398.42 76.3737C400.702 76.2492 401.583 77.6447 402.298 79.237C403.173 81.1961 403.921 83.4321 406.963 83.2661ZM396.552 70.8305L400.507 70.6147C401.233 70.5752 401.838 70.7065 402.323 71.0086C402.807 71.3108 403.063 71.7193 403.089 72.2226C403.145 73.311 402.115 74.0596 400.489 74.1483L396.732 74.3532L396.552 70.8305ZM418.09 82.6357C419.202 82.575 420.319 82.4084 421.455 82.1235C422.59 81.8386 423.442 81.5222 424.022 81.1502L423.785 77.9005C423.376 78.3923 422.728 78.8031 421.842 79.1332C420.955 79.4749 420.015 79.6671 419.032 79.7207C416.343 79.9143 413.853 78.4893 413.697 76.5965L413.868 76.4933C415.188 77.3015 416.896 77.6543 418.991 77.54C422.372 77.3555 424.062 76.2071 423.944 73.9016C423.886 72.7663 423.319 71.7762 422.248 71.0249C421.165 70.2741 419.337 69.8692 417.044 69.9943C414.704 70.122 412.774 70.9314 411.58 72.1466C410.387 73.3619 409.777 74.9678 409.867 76.735C409.964 78.6193 410.756 80.1018 412.255 81.1936C413.754 82.2854 415.691 82.7665 418.09 82.6357ZM417.309 76.0943C415.846 76.1741 414.672 75.9213 413.763 75.3489C413.864 74.5805 414.208 73.9632 414.806 73.4964C415.404 73.0412 416.107 72.7916 416.915 72.7476C417.792 72.6997 418.503 72.8253 419.07 73.1229C419.637 73.4323 419.928 73.8507 419.955 74.3773C420.01 75.4424 418.655 76.0209 417.309 76.0943ZM433.969 81.7695C434.776 81.7254 435.685 81.6054 436.684 81.3984C437.682 81.1796 438.445 80.9619 438.961 80.7226L438.787 77.3403C438.267 77.709 437.626 78.0257 436.876 78.2778C436.115 78.5423 435.383 78.6879 434.669 78.7268C433.207 78.8066 432.033 78.5655 431.16 78.0146C430.275 77.4643 429.812 76.668 429.76 75.6498C429.707 74.6317 430.076 73.8018 430.864 73.1602C431.653 72.5187 432.726 72.1667 434.072 72.0933C434.785 72.0544 435.492 72.1097 436.204 72.2586C436.916 72.4193 437.478 72.6234 437.902 72.8702L437.935 69.6292C437.444 69.433 436.721 69.2964 435.766 69.196C434.81 69.0955 434.011 69.0687 433.367 69.1038C430.688 69.25 428.593 70.0567 427.365 71.2855C426.138 72.5261 425.55 74.0956 425.641 75.8745C425.732 77.6535 426.466 79.1509 427.8 80.2399C429.124 81.3413 431.289 81.9156 433.969 81.7695ZM446.296 80.7566C445.953 80.0125 445.746 78.9558 445.677 77.5982L445.579 75.6788C445.523 74.6021 445.863 73.6682 446.586 72.8894C447.309 72.1106 448.19 71.6869 449.22 71.6307C449.723 71.6033 450.231 71.6695 450.72 71.8189C451.209 71.9682 451.594 72.1702 451.876 72.4013L451.674 68.4455C451.054 68.2563 450.428 68.1731 449.796 68.2076C447.584 68.3283 446.083 69.9476 445.693 72.6447L445.424 72.6594L445.378 71.7699C445.352 71.2549 445.383 70.7134 445.482 70.1329C445.582 69.5641 445.723 69.1105 445.905 68.7602L440.464 69.057C440.796 70.2712 441.012 71.7499 441.102 73.4937L441.281 76.993C441.356 78.4676 441.285 79.8212 441.077 81.0413L446.296 80.7566ZM459.969 80.3511C462.368 80.2202 463.937 79.0197 464.689 76.7488L464.958 76.7341L464.983 77.214C465.035 78.2321 464.914 79.072 464.609 79.7576L469.898 79.4691C469.537 78.1626 469.309 76.6845 469.225 75.0344L469.046 71.535C468.976 70.1658 469.059 68.8233 469.284 67.4848L464.065 67.7695C464.227 68.1715 464.364 68.7977 464.491 69.6593C464.605 70.5215 464.68 71.292 464.714 71.9591L464.805 73.738C464.85 74.6158 464.585 75.3931 463.998 76.0823C463.412 76.7833 462.645 77.1537 461.709 77.2048C459.837 77.3069 458.7 76.1953 458.601 74.2643L458.504 72.3566C458.422 70.7532 458.501 69.3171 458.741 68.06L453.522 68.3447C453.853 69.5354 454.074 71.096 454.172 73.0154L454.287 75.2507C454.374 76.9477 454.909 78.2447 455.906 79.1409C456.89 80.0379 458.249 80.4449 459.969 80.3511ZM474.436 65.901C475.174 65.8608 475.737 65.6306 476.149 65.1974C476.561 64.7758 476.746 64.2611 476.714 63.6408C476.683 63.0205 476.446 62.5171 475.992 62.1311C475.538 61.7451 474.954 61.5774 474.217 61.6176C473.503 61.6565 472.94 61.8868 472.528 62.32C472.116 62.7533 471.92 63.2803 471.952 63.9006C471.983 64.5092 472.231 65.0003 472.685 65.3863C473.139 65.7723 473.723 65.94 474.436 65.901ZM477.773 79.0395C477.409 77.8858 477.171 76.2205 477.059 74.0319L476.828 69.5261C476.776 68.5079 476.793 67.6972 476.867 67.0712C476.37 67.4621 475.619 67.6791 474.601 67.7347C473.583 67.7902 472.778 67.658 472.174 67.3272C472.305 67.813 472.405 68.629 472.463 69.7642L472.694 74.27C472.806 76.4586 472.74 78.1405 472.495 79.3274L477.773 79.0395ZM487.268 78.8619C488.286 78.8063 489.407 78.4635 490.055 78.0526L489.881 74.6586C489.511 74.9957 488.774 75.2706 488.013 75.3121C486.481 75.3957 485.514 74.6269 485.43 72.9767L485.199 68.4709L489.435 68.2399L489.34 66.3907L485.104 66.6218L484.859 61.8234L480.854 63.1333L481.044 66.8433L478.633 66.9748L478.728 68.8239L481.139 68.6924L481.447 74.708C481.62 78.0903 484.167 79.031 487.268 78.8619ZM497.15 77.9824C496.977 77.5811 496.839 76.9549 496.714 76.105C496.588 75.2551 496.513 74.4846 496.478 73.7941L496.387 72.0152C496.341 71.114 496.582 70.3263 497.111 69.6519C497.64 68.9776 498.372 68.6091 499.319 68.5574C501.098 68.4603 502.014 69.6192 502.112 71.5386L502.209 73.4228C502.303 75.2719 502.283 76.7049 502.135 77.7105L507.213 77.4335C506.853 76.1269 506.625 74.6606 506.541 73.0221L506.457 71.372C506.426 70.5404 506.692 69.7748 507.232 69.0998C507.773 68.4248 508.482 68.0576 509.359 68.0097C511.149 67.912 512.077 69.0702 512.175 70.9896L512.272 72.8738C512.349 74.3719 512.269 75.808 512.034 77.1705L517.265 76.8851C516.907 75.6254 516.686 74.0648 516.591 72.2157L516.478 70.0037C516.303 66.5864 514.574 64.6738 511.193 64.8583C508.7 64.9942 506.951 66.3454 506.251 68.4961L506.017 68.5089C505.259 66.3086 503.645 65.27 501.153 65.406C498.801 65.5343 497.255 66.7453 496.504 69.0278L496.235 69.0425L496.21 68.5627C496.158 67.5445 496.29 66.6806 496.607 65.9943L491.318 66.2828C491.676 67.5426 491.892 69.0212 491.979 70.7182L492.158 74.2175C492.23 75.6219 492.159 76.9755 491.931 78.2671L497.15 77.9824ZM527.287 76.6788C528.398 76.6181 529.516 76.4515 530.652 76.1666C531.787 75.8817 532.639 75.5653 533.218 75.1933L532.982 71.9436C532.573 72.4353 531.925 72.8462 531.038 73.1763C530.152 73.518 529.212 73.7101 528.229 73.7638C525.54 73.9574 523.05 72.5323 522.894 70.6396L523.065 70.5364C524.385 71.3446 526.093 71.6974 528.187 71.5831C531.569 71.3986 533.259 70.2502 533.141 67.9446C533.083 66.8094 532.516 65.8193 531.444 65.0679C530.362 64.3172 528.534 63.9123 526.24 64.0374C523.9 64.165 521.97 64.9745 520.777 66.1897C519.584 67.405 518.974 69.0109 519.064 70.7781C519.161 72.6623 519.952 74.1448 521.451 75.2367C522.951 76.3285 524.888 76.8096 527.287 76.6788ZM526.506 70.1374C525.043 70.2172 523.869 69.9644 522.959 69.392C523.061 68.6236 523.405 68.0063 524.003 67.5395C524.601 67.0843 525.304 66.8347 526.112 66.7907C526.989 66.7428 527.7 66.8683 528.266 67.166C528.834 67.4754 529.125 67.8938 529.152 68.4204C529.207 69.4854 527.852 70.064 526.506 70.1374ZM540.983 75.5912C540.81 75.1899 540.672 74.5637 540.547 73.7138C540.421 72.8639 540.347 72.0934 540.311 71.4029L540.22 69.624C540.175 68.7462 540.452 67.9683 541.038 67.2674C541.625 66.5781 542.392 66.2077 543.34 66.156C545.2 66.0545 546.35 67.1888 546.449 69.1199L546.545 71.0042C546.622 72.5022 546.543 73.9383 546.307 75.3008L551.526 75.0161C551.181 73.7792 550.961 72.2303 550.865 70.346L550.751 68.1341C550.664 66.4371 550.129 65.1401 549.143 64.2315C548.147 63.3235 546.8 62.9158 545.08 63.0097C542.669 63.1412 541.088 64.3541 540.337 66.6366L540.068 66.6513L540.043 66.1715C539.991 65.1533 540.123 64.2894 540.44 63.6031L535.151 63.8916C535.509 65.1514 535.725 66.63 535.812 68.327L535.991 71.8263C536.063 73.2308 535.992 74.5843 535.764 75.8759L540.983 75.5912ZM560.542 74.8646C561.56 74.8091 562.68 74.4663 563.328 74.0554L563.155 70.6614C562.785 70.9985 562.048 71.2734 561.287 71.3149C559.754 71.3985 558.788 70.6297 558.703 68.9795L558.473 64.4737L562.709 64.2426L562.614 62.3935L558.378 62.6246L558.132 57.8262L554.128 59.1361L554.318 62.8461L551.907 62.9776L552.002 64.8267L554.412 64.6952L554.72 70.7107C554.893 74.093 557.441 75.0338 560.542 74.8646Z" fill="black"/>
</svg>
