<svg width="116" height="108" viewBox="0 0 116 108" fill="none" xmlns="http://www.w3.org/2000/svg">
<path d="M105.157 73.8858C106.016 74.6949 107.62 76.4103 107.281 78.0427C106.986 79.4613 105.362 80.1654 104.747 80.4308C95.1884 84.5737 29.2958 85.4327 24.1186 87.4935C23.8305 87.608 22.3387 88.2795 20.7122 87.7466C19.3761 87.3091 18.569 86.2594 18.1333 85.6783C15.9908 82.824 16.2425 79.0929 16.3592 77.9542C13.5722 78.8741 11.3122 78.7948 9.963 78.6253C8.22085 78.407 6.82331 78.2274 5.79676 77.0148C4.12475 75.0431 4.79407 71.9419 4.89961 71.4866C7.37176 63.1276 9.45052 56.42 10.8819 51.8601C12.6372 46.2735 13.8611 42.5248 16.3666 34.5077C18.4784 27.7476 18.5495 26.3366 19.9493 22.9269C22.4986 16.7124 24.0874 12.8331 27.8357 9.76903C34.5886 4.24564 42.9585 5.77047 44.6926 6.08632C46.5582 6.42626 50.4517 7.13703 54.3874 10.3163C55.5615 11.266 59.6899 14.5987 60.8721 19.0422C61.1009 19.9032 61.3985 21.4761 62.3085 23.6196C63.0099 25.2734 63.3716 25.6083 63.6903 26.6953C63.9603 27.6166 64.1177 28.8072 63.5318 32.135C62.8292 36.1221 62.3686 38.7284 60.5716 41.6126C59.5907 43.187 58.5546 44.2962 57.832 44.9842C62.4808 53.0913 64.1319 54.864 64.6569 54.5851C65.1609 54.315 64.3592 52.292 65.2566 49.8913C65.9147 48.1323 67.1776 46.987 68.2519 46.2569C80.4689 45.1248 92.6858 43.9926 104.903 42.8604C105.14 42.9439 107.321 43.7549 108.013 46.1486C108.417 47.5423 108.108 48.7518 107.959 49.2275C107.026 57.4469 106.092 65.6662 105.157 73.8858Z" fill="#F4B5C2"/>
<path d="M19.072 73.7418C15.8986 74.015 12.7252 74.2883 9.55182 74.5615C9.43584 74.5431 8.91148 74.4419 8.55393 73.9249C8.16487 73.361 8.30245 72.6007 8.34598 72.3348C8.9009 69.0876 19.9631 34.7386 21.2352 30.3104C21.9699 27.7538 22.9465 25.2825 23.6323 22.7088C23.8891 21.7422 24.2037 20.4968 24.9828 18.9752C25.8264 17.3276 26.7551 16.2584 27.455 15.4661C29.1165 13.5805 30.6904 12.4887 31.8242 11.7134C33.2817 10.7167 34.2197 10.0763 35.6431 9.53582C38.4416 8.47553 40.863 8.66372 42.3654 8.79646C43.0142 8.85394 44.6347 9.03553 46.6288 9.71623C47.598 10.046 48.965 10.5209 50.517 11.5514C52.4826 12.8555 53.6484 14.3182 54.7978 15.7635C56.499 17.9003 57.3935 19.7099 57.6201 20.1815C58.0982 21.1698 58.4321 22.0477 58.6599 22.7152" fill="#0A2A2B"/>
<path d="M19.072 73.7418C15.8986 74.015 12.7252 74.2883 9.55182 74.5615C9.43584 74.5431 8.91148 74.4419 8.55393 73.9249C8.16487 73.361 8.30245 72.6007 8.34598 72.3348C8.9009 69.0876 19.9631 34.7386 21.2352 30.3104C21.9699 27.7538 22.9465 25.2825 23.6323 22.7088C23.8891 21.7422 24.2037 20.4968 24.9828 18.9752C25.8264 17.3276 26.7551 16.2584 27.455 15.4661C29.1165 13.5805 30.6904 12.4887 31.8242 11.7134C33.2817 10.7167 34.2197 10.0763 35.6431 9.53582C38.4416 8.47553 40.863 8.66372 42.3654 8.79646C43.0142 8.85394 44.6347 9.03553 46.6288 9.71623C47.598 10.046 48.965 10.5209 50.517 11.5514C52.4826 12.8555 53.6484 14.3182 54.7977 15.7635C56.499 17.9003 57.3935 19.7099 57.6201 20.1815C58.0982 21.1698 58.4321 22.0477 58.6599 22.7152" stroke="#0A2A2B" stroke-width="0.862668" stroke-miterlimit="10" stroke-linecap="round" stroke-linejoin="round"/>
<path d="M26.723 68.9398C26.7466 69.1172 30.8784 68.6953 48.3686 66.1717C48.5638 66.2376 49.0004 66.4125 49.386 66.8681C49.7692 67.3215 49.8953 67.8088 49.9392 68.027C50.2185 71.8918 50.4979 75.7566 50.7771 79.6191C50.7449 79.832 50.6458 80.2868 50.3024 80.6847C49.6677 81.4217 48.7499 81.3237 48.6364 81.3098C39.8988 82.0622 31.1591 82.8147 22.4215 83.567C22.1265 83.5853 21.634 83.5663 21.1872 83.2506C21.1872 83.2506 20.6923 82.8989 20.4169 82.1411C19.7955 80.4284 18.5012 55.967 18.4419 54.8175C18.6371 54.1655 19.0002 53.2323 19.6965 52.301C20.8995 50.6863 22.3858 50.0294 23.0773 49.7786C32.2796 47.7632 37.1331 46.7007 37.1331 46.7007C37.1144 44.6457 37.022 42.4696 36.8288 40.1864C36.7457 39.216 36.6491 38.2681 36.5414 37.347C36.0751 37.1818 35.357 36.854 34.6616 36.1819C34.301 35.8328 32.9963 34.5733 32.9331 32.5316C32.9303 32.402 32.89 29.7798 34.8467 28.4473C34.9601 28.369 36.6927 27.2281 38.1834 28.0089C39.7281 28.818 39.9071 31.1142 40.4167 31.0112C40.7322 30.9463 40.8617 30.0143 41.1205 28.1479C41.3358 26.6064 41.3044 26.1133 41.7105 25.625C41.8159 25.4978 42.1389 25.1465 43.4517 24.8729C45.3165 24.4833 45.6067 24.9967 47.0251 24.6267C47.6132 24.4721 48.6452 24.2038 49.583 23.3203C50.1623 22.7746 50.2678 22.4089 50.7757 22.2519C51.453 22.0448 51.8528 22.518 52.9519 22.9381C54.3379 23.4681 55.5685 23.433 56.1621 23.4149C57.6431 23.3724 58.725 22.9251 58.7936 23.127C58.874 23.3703 57.3247 24.0256 57.4312 24.5406C57.4709 24.7308 57.7132 24.7902 58.0979 24.9648C58.0979 24.9648 58.8432 25.3092 59.6335 25.9471C60.9319 26.9994 60.6618 29.7286 60.6395 29.9288C60.5469 30.7726 60.2718 31.5755 59.9892 32.3956C59.746 33.1013 59.5941 33.393 59.4203 34.0714C59.1839 34.9914 59.1494 35.6815 59.1202 36.0263C58.9383 38.1482 57.7969 40.525 56.4141 42.1363C55.658 43.0184 54.9529 43.5301 54.8109 43.6297C52.3236 45.4046 49.55 45.1924 48.3098 45.0041C48.3208 45.4258 48.3337 45.8449 48.3448 46.2666C48.9962 46.0901 49.9286 45.9107 51.0559 45.9435C51.4785 45.9543 52.7518 46.0005 53.9115 46.4815C55.3723 47.0877 56.1408 48.1714 57.4179 49.9174C60.1805 53.6888 61.5608 55.5746 62.403 56.6024C64.3439 58.9712 65.6247 60.169 65.7963 61.5261C65.8325 61.8181 65.9261 62.9623 66.6058 63.5673C66.7122 63.662 66.8881 63.7909 67.1673 64.062C67.5862 64.4699 67.8186 64.693 67.9203 64.9322C68.248 65.695 67.3584 66.8554 67.1151 67.1715C66.2471 68.3017 65.1225 68.7857 64.4027 69.0035C64.8311 69.7529 65.1089 70.4232 65.2874 70.9178C65.7717 72.2598 65.8159 73.1107 65.8241 73.3745C65.8476 74.0879 65.8648 74.6555 65.5003 75.0009C65.0588 75.4167 64.3629 75.2169 64.2148 75.173C64.2818 75.323 64.6611 76.2301 64.276 77.1582C64.029 77.7508 63.5998 78.0381 63.3564 78.2031C63.1707 78.3277 62.2115 78.9746 61.5333 78.5702C61.2508 78.4033 61.2981 78.2197 60.7758 77.2494C60.336 76.4325 60.3194 76.5921 59.8053 75.6754C59.3606 74.8802 59.2917 74.6146 59.035 74.5659C58.6468 74.493 58.2594 74.9986 58.0872 75.2212C57.6742 75.7621 57.6927 76.1383 57.4688 76.6015C57.1077 77.3527 56.4373 77.656 55.4506 78.1022C55.2369 78.1985 54.178 78.6628 52.703 78.6694C52.2641 78.6717 51.8049 78.3358 51.2387 78.5239C51.1078 78.5682 50.9592 78.6377 50.8453 78.5578C50.6449 78.4192 50.734 77.9464 50.7695 77.5088C50.7789 77.3994 50.7702 77.4592 50.6303 75.7027C50.478 73.8056 50.4029 72.8558 50.3647 72.1484C50.2837 70.6678 50.2432 69.9275 50.2417 69.6679C50.24 69.3753 50.2367 68.6106 50.0322 67.6672C49.9151 67.1247 49.8053 66.8626 49.6074 66.6388C49.2562 66.2393 48.7884 66.1427 48.593 66.1028C48.2526 66.033 48.0087 66.0705 47.6634 66.112C47.0866 66.1829 46.5042 66.2071 45.9247 66.2712C44.6394 66.4173 44.7677 66.307 43.8914 66.425C42.6809 66.5882 42.569 66.775 41.2515 66.9545C41.095 66.9751 40.62 67.0183 39.6784 67.0994C38.0639 67.2408 37.9496 67.2459 37.5563 67.2821C36.3766 67.3932 36.3425 67.4598 33.7582 67.8311C32.3921 68.0267 31.7091 68.1256 31.1223 68.1785C30.396 68.2457 29.674 68.374 28.9459 68.3871C28.5981 68.3935 27.9574 68.3896 27.2009 68.6979C27.0073 68.7736 26.7174 68.893 26.723 68.9398Z" fill="#F4B5C2" stroke="#0A2A2B" stroke-width="0.862668" stroke-miterlimit="10" stroke-linecap="round" stroke-linejoin="round"/>
<path d="M52.5178 71.0832C54.8476 70.4529 57.1776 69.8249 59.5074 69.1946C60.4145 69.6831 60.9517 70.2602 61.2727 70.6907C62.1495 71.8666 62.2184 73.0295 63.4805 74.4792C63.6622 74.6878 63.8186 74.8467 63.9187 74.9444C63.9714 75.0744 64.0239 75.2021 64.0766 75.3322" stroke="#0A2A2B" stroke-width="0.862668" stroke-miterlimit="10" stroke-linecap="round" stroke-linejoin="round"/>
<path d="M50.508 67.9798C52.6407 67.7347 54.3634 67.4141 55.5481 67.1633C58.397 66.5615 59.4516 66.0976 60.9495 66.4975C62.5752 66.9313 63.7097 68.111 64.4001 69.0126" stroke="#0A2A2B" stroke-width="0.862668" stroke-miterlimit="10" stroke-linecap="round" stroke-linejoin="round"/>
<path d="M60.3398 66.3304C61.102 65.6508 61.7994 65.2437 62.305 64.9947C62.9966 64.6566 63.0072 64.7737 64.884 64.1304C65.1014 64.0551 65.5932 63.8852 66.2677 63.7894C66.4283 63.7661 66.5616 63.7546 66.6519 63.7468" stroke="#0A2A2B" stroke-width="0.862668" stroke-miterlimit="10" stroke-linecap="round" stroke-linejoin="round"/>
<path d="M47.031 81.0192C46.6538 76.19 46.2786 71.3582 45.9015 66.529" stroke="#0A2A2B" stroke-width="0.862668" stroke-miterlimit="10" stroke-linecap="round" stroke-linejoin="round"/>
<path d="M37.4571 46.8775C37.4433 47.3745 37.4727 48.5904 38.2133 49.7072C38.2982 49.8345 38.6659 50.3719 39.3649 50.8548C41.3048 52.1918 43.6178 51.5983 44.7009 51.3186C45.8032 51.0347 46.6369 50.8071 47.2559 49.9723C47.926 49.0669 48.0158 47.8857 48.0217 47.8167C48.0659 47.1423 47.9019 46.9675 47.962 45.973C48.0122 45.1423 48.1457 44.9537 48.0157 44.6815C47.7071 44.0328 46.496 44.1584 45.8783 44.1431C44.7123 44.1136 43.0881 43.5215 41.0885 41.0586" stroke="#0A2A2B" stroke-width="0.862668" stroke-miterlimit="10" stroke-linecap="round" stroke-linejoin="round"/>
<path d="M48.0744 37.8858C48.7061 39.9211 50.0667 41.2962 51.451 41.2927C52.4914 41.2905 53.2853 40.5114 53.7538 40.0484C55.0869 38.7389 55.4444 37.0694 55.5515 36.3967" stroke="#0A2A2B" stroke-width="0.862668" stroke-miterlimit="10" stroke-linecap="round" stroke-linejoin="round"/>
<path d="M39.0029 50.9245C38.9967 51.7372 39.0627 52.9192 39.4282 54.2643C40.1717 57.0078 41.8382 59.2633 42.3132 59.0405C42.7882 58.8178 41.844 56.231 42.5573 55.8036C42.9514 55.569 43.5237 56.1832 44.9805 57.2431C47.0743 58.7652 48.1223 59.525 48.9197 59.2745C49.8675 58.978 49.6493 57.7855 51.108 55.4286C52.4875 53.2037 53.7022 52.6198 53.4619 51.8093C53.1391 50.725 50.6384 50.6971 50.6653 50.3217C50.6863 50.0437 52.0443 50.1841 52.2382 49.6645C52.403 49.2205 51.7137 48.3047 49.2107 46.5085" stroke="#0A2A2B" stroke-width="0.862668" stroke-miterlimit="10" stroke-linecap="round" stroke-linejoin="round"/>
<path d="M46.8753 50.8099C47.4491 53.4806 48.0229 56.1513 48.5965 58.8196" stroke="#0A2A2B" stroke-width="0.862668" stroke-miterlimit="10" stroke-linecap="round" stroke-linejoin="round"/>
<path d="M57.6036 25.0193C57.2006 24.8911 56.5779 24.7464 55.8189 24.781C55.5817 24.792 54.5973 24.8508 53.4648 25.4654C52.8154 25.8188 52.3033 26.0967 51.898 26.7148C51.4031 27.4705 51.3761 28.2638 51.3403 29.3247C51.3053 30.3383 51.2834 30.9919 51.6231 31.7111C52.0397 32.5961 52.7345 33.0203 53.4041 33.4255C54.3771 34.017 55.2682 34.1929 55.7008 34.2525C57.283 34.4728 58.5518 33.9787 59.1665 33.6825" stroke="#0A2A2B" stroke-width="0.862668" stroke-miterlimit="10" stroke-linecap="round" stroke-linejoin="round"/>
<path d="M41.9167 29.9881C42.0101 29.3945 42.1169 28.7171 42.4919 28.0095C43.044 26.9679 43.8517 26.4686 44.295 26.1967C44.7672 25.9057 45.7405 25.3048 46.9758 25.4535C47.4908 25.5154 47.8664 25.6838 48.2466 25.8564C48.7521 26.0845 49.4586 26.4014 50.0792 27.1461C50.7187 27.9127 50.9248 28.7284 51.0607 29.2622C51.1848 29.7521 51.3565 30.4504 51.2403 31.3576C51.1243 32.2672 50.7779 32.8921 50.5769 33.2541C50.3219 33.7058 49.92 34.4015 49.1222 34.9165C48.4752 35.3335 47.8866 35.4219 47.4519 35.4829C47.0021 35.5453 45.0572 35.8143 43.5662 34.4622C42.9874 33.9359 42.6488 33.3228 42.4346 32.9328C42.1782 32.4684 41.9459 32.0375 41.8554 31.4148C41.7786 30.8902 41.8385 30.493 41.9167 29.9881Z" stroke="#0A2A2B" stroke-width="0.862668" stroke-miterlimit="10" stroke-linecap="round" stroke-linejoin="round"/>
<path d="M58.7584 29.1378C59.283 29.7207 59.5465 30.0144 59.6792 30.4138C59.948 31.2289 59.6565 31.986 59.6091 32.1081C59.3695 32.7143 58.9574 33.0284 58.6702 33.2444C58.504 33.3697 56.8983 34.5303 55.4711 33.7017C54.9924 33.4241 54.7324 33.0286 54.5138 32.6979C54.3001 32.3763 53.7001 31.467 53.8417 30.2836C53.9132 29.6872 54.1477 29.2491 54.2775 29.0396C54.3956 28.8476 54.6753 28.4079 55.2059 28.1167C55.8071 27.7839 56.3692 27.8394 56.6528 27.8717C57.3574 27.9527 57.8385 28.2938 58.0486 28.4457C58.3045 28.6338 58.4574 28.8048 58.7584 29.1378Z" fill="#0A2A2B" stroke="#0A2A2B" stroke-width="0.647001" stroke-miterlimit="10" stroke-linecap="round" stroke-linejoin="round"/>
<path d="M48.9171 29.0208C49.3984 29.2745 49.6928 29.5467 49.7602 29.6117C50.0737 29.9082 50.5333 30.3409 50.6317 30.9841C50.6726 31.2497 50.5932 31.1692 50.5204 32.1081C50.4642 32.8261 50.5021 32.9621 50.3812 33.2346C50.2547 33.5194 50.0737 33.679 49.7709 33.9506C49.6816 34.0315 49.3762 34.2963 48.9026 34.5378C48.7942 34.5943 48.3619 34.8086 47.716 34.9422C46.987 35.0923 46.6224 35.1662 46.2282 34.9806C45.7736 34.767 45.5304 34.3346 45.3591 34.0306C45.3145 33.9518 45.2569 33.8435 44.9479 32.9209C44.7194 32.244 44.606 31.9019 44.584 31.7173C44.5057 31.0534 44.6728 30.522 44.7339 30.3491C44.99 29.6116 45.454 29.208 45.5825 29.1001C45.6643 29.0341 46.0506 28.7222 46.6508 28.5855C47.6554 28.3573 48.4897 28.7955 48.9171 29.0208Z" fill="#0A2A2B" stroke="#0A2A2B" stroke-width="0.647001" stroke-miterlimit="10" stroke-linecap="round" stroke-linejoin="round"/>
<path d="M36.5986 37.0251C36.8984 37.1031 37.299 37.1677 37.7669 37.1463C38.5818 37.1068 39.2077 36.817 39.5691 36.6089" fill="#0A2A2B"/>
<path d="M36.5986 37.0251C36.8984 37.1031 37.299 37.1677 37.7669 37.1463C38.5818 37.1068 39.2077 36.817 39.5691 36.6089" stroke="#0A2A2B" stroke-width="0.647001" stroke-miterlimit="10" stroke-linecap="round" stroke-linejoin="round"/>
<path d="M39.1489 32.0839C39.1282 31.9771 39.0337 31.5673 38.6906 31.3395C38.2385 31.0408 37.6528 31.2588 37.3463 31.5969C37.0978 31.871 37.0526 32.2031 36.9956 32.6117C36.8948 33.3429 36.9989 34.0943 37.0659 34.0932C37.1524 34.0929 37.4531 32.8061 36.9573 31.8122C36.7499 31.398 36.3832 30.9927 36.202 30.7911C35.9411 30.5043 35.7027 30.2887 35.5301 30.1453" fill="#0A2A2B"/>
<path d="M39.1489 32.0839C39.1282 31.9771 39.0337 31.5673 38.6906 31.3395C38.2385 31.0408 37.6528 31.2588 37.3463 31.5969C37.0978 31.871 37.0526 32.2031 36.9956 32.6117C36.8948 33.3429 36.9989 34.0943 37.0659 34.0932C37.1524 34.0929 37.4531 32.8061 36.9573 31.8122C36.7499 31.398 36.3832 30.9927 36.202 30.7911C35.9411 30.5043 35.7027 30.2887 35.5301 30.1453" stroke="#0A2A2B" stroke-width="0.647001" stroke-miterlimit="10" stroke-linecap="round" stroke-linejoin="round"/>
<path d="M66.6945 77.4389C67.3492 68.4195 68.0063 59.4022 68.6611 50.3827C80.7245 49.1623 92.7881 47.9441 104.852 46.7236C103.643 56.995 102.434 67.2687 101.225 77.5401C83.7805 78.9617 66.3383 80.3833 48.894 81.8049C48.8101 81.8122 50.52 81.4949 51.0175 80.2361C51.1183 79.9842 51.2146 79.5816 51.1201 78.9924C56.3114 78.4722 61.5028 77.9544 66.6945 77.4389Z" fill="#0A2A2B" stroke="#0A2A2B" stroke-width="0.862668" stroke-miterlimit="10" stroke-linecap="round" stroke-linejoin="round"/>
<path d="M87.3377 69.5717C83.6092 69.8928 80.3683 67.1315 80.0989 63.4042C79.8295 59.677 82.6336 56.3952 86.3621 56.0742C90.0905 55.7532 93.3314 58.5144 93.6008 62.2417C93.8702 65.9689 91.0661 69.2507 87.3377 69.5717Z" fill="#F4B5C2" stroke="#0A2A2B" stroke-width="0.862668" stroke-miterlimit="10" stroke-linecap="round" stroke-linejoin="round"/>
<path d="M24.6916 93.1253C24.3175 90.3008 23.7302 89.6548 21.3632 86.6652C25.021 86.1323 32.4853 85.0587 33.0795 85.0272C33.6738 84.9956 48.6678 84.8766 56.0906 84.821L65.0213 83.3309L84.181 81.6362L92.1664 81.2122L98.0773 81.5755L104.071 79.6319L106.409 76.3925C106.611 76.7429 108.009 76.8881 106.983 78.1228C106.158 79.1147 106.475 80.6555 110.542 82.8098C114.609 84.9641 112.704 83.9817 114.247 85.1865C115.79 86.3913 115.008 88.3291 115.131 91.0992C115.255 93.8693 114.827 96.8041 112.573 97.7365C110.318 98.6688 110.065 98.5469 106.053 99.0308C102.042 99.5147 98.045 100.336 95.0118 100.498C91.9785 100.659 90.6889 102.352 87.7129 103.797C84.7369 105.242 84.7189 104.837 82.2083 102.803C79.6977 100.769 77.5185 101.945 76.4681 102.092C72.8125 102.603 71.0206 102.381 67.6779 102.559C64.3351 102.736 61.151 102.296 56.0131 102.569C50.8751 102.841 49.7261 103.512 46.6929 103.673C43.6596 103.834 38.1232 103.519 37.3804 103.558C36.6375 103.597 29.2982 104.597 26.3617 104.143C25.1133 102.584 25.1253 102.854 24.9928 99.8816C24.9017 97.839 25.0657 95.9498 24.6916 93.1253Z" fill="#F4B5C2"/>
<path d="M33.4287 98.5981C34.995 98.467 36.2426 97.9318 37.0927 97.0477C37.9429 96.1635 38.3668 94.8357 38.2311 93.2141C38.0965 91.6064 37.4572 90.3606 36.4719 89.6301C35.4867 88.8995 34.1531 88.5734 32.6005 88.7033L27.7981 89.1053C27.9316 89.5388 28.0537 90.0845 28.1718 90.7486C28.29 91.4127 28.3707 92.0452 28.4221 92.6593L28.6514 95.3986C28.7028 96.0127 28.7283 96.6499 28.7216 97.3175C28.715 97.9851 28.6853 98.5434 28.6262 99L33.4287 98.5981ZM31.5971 91.9906L33.0048 91.8727C33.4809 91.8329 33.9013 91.9575 34.2659 92.2466C34.6312 92.5426 34.8326 92.9566 34.8776 93.4948C34.9232 94.0399 34.7934 94.4816 34.4888 94.8267C34.1773 95.1724 33.7834 95.3652 33.3004 95.4056L31.8928 95.5234L31.5971 91.9906ZM44.0923 97.9071C44.7892 97.8488 45.4878 97.7278 46.1818 97.5516C46.8752 97.3685 47.4001 97.1647 47.7635 96.9398L47.5136 94.619C47.2757 94.9308 46.9014 95.1914 46.3909 95.4009C45.8803 95.6104 45.3353 95.7394 44.7626 95.7873C44.0173 95.8497 43.3549 95.7384 42.7757 95.4603C42.1897 95.1828 41.8543 94.8287 41.7627 94.3986L41.8674 94.3203C42.6674 94.8301 43.6151 94.9453 44.8295 94.8437C46.6718 94.6895 47.6733 93.9525 47.5641 92.6484C47.5196 92.1171 47.3142 91.6549 46.8701 91.2473C46.2374 90.661 45.0481 90.3159 43.2535 90.4591C41.77 90.5833 40.5839 91.1064 39.8959 91.8519C39.2015 92.6048 38.8706 93.5497 38.9567 94.5778C39.0502 95.6956 39.5606 96.5632 40.4941 97.1729C41.4275 97.7827 42.6225 98.0301 44.0923 97.9071ZM43.5337 94.1392C42.7954 94.201 42.2215 94.0683 41.805 93.7419C41.8342 93.3434 41.9888 93.0317 42.2544 92.801C42.5205 92.5772 42.8431 92.446 43.2157 92.4148C44.0506 92.3449 44.605 92.6598 44.6518 93.2187C44.672 93.4602 44.5709 93.6633 44.349 93.8347C44.1277 94.013 43.858 94.112 43.5337 94.1392ZM55.9023 96.7172C55.8826 96.3992 55.8974 95.995 55.9611 95.5102C56.0178 95.026 56.097 94.5608 56.1986 94.1145L56.758 92.1638C57.0083 91.0867 57.3082 90.1861 57.657 89.4551L53.993 89.7618C54.0226 90.3638 53.9796 90.9302 53.851 91.4691L53.259 93.6935C53.2021 94.0109 53.139 94.4192 53.0616 94.9051L52.9029 94.9184C52.7434 94.4245 52.6076 94.0468 52.4942 93.7714L51.5533 91.6614C51.3639 91.2256 51.2206 90.6748 51.1157 90.0026L47.4517 90.3093C47.9402 90.998 48.393 91.8425 48.8022 92.8297L49.678 94.6602C50.0821 95.6687 50.3193 96.5105 50.3891 97.1786L55.9023 96.7172ZM63.1641 96.3109C63.861 96.2526 64.5597 96.1316 65.2537 95.9554C65.9471 95.7723 66.472 95.5685 66.8353 95.3436L66.5855 93.0228C66.3476 93.3346 65.9733 93.5952 65.4628 93.8047C64.9522 94.0142 64.4071 94.1432 63.8344 94.1911C63.0892 94.2535 62.4268 94.1422 61.8476 93.8641C61.2616 93.5866 60.9262 93.2325 60.8346 92.8024L60.9392 92.7241C61.7393 93.2339 62.687 93.3491 63.9014 93.2475C65.7437 93.0933 66.7451 92.3563 66.636 91.0522C66.5915 90.5209 66.3861 90.0587 65.942 89.6511C65.3093 89.0648 64.12 88.7197 62.3254 88.8629C60.8419 88.9871 59.6558 89.5102 58.9677 90.2557C58.2734 91.0086 57.9425 91.9535 58.0285 92.9816C58.1221 94.0995 58.6325 94.967 59.5659 95.5767C60.4994 96.1865 61.6944 96.4339 63.1641 96.3109ZM62.6056 92.543C61.8673 92.6048 61.2934 92.4721 60.8769 92.1457C60.9061 91.7472 61.0607 91.4355 61.3263 91.2048C61.5924 90.981 61.915 90.8498 62.2876 90.8186C63.1225 90.7487 63.6769 91.0636 63.7237 91.6225C63.7439 91.864 63.6428 92.0671 63.4209 92.2385C63.1995 92.4168 62.9299 92.5158 62.6056 92.543ZM71.9174 95.3768C71.629 94.4212 71.4256 93.2362 71.3078 91.8286L71.0785 89.0892C70.9601 87.6747 70.9637 86.4723 71.0893 85.4821L67.2321 85.8049C67.3726 86.2378 67.5016 86.7829 67.6191 87.4401C67.7373 88.1042 67.8255 88.7431 67.8769 89.3572L68.1061 92.0965C68.1575 92.7106 68.1767 93.3552 68.1701 94.0228C68.1634 94.6904 68.1268 95.2494 68.0603 95.6996L71.9174 95.3768ZM77.6198 95.1011C79.1655 94.9717 80.3659 94.4543 81.0534 93.7019C81.734 92.9501 82.0453 92.0208 81.9581 90.9789C81.8709 89.937 81.4094 89.0723 80.6133 88.4441C79.8104 87.8164 78.5475 87.5052 77.0088 87.634C75.4632 87.7634 74.2627 88.2807 73.5821 89.0325C72.8947 89.7849 72.5834 90.7143 72.6706 91.7562C72.7578 92.7981 73.2192 93.6628 74.0222 94.2904C74.8183 94.9186 76.0811 95.2298 77.6198 95.1011ZM77.4472 93.0379C76.9573 93.0789 76.5507 92.9532 76.2205 92.6612C75.8909 92.3761 75.7056 91.9886 75.6652 91.5056C75.6248 91.0225 75.7431 90.6096 76.0201 90.2668C76.2977 89.9309 76.6778 89.7393 77.1677 89.6983C77.6714 89.6561 78.0849 89.7813 78.4145 90.0664C78.7371 90.3521 78.9224 90.7396 78.9634 91.2295C79.0044 91.7194 78.8861 92.1323 78.6154 92.4677C78.3378 92.8036 77.9509 92.9958 77.4472 93.0379ZM87.3965 96.9302C87.2566 96.5041 87.1351 95.9654 87.0176 95.3082C86.8994 94.644 86.8181 94.0046 86.7656 93.3767L86.6807 92.3624L86.867 92.3468C87.4085 93.5036 88.5082 94.1898 89.9986 94.065C91.0957 93.9732 91.9374 93.4859 92.411 92.7514C92.8782 92.0244 93.0797 91.1112 92.9925 90.0693C92.9053 89.0273 92.5536 88.1465 91.9715 87.5004C91.3824 86.8549 90.4709 86.5073 89.3738 86.5991C87.8903 86.7233 86.9602 87.5655 86.569 88.7864L86.3827 88.802L86.3683 88.6295C86.3434 88.3328 86.3428 88.0757 86.3732 87.8578C86.3967 87.6404 86.4569 87.3644 86.5477 87.0372L82.6905 87.36C82.8304 87.786 82.9657 88.3236 83.0827 88.9739C83.1997 89.6242 83.2815 90.2705 83.3347 90.9054L83.5639 93.6447C83.6171 94.2795 83.6438 94.9304 83.6371 95.598C83.6299 96.2587 83.5858 96.8114 83.5187 97.2547L87.3965 96.9302ZM88.4161 92.1755C87.9123 92.2177 87.4914 92.0861 87.1526 91.774C86.8138 91.4619 86.6216 91.075 86.5823 90.6058C86.5402 90.102 86.6567 89.6684 86.9401 89.3181C87.2165 88.9684 87.6098 88.7688 88.1273 88.7254C88.6586 88.681 89.0928 88.8045 89.4442 89.1016C89.7888 89.3994 89.9827 89.807 90.0255 90.3176C90.067 90.8144 89.9424 91.2348 89.6521 91.5857C89.355 91.9371 88.9474 92.131 88.4161 92.1755ZM98.8929 93.3206C99.5898 93.2623 100.288 93.1413 100.982 92.9651C101.676 92.782 102.201 92.5783 102.564 92.3533L102.314 90.0326C102.076 90.3443 101.702 90.6049 101.191 90.8144C100.681 91.0239 100.136 91.1529 99.5631 91.2009C98.8179 91.2632 98.1555 91.1519 97.5763 90.8738C96.9903 90.5963 96.6549 90.2422 96.5633 89.8121L96.6679 89.7339C97.468 90.2436 98.4157 90.3589 99.6301 90.2572C101.472 90.103 102.474 89.3661 102.365 88.0619C102.32 87.5306 102.115 87.0684 101.671 86.6609C101.038 86.0746 99.8487 85.7294 98.0541 85.8726C96.5706 85.9968 95.3845 86.5199 94.6964 87.2654C94.0021 88.0184 93.6712 88.9632 93.7573 89.9914C93.8508 91.1092 94.3612 91.9767 95.2947 92.5865C96.2281 93.1962 97.4231 93.4437 98.8929 93.3206ZM98.3343 89.5527C97.596 89.6145 97.0221 89.4819 96.6056 89.1554C96.6348 88.7569 96.7894 88.4452 97.055 88.2145C97.3211 87.9907 97.6437 87.8595 98.0163 87.8283C98.8512 87.7584 99.4056 88.0734 99.4524 88.6323C99.4726 88.8738 99.3715 89.0768 99.1496 89.2482C98.9283 89.4266 98.6586 89.5256 98.3343 89.5527ZM107.646 92.3865C107.395 91.8726 107.232 91.1705 107.157 90.2804L107.104 89.6456C107.055 89.0591 107.228 88.5582 107.617 88.1365C108.006 87.7149 108.493 87.4795 109.073 87.431C109.742 87.375 110.442 87.6013 110.832 87.9508L110.589 85.039C110.252 84.9212 109.874 84.8834 109.446 84.9192C108.094 85.0324 107.247 86.0344 107.114 87.6922L106.942 87.7067L106.907 87.2858C106.878 86.9477 106.89 86.5923 106.949 86.2191C107.001 85.8464 107.101 85.5462 107.241 85.3052L103.198 85.6437C103.491 86.5711 103.688 87.6037 103.784 88.7423L103.882 89.9153C103.929 90.4811 103.941 90.9595 103.925 91.35C103.91 91.7473 103.864 92.1958 103.789 92.7094L107.646 92.3865Z" fill="black"/>
</svg>
