<svg width="25" height="25" viewBox="0 0 25 25" fill="none" xmlns="http://www.w3.org/2000/svg">
<path d="M12.0358 8.57447C9.83239 8.57447 8.03421 10.3727 8.03421 12.5762C8.03421 14.7797 9.83239 16.5779 12.0358 16.5779C14.2393 16.5779 16.0375 14.7797 16.0375 12.5762C16.0375 10.3727 14.2393 8.57447 12.0358 8.57447ZM24.0377 12.5762C24.0377 10.9191 24.0527 9.27694 23.9597 7.62283C23.8666 5.70153 23.4283 3.99637 22.0234 2.59143C20.6155 1.18347 18.9134 0.74818 16.9921 0.655118C15.335 0.562055 13.6929 0.577065 12.0388 0.577065C10.3817 0.577065 8.73967 0.562055 7.08559 0.655118C5.16432 0.74818 3.4592 1.18648 2.05428 2.59143C0.646354 3.99938 0.211068 5.70153 0.118007 7.62283C0.0249455 9.27994 0.0399554 10.9221 0.0399554 12.5762C0.0399554 14.2303 0.0249455 15.8754 0.118007 17.5295C0.211068 19.4508 0.649356 21.156 2.05428 22.5609C3.4622 23.9689 5.16432 24.4042 7.08559 24.4972C8.74267 24.5903 10.3848 24.5753 12.0388 24.5753C13.6959 24.5753 15.338 24.5903 16.9921 24.4972C18.9134 24.4042 20.6185 23.9659 22.0234 22.5609C23.4313 21.153 23.8666 19.4508 23.9597 17.5295C24.0557 15.8754 24.0377 14.2333 24.0377 12.5762ZM12.0358 18.7333C8.6286 18.7333 5.87879 15.9835 5.87879 12.5762C5.87879 9.16887 8.6286 6.41901 12.0358 6.41901C15.4431 6.41901 18.1929 9.16887 18.1929 12.5762C18.1929 15.9835 15.4431 18.7333 12.0358 18.7333ZM18.445 7.60481C17.6495 7.60481 17.0071 6.96238 17.0071 6.16684C17.0071 5.3713 17.6495 4.72887 18.445 4.72887C19.2406 4.72887 19.883 5.3713 19.883 6.16684C19.8832 6.35575 19.8462 6.54284 19.774 6.71741C19.7018 6.89198 19.5959 7.05059 19.4624 7.18417C19.3288 7.31774 19.1702 7.42366 18.9956 7.49584C18.821 7.56802 18.6339 7.60505 18.445 7.60481Z" fill="#E8E8E8"/>
</svg>
