<svg width="176" height="49" viewBox="0 0 176 49" fill="none" xmlns="http://www.w3.org/2000/svg">
<rect x="5.79403" y="3.96419" width="168.293" height="43.2927" stroke="#FBFFFE" stroke-width="1.82927"/>
<rect x="0.914634" y="0.914634" width="167.683" height="40.2439" fill="#F05127" stroke="#FBFFFE" stroke-width="1.82927"/>
<path d="M47.8842 29.6203C48.4612 29.6203 49.0269 29.4619 49.5813 29.1564C50.1244 28.8509 50.5091 28.4776 50.7353 28.0363L50.6674 21.0896C50.0452 22.6623 49.0043 23.4542 47.5448 23.4542C46.9226 23.4542 46.3569 23.1601 45.9043 22.7867C45.2481 22.255 44.5353 21.5761 43.37 21.5761H43.3248V21.4404H43.5284C44.7164 21.4404 45.7686 21.282 46.685 20.9765C47.6014 20.671 48.3368 20.1958 48.8912 19.5396C49.4456 18.8947 49.7171 18.1141 49.7171 17.1977C49.7171 16.3039 49.4342 15.5459 48.8685 14.901C47.7258 13.6338 45.8025 13.0455 43.3926 13.0455H33.5496C33.9003 14.5955 34.0814 16.5528 34.0814 18.9174V23.409C34.0814 25.7622 33.9003 27.7195 33.5496 29.2695H39.8967C39.5459 27.7195 39.3649 25.7622 39.3649 23.409V22.4586C39.5686 22.3794 39.8967 22.3455 40.3605 22.3455C42.1934 22.3455 42.793 23.7823 43.3926 25.3776C44.1167 27.3688 44.8182 29.6316 47.8842 29.6203ZM39.3649 18.0575H42.4649C43.5624 18.0575 44.343 18.578 44.343 19.3812C44.343 20.2411 43.5737 20.7163 42.3518 20.7163H39.3649V18.0575ZM59.3112 29.5976C60.4539 29.5976 61.6079 29.4958 62.7619 29.3035C63.9159 29.0998 64.7984 28.8396 65.4207 28.5228L65.3302 24.7101C64.9002 25.1852 64.2554 25.5586 63.3955 25.8301C62.5357 26.1017 61.6306 26.2374 60.6915 26.2374C59.4696 26.2374 58.4061 25.9659 57.501 25.4341C56.5846 24.9024 56.0868 24.2801 55.9963 23.5674L56.1773 23.4542C57.4105 24.3933 58.9379 24.7101 60.9291 24.7101C63.9499 24.7101 65.6809 23.6466 65.6809 21.5082C65.6809 20.6371 65.4094 19.8564 64.7419 19.1323C63.7915 18.0915 61.9021 17.3674 58.9605 17.3561C56.528 17.3561 54.5255 18.0462 53.3036 19.1663C52.0704 20.2977 51.4028 21.7911 51.4028 23.4768C51.4028 25.3097 52.1156 26.7918 53.5525 27.9119C54.9893 29.0319 56.9014 29.5976 59.3112 29.5976ZM58.9152 23.3863C57.7047 23.3863 56.7882 23.0922 56.1547 22.5039C56.2565 21.859 56.5506 21.3725 57.0145 21.0331C57.4784 20.705 58.0214 20.5353 58.6324 20.5353C60.0014 20.5353 60.8612 21.1236 60.8612 22.04C60.8612 22.436 60.6689 22.7528 60.2842 23.0017C59.8995 23.2619 59.447 23.3863 58.9152 23.3863ZM74.3247 34.5531C78.8841 34.5531 82.9911 32.5845 82.9911 28.8057C82.9911 28.1947 82.8327 27.5951 82.5272 27.0181V23.5447C82.5272 21.1915 82.7082 19.2342 83.059 17.6842H76.7345C76.9495 18.2159 77.0852 18.6458 77.1644 18.9853C77.2323 19.336 77.2663 19.7659 77.2663 20.275V20.5353H76.9608C76.1801 18.5893 74.4944 17.3561 72.0958 17.3561C70.2969 17.3561 68.8601 18.0462 68.0002 19.1776C67.1291 20.309 66.6765 21.7911 66.6765 23.4995C66.6765 25.2079 67.1291 26.6673 68.0002 27.7874C68.8601 28.9188 70.2969 29.5976 72.0958 29.5976C74.551 29.5976 76.2254 28.3192 76.9608 26.3732H77.221C77.6962 26.871 77.9338 27.4141 77.9338 28.0137C77.9338 29.0433 77.5152 29.8352 76.6893 30.4009C75.8634 30.9553 74.7433 31.2381 73.3517 31.2381C72.1298 31.2381 70.8853 31.0571 69.6181 30.6838C68.351 30.3104 67.378 29.8239 66.6992 29.2243L66.7218 33.6254C67.6156 33.9082 68.7696 34.1345 70.1838 34.3042C71.598 34.4739 72.9783 34.5531 74.3247 34.5531ZM74.3926 26.3053C73.5214 26.3053 72.8312 26.0451 72.3221 25.5133C71.8017 24.9816 71.5415 24.3141 71.5415 23.4995C71.5415 22.6623 71.8017 21.9721 72.3221 21.4404C72.8312 20.9086 73.5214 20.6484 74.3926 20.6484C75.2411 20.6484 75.9086 20.9199 76.4177 21.4517C76.9269 21.9834 77.1758 22.6736 77.1758 23.4995C77.1758 24.2801 76.9155 24.9476 76.3951 25.4907C75.8747 26.0338 75.2072 26.3053 74.3926 26.3053ZM90.3224 16.3944C90.8316 15.9305 91.0805 15.3422 91.0805 14.6294C91.0805 13.9053 90.8316 13.3057 90.3224 12.8418C89.8133 12.378 89.1345 12.1517 88.2746 12.1517C87.4148 12.1517 86.736 12.378 86.2381 12.8418C85.729 13.3057 85.4801 13.9053 85.4801 14.6294C85.4801 15.3422 85.729 15.9305 86.2381 16.3944C86.736 16.8583 87.4148 17.0845 88.2746 17.0845C89.1345 17.0845 89.8133 16.8583 90.3224 16.3944ZM91.4538 29.2695C91.1031 27.7195 90.9221 25.7622 90.9221 23.409V20.2072C90.9221 19.1436 90.9786 18.3064 91.0805 17.6842C90.4356 18.148 89.5305 18.3856 88.3425 18.3856C87.1546 18.3856 86.2155 18.148 85.5027 17.6842C85.6046 18.182 85.6611 19.0192 85.6611 20.2072V23.409C85.6611 25.7622 85.4801 27.7195 85.1294 29.2695H91.4538ZM99.3961 29.5976C101.568 29.5976 103.243 29.2695 104.431 28.602C105.619 27.9345 106.207 27.0068 106.207 25.7962C106.218 24.0312 104.6 23.2732 102.802 22.9677C100.369 22.5152 97.5407 22.7301 97.5407 21.9269C97.5407 21.463 98.3666 21.1349 99.7355 21.1349C100.697 21.1349 101.659 21.2593 102.609 21.5196C103.56 21.7798 104.34 22.0626 104.951 22.3681L104.974 18.3969C103.209 17.7068 101.331 17.3561 99.3396 17.3561C97.2691 17.3561 95.6852 17.6842 94.5878 18.3404C93.479 19.0079 92.9246 19.8677 92.9246 20.9312C92.9246 25.2984 101.568 23.3411 101.568 24.9363C101.568 25.4455 100.663 25.7283 99.068 25.7283C98.2195 25.7283 97.1899 25.5812 95.9907 25.2984C94.7801 25.0155 93.7392 24.6648 92.8567 24.2688V28.6246C93.6148 28.8735 94.6669 29.0998 96.0246 29.3035C97.371 29.4958 98.5023 29.5976 99.3961 29.5976ZM114.828 29.5976C115.326 29.5976 115.846 29.5297 116.39 29.4053C116.921 29.2808 117.374 29.1111 117.725 28.9188V24.8458C117.396 25.1739 116.684 25.4228 116.039 25.4228C115.417 25.4228 114.885 25.2418 114.455 24.8684C114.025 24.5064 113.81 23.986 113.81 23.3185V19.2342H117.589V17.6842H113.81V13.0455L108.922 14.324V17.6842H106.863V19.2342H108.922V25.1966C108.922 28.1268 110.891 29.5976 114.828 29.5976ZM126.629 29.5976C127.771 29.5976 128.925 29.4958 130.079 29.3035C131.233 29.0998 132.116 28.8396 132.738 28.5228L132.647 24.7101C132.218 25.1852 131.573 25.5586 130.713 25.8301C129.853 26.1017 128.948 26.2374 128.009 26.2374C126.787 26.2374 125.723 25.9659 124.818 25.4341C123.902 24.9024 123.404 24.2801 123.314 23.5674L123.495 23.4542C124.728 24.3933 126.255 24.7101 128.246 24.7101C131.267 24.7101 132.998 23.6466 132.998 21.5082C132.998 20.6371 132.727 19.8564 132.059 19.1323C131.109 18.0915 129.219 17.3674 126.278 17.3561C123.845 17.3561 121.843 18.0462 120.621 19.1663C119.388 20.2977 118.72 21.7911 118.72 23.4768C118.72 25.3097 119.433 26.7918 120.87 27.9119C122.307 29.0319 124.219 29.5976 126.629 29.5976ZM126.233 23.3863C125.022 23.3863 124.106 23.0922 123.472 22.5039C123.574 21.859 123.868 21.3725 124.332 21.0331C124.796 20.705 125.339 20.5353 125.95 20.5353C127.319 20.5353 128.179 21.1236 128.179 22.04C128.179 22.436 127.986 22.7528 127.602 23.0017C127.217 23.2619 126.764 23.3863 126.233 23.3863ZM141.008 29.2695C140.669 28.3984 140.499 27.233 140.499 25.7736V24.7327C140.499 23.771 140.85 22.979 141.54 22.3455C142.23 21.7119 143.056 21.3951 144.007 21.3951C145.104 21.3951 146.213 21.859 146.801 22.4812V17.7068C146.269 17.4692 145.658 17.3561 144.957 17.3561C142.739 17.3561 141.223 18.8721 140.782 21.5535H140.499V20.8634C140.499 20.309 140.567 19.732 140.714 19.1323C140.85 18.5327 141.054 18.0575 141.314 17.6842H134.684C135.035 19.2342 135.216 20.9425 135.216 22.8093V24.7327C135.216 25.6604 135.17 26.4411 135.091 27.0746C135.012 27.7195 134.876 28.4436 134.684 29.2695H141.008Z" fill="white"/>
</svg>
