<svg width="175" height="70" viewBox="0 0 175 70" fill="none" xmlns="http://www.w3.org/2000/svg">
<path d="M76.2585 10.9624C75.9059 10.5745 75.4357 10.2571 74.848 10.0103C74.2603 9.75168 73.5902 9.62238 72.8379 9.62238C71.733 9.62238 70.9278 9.83396 70.4224 10.2571C69.9169 10.6685 69.6642 11.2328 69.6642 11.9498C69.6642 12.4435 69.7876 12.8314 70.0345 13.1135C70.2813 13.3956 70.6575 13.6307 71.1629 13.8188C71.6801 13.9951 72.3384 14.1714 73.1377 14.3477C74.031 14.5358 74.801 14.7591 75.4475 15.0177C76.094 15.2763 76.5935 15.629 76.9462 16.0756C77.2988 16.5106 77.4751 17.1042 77.4751 17.8565C77.4751 18.6205 77.2812 19.2553 76.8933 19.7607C76.5054 20.2661 75.9705 20.6423 75.2888 20.8891C74.607 21.1242 73.8312 21.2418 72.9614 21.2418C71.0101 21.2418 69.3351 20.6364 67.9363 19.4257L68.5534 18.4207C69.0001 18.8909 69.6113 19.2964 70.3871 19.6373C71.1747 19.9782 72.0445 20.1486 72.9966 20.1486C73.984 20.1486 74.7598 19.9664 75.324 19.602C75.8883 19.2376 76.1704 18.6969 76.1704 17.9799C76.1704 17.4627 76.0293 17.0513 75.7472 16.7457C75.4651 16.4283 75.0419 16.1697 74.4777 15.9698C73.9135 15.77 73.22 15.5761 72.3972 15.388C71.5273 15.1882 70.7927 14.9648 70.1932 14.718C69.6054 14.4711 69.1588 14.1479 68.8531 13.7482C68.5475 13.3486 68.3947 12.8079 68.3947 12.1261C68.3947 11.3503 68.5828 10.6979 68.9589 10.169C69.3468 9.62825 69.8758 9.22272 70.5458 8.95236C71.2158 8.67025 71.9857 8.5292 72.8556 8.5292C73.6784 8.5292 74.4189 8.6585 75.0772 8.9171C75.7355 9.16395 76.3291 9.51658 76.858 9.97501L76.2585 10.9624ZM83.6574 20.6952C83.5164 20.754 83.2578 20.8598 82.8816 21.0126C82.5055 21.1654 82.0706 21.2418 81.5769 21.2418C81.0597 21.2418 80.6071 21.0948 80.2192 20.801C79.8313 20.5071 79.6374 20.0663 79.6374 19.4786V12.9019H78.3679V11.9498H79.6374V8.84657H80.8363V11.9498H82.9522V12.9019H80.8363V19.1436C80.8599 19.4845 80.9774 19.7372 81.189 19.9018C81.4123 20.0546 81.665 20.131 81.9472 20.131C82.2763 20.131 82.5701 20.0781 82.8287 19.9723C83.0991 19.8547 83.2695 19.7725 83.3401 19.7254L83.6574 20.6952ZM85.0673 17.3451V11.9498H86.2663V17.1336C86.2663 19.2141 86.9774 20.2544 88.3997 20.2544C89.105 20.2544 89.7633 20.0252 90.3745 19.5668C90.9975 19.1083 91.4442 18.4971 91.7145 17.733V11.9498H92.9135V19.6902C92.9135 20.0075 93.0545 20.1721 93.3367 20.1839V21.136C93.1956 21.1595 93.0839 21.1713 93.0016 21.1713C92.9311 21.1713 92.8547 21.1713 92.7724 21.1713C92.5256 21.1477 92.314 21.0537 92.1377 20.8891C91.9731 20.7246 91.8908 20.5247 91.8908 20.2897L91.8556 19.0554C91.4559 19.7725 90.9093 20.3308 90.2158 20.7305C89.534 21.1184 88.7935 21.3123 87.9942 21.3123C86.0429 21.3123 85.0673 19.9899 85.0673 17.3451ZM95.0073 16.5693C95.0073 15.6995 95.1836 14.9061 95.5362 14.189C95.9006 13.4602 96.4002 12.8784 97.0349 12.4435C97.6697 12.0086 98.3926 11.7911 99.2037 11.7911C99.9677 11.7911 100.649 11.9968 101.249 12.4082C101.86 12.8079 102.336 13.2957 102.677 13.8717V8.26472H103.876V19.6902C103.876 20.0075 104.017 20.1721 104.299 20.1839V21.136C104.064 21.1713 103.882 21.183 103.753 21.1713C103.494 21.1595 103.271 21.0655 103.083 20.8891C102.906 20.7011 102.818 20.4895 102.818 20.2544V19.3552C102.454 19.9547 101.96 20.4307 101.337 20.7833C100.714 21.136 100.068 21.3123 99.3976 21.3123C98.7629 21.3123 98.1751 21.183 97.6344 20.9244C97.0937 20.6658 96.6235 20.3132 96.2239 19.8665C95.836 19.4198 95.5362 18.9144 95.3246 18.3502C95.1131 17.7742 95.0073 17.1806 95.0073 16.5693ZM102.677 17.9799V15.1412C102.524 14.718 102.277 14.336 101.937 13.9951C101.596 13.6424 101.208 13.3662 100.773 13.1664C100.35 12.9548 99.9266 12.849 99.5034 12.849C98.8451 12.849 98.2692 13.0312 97.7755 13.3956C97.2935 13.7482 96.9174 14.2125 96.647 14.7885C96.3767 15.3527 96.2415 15.9463 96.2415 16.5693C96.2415 17.2276 96.3884 17.8388 96.6823 18.403C96.9879 18.9673 97.3993 19.4198 97.9165 19.7607C98.4337 20.0898 99.0156 20.2544 99.6621 20.2544C100.062 20.2544 100.479 20.1545 100.914 19.9547C101.361 19.7431 101.749 19.4668 102.078 19.126C102.419 18.7851 102.618 18.403 102.677 17.9799ZM110.56 21.3123C109.678 21.3123 108.891 21.0948 108.197 20.6599C107.504 20.225 106.957 19.6432 106.557 18.9144C106.158 18.1856 105.958 17.3863 105.958 16.5164C105.958 15.6584 106.152 14.8708 106.54 14.1538C106.939 13.4367 107.486 12.8666 108.18 12.4435C108.873 12.0086 109.661 11.7911 110.542 11.7911C111.447 11.7911 112.241 12.0086 112.922 12.4435C113.604 12.8784 114.133 13.4544 114.509 14.1714C114.897 14.8767 115.091 15.6525 115.091 16.4988C115.091 16.6869 115.085 16.8456 115.074 16.9749H107.21C107.269 17.6331 107.457 18.2209 107.774 18.7381C108.091 19.2435 108.497 19.649 108.991 19.9547C109.484 20.2485 110.025 20.3954 110.613 20.3954C111.212 20.3954 111.776 20.2426 112.305 19.937C112.834 19.6314 113.21 19.2317 113.434 18.7381L114.474 19.0202C114.286 19.4668 113.992 19.8665 113.592 20.2191C113.205 20.56 112.752 20.8304 112.235 21.0302C111.718 21.2183 111.159 21.3123 110.56 21.3123ZM107.174 16.1109H113.963C113.916 15.4526 113.734 14.8708 113.416 14.3653C113.099 13.8481 112.693 13.4485 112.2 13.1664C111.706 12.8725 111.159 12.7256 110.56 12.7256C109.96 12.7256 109.414 12.8725 108.92 13.1664C108.426 13.4485 108.021 13.8481 107.703 14.3653C107.398 14.8708 107.222 15.4526 107.174 16.1109ZM124.664 21.136H123.465V16.0051C123.465 14.9237 123.3 14.1361 122.971 13.6424C122.654 13.137 122.16 12.8843 121.49 12.8843C121.02 12.8843 120.556 13.0018 120.097 13.2369C119.639 13.4602 119.233 13.7717 118.881 14.1714C118.54 14.5593 118.293 15.006 118.14 15.5114V21.136H116.941V11.9498H118.034V14.0303C118.399 13.3603 118.933 12.8196 119.639 12.4082C120.344 11.9968 121.108 11.7911 121.931 11.7911C122.613 11.7911 123.153 11.9557 123.553 12.2848C123.953 12.6022 124.235 13.0606 124.399 13.6601C124.576 14.2478 124.664 14.9472 124.664 15.7583V21.136ZM131.542 20.6952C131.401 20.754 131.143 20.8598 130.767 21.0126C130.39 21.1654 129.956 21.2418 129.462 21.2418C128.945 21.2418 128.492 21.0948 128.104 20.801C127.716 20.5071 127.522 20.0663 127.522 19.4786V12.9019H126.253V11.9498H127.522V8.84657H128.721V11.9498H130.837V12.9019H128.721V19.1436C128.745 19.4845 128.862 19.7372 129.074 19.9018C129.297 20.0546 129.55 20.131 129.832 20.131C130.161 20.131 130.455 20.0781 130.714 19.9723C130.984 19.8547 131.155 19.7725 131.225 19.7254L131.542 20.6952ZM77.8278 30.7105H73.3669V42.136H72.1327V30.7105H67.6718V29.6174H77.8278V30.7105ZM81.4431 42.3123C80.5615 42.3123 79.774 42.0948 79.0805 41.6599C78.3869 41.225 77.8403 40.6432 77.4407 39.9144C77.041 39.1856 76.8412 38.3863 76.8412 37.5164C76.8412 36.6584 77.0352 35.8708 77.4231 35.1538C77.8227 34.4367 78.3693 33.8666 79.0628 33.4435C79.7563 33.0086 80.5439 32.7911 81.4255 32.7911C82.3306 32.7911 83.124 33.0086 83.8058 33.4435C84.4876 33.8784 85.0165 34.4544 85.3927 35.1714C85.7806 35.8767 85.9745 36.6525 85.9745 37.4988C85.9745 37.6869 85.9686 37.8456 85.9569 37.9749H78.0931C78.1518 38.6331 78.3399 39.2209 78.6573 39.7381C78.9747 40.2435 79.3802 40.649 79.8739 40.9547C80.3676 41.2485 80.9083 41.3954 81.496 41.3954C82.0955 41.3954 82.6597 41.2426 83.1887 40.937C83.7176 40.6314 84.0938 40.2317 84.3171 39.7381L85.3574 40.0202C85.1693 40.4668 84.8755 40.8665 84.4758 41.2191C84.0879 41.56 83.6354 41.8304 83.1182 42.0302C82.601 42.2183 82.0426 42.3123 81.4431 42.3123ZM78.0578 37.1109H84.8461C84.7991 36.4526 84.6169 35.8708 84.2995 35.3653C83.9821 34.8481 83.5766 34.4485 83.0829 34.1664C82.5892 33.8725 82.0426 33.7256 81.4431 33.7256C80.8436 33.7256 80.2971 33.8725 79.8034 34.1664C79.3097 34.4485 78.9041 34.8481 78.5868 35.3653C78.2811 35.8708 78.1048 36.4526 78.0578 37.1109ZM91.8092 42.3123C90.9158 42.3123 90.1224 42.0948 89.4288 41.6599C88.7353 41.2133 88.1887 40.6314 87.7891 39.9144C87.3894 39.1856 87.1896 38.3863 87.1896 37.5164C87.1896 36.6466 87.3836 35.859 87.7715 35.1538C88.1594 34.4367 88.7001 33.8666 89.3936 33.4435C90.0871 33.0086 90.8864 32.7911 91.7915 32.7911C92.6496 32.7911 93.4019 32.9909 94.0484 33.3906C94.7067 33.7785 95.2003 34.3074 95.5295 34.9774L94.3658 35.3477C94.1072 34.8775 93.7428 34.5131 93.2726 34.2545C92.8142 33.9842 92.3028 33.849 91.7386 33.849C91.1156 33.849 90.5514 34.0077 90.046 34.3251C89.5523 34.6424 89.1526 35.0832 88.847 35.6475C88.5531 36.1999 88.4062 36.8229 88.4062 37.5164C88.4062 38.21 88.559 38.8388 88.8646 39.403C89.1702 39.9673 89.5758 40.4198 90.0812 40.7607C90.5867 41.0898 91.145 41.2544 91.7563 41.2544C92.1559 41.2544 92.5438 41.1839 92.92 41.0428C93.2961 40.9018 93.6194 40.7137 93.8897 40.4786C94.1601 40.2317 94.3423 39.9673 94.4363 39.6852L95.6176 40.0378C95.4531 40.4727 95.1827 40.8665 94.8066 41.2191C94.4304 41.56 93.9837 41.8304 93.4665 42.0302C92.9493 42.2183 92.3969 42.3123 91.8092 42.3123ZM105.224 42.136H104.025V37.0051C104.025 34.9246 103.32 33.8843 101.909 33.8843C101.451 33.8843 101.004 34.0018 100.569 34.2369C100.134 34.4602 99.7463 34.7717 99.4055 35.1714C99.0763 35.5593 98.8412 36.006 98.7002 36.5114V42.136H97.5012V29.2647H98.7002V35.0303C99.0646 34.3486 99.57 33.8079 100.217 33.4082C100.875 32.9968 101.574 32.7911 102.315 32.7911C103.02 32.7911 103.584 32.9615 104.007 33.3024C104.431 33.6315 104.736 34.0959 104.924 34.6953C105.124 35.2831 105.224 35.9707 105.224 36.7583V42.136ZM115.503 42.136H114.305V37.0051C114.305 35.9237 114.14 35.1361 113.811 34.6424C113.493 34.137 113 33.8843 112.33 33.8843C111.86 33.8843 111.395 34.0018 110.937 34.2369C110.478 34.4602 110.073 34.7717 109.72 35.1714C109.379 35.5593 109.133 36.006 108.98 36.5114V42.136H107.781V32.9498H108.874V35.0303C109.238 34.3603 109.773 33.8196 110.478 33.4082C111.184 32.9968 111.948 32.7911 112.771 32.7911C113.452 32.7911 113.993 32.9557 114.393 33.2848C114.792 33.6022 115.074 34.0606 115.239 34.6601C115.415 35.2478 115.503 35.9472 115.503 36.7583V42.136ZM118.06 31.0279V29.2647H119.259V31.0279H118.06ZM118.06 42.136V32.9498H119.259V42.136H118.06ZM125.885 42.3123C124.991 42.3123 124.198 42.0948 123.505 41.6599C122.811 41.2133 122.264 40.6314 121.865 39.9144C121.465 39.1856 121.265 38.3863 121.265 37.5164C121.265 36.6466 121.459 35.859 121.847 35.1538C122.235 34.4367 122.776 33.8666 123.469 33.4435C124.163 33.0086 124.962 32.7911 125.867 32.7911C126.725 32.7911 127.478 32.9909 128.124 33.3906C128.782 33.7785 129.276 34.3074 129.605 34.9774L128.441 35.3477C128.183 34.8775 127.818 34.5131 127.348 34.2545C126.89 33.9842 126.378 33.849 125.814 33.849C125.191 33.849 124.627 34.0077 124.122 34.3251C123.628 34.6424 123.228 35.0832 122.923 35.6475C122.629 36.1999 122.482 36.8229 122.482 37.5164C122.482 38.21 122.635 38.8388 122.94 39.403C123.246 39.9673 123.651 40.4198 124.157 40.7607C124.662 41.0898 125.221 41.2544 125.832 41.2544C126.232 41.2544 126.619 41.1839 126.996 41.0428C127.372 40.9018 127.695 40.7137 127.965 40.4786C128.236 40.2317 128.418 39.9673 128.512 39.6852L129.693 40.0378C129.529 40.4727 129.258 40.8665 128.882 41.2191C128.506 41.56 128.059 41.8304 127.542 42.0302C127.025 42.2183 126.473 42.3123 125.885 42.3123ZM130.836 39.4912C130.836 38.927 131.001 38.4392 131.33 38.0278C131.659 37.6046 132.112 37.2755 132.688 37.0404C133.275 36.8053 133.951 36.6877 134.715 36.6877C135.162 36.6877 135.626 36.7289 136.108 36.8112C136.59 36.8817 137.019 36.9816 137.395 37.1109V36.3351C137.395 35.5593 137.166 34.9422 136.708 34.4838C136.249 34.0253 135.615 33.7961 134.804 33.7961C134.322 33.7961 133.84 33.8901 133.358 34.0782C132.876 34.2545 132.376 34.519 131.859 34.8717L131.401 34.0253C132 33.6139 132.588 33.3083 133.164 33.1085C133.74 32.8969 134.327 32.7911 134.927 32.7911C136.055 32.7911 136.949 33.1143 137.607 33.7608C138.265 34.4074 138.594 35.3007 138.594 36.4409V40.6902C138.594 41.0075 138.741 41.1721 139.035 41.1839V42.136C138.777 42.1713 138.594 42.183 138.489 42.1713C138.195 42.1595 137.971 42.0655 137.819 41.8891C137.666 41.7128 137.583 41.5247 137.572 41.3249L137.554 40.6549C137.143 41.1839 136.608 41.5953 135.95 41.8891C135.291 42.1713 134.621 42.3123 133.94 42.3123C133.34 42.3123 132.805 42.1889 132.335 41.942C131.865 41.6834 131.495 41.3426 131.224 40.9194C130.966 40.4845 130.836 40.0084 130.836 39.4912ZM136.99 40.1965C137.26 39.8791 137.395 39.5852 137.395 39.3149V37.9749C136.584 37.6575 135.738 37.4988 134.856 37.4988C133.998 37.4988 133.305 37.6692 132.776 38.0101C132.247 38.351 131.982 38.8153 131.982 39.403C131.982 39.9085 132.176 40.3669 132.564 40.7783C132.964 41.1897 133.516 41.3954 134.222 41.3954C134.798 41.3954 135.332 41.2838 135.826 41.0604C136.332 40.8371 136.719 40.5491 136.99 40.1965ZM141.238 29.2647H142.437V40.0554C142.437 40.5139 142.513 40.8136 142.666 40.9547C142.83 41.0957 143.036 41.1662 143.283 41.1662C143.495 41.1662 143.706 41.1427 143.918 41.0957C144.141 41.0487 144.323 41.0017 144.464 40.9547L144.676 41.9244C144.453 42.0184 144.176 42.0948 143.847 42.1536C143.53 42.2124 143.254 42.2418 143.019 42.2418C142.478 42.2418 142.043 42.0831 141.714 41.7657C141.396 41.4483 141.238 41.0134 141.238 40.461V29.2647ZM68.1126 56.7885C68.1126 56.0362 68.2419 55.2898 68.5005 54.5493C68.7709 53.8087 69.1588 53.1387 69.6642 52.5392C70.1697 51.928 70.7927 51.4461 71.5332 51.0934C72.2737 50.729 73.1142 50.5468 74.0545 50.5468C75.1595 50.5468 76.1116 50.8054 76.9109 51.3226C77.7102 51.8281 78.298 52.4805 78.6741 53.2798L77.7043 53.8793C77.434 53.3268 77.0931 52.8919 76.6817 52.5745C76.2703 52.2454 75.8295 52.0103 75.3593 51.8692C74.9009 51.7282 74.4425 51.6576 73.984 51.6576C73.2317 51.6576 72.5676 51.8104 71.9916 52.1161C71.4156 52.4099 70.9278 52.8096 70.5282 53.315C70.1403 53.8205 69.8464 54.3788 69.6466 54.9901C69.4468 55.6013 69.3468 56.2243 69.3468 56.859C69.3468 57.5526 69.4644 58.2167 69.6995 58.8514C69.9346 59.4744 70.2637 60.0328 70.6869 60.5265C71.11 61.0202 71.6037 61.4139 72.1679 61.7078C72.7439 61.9899 73.3669 62.131 74.0369 62.131C74.5071 62.131 74.989 62.0487 75.4827 61.8841C75.9764 61.7196 76.4349 61.4668 76.858 61.126C77.2812 60.7851 77.6279 60.3443 77.8983 59.8036L78.9209 60.3325C78.6506 60.9555 78.2451 61.4845 77.7043 61.9194C77.1754 62.3543 76.5759 62.6834 75.9059 62.9068C75.2476 63.1301 74.6011 63.2418 73.9664 63.2418C73.1083 63.2418 72.3207 63.0596 71.6037 62.6952C70.8867 62.319 70.2637 61.8254 69.7347 61.2141C69.2175 60.5911 68.8179 59.8976 68.5358 59.1336C68.2537 58.3577 68.1126 57.5761 68.1126 56.7885ZM84.6962 63.3123C83.8146 63.3123 83.0271 63.0948 82.3335 62.6599C81.6518 62.225 81.1169 61.649 80.729 60.932C80.3411 60.2032 80.1472 59.4157 80.1472 58.5693C80.1472 57.7112 80.3411 56.9237 80.729 56.2067C81.1287 55.4779 81.6694 54.896 82.3512 54.4611C83.0447 54.0144 83.8264 53.7911 84.6962 53.7911C85.5778 53.7911 86.3595 54.0144 87.0412 54.4611C87.7348 54.896 88.2755 55.4779 88.6634 56.2067C89.063 56.9237 89.2629 57.7112 89.2629 58.5693C89.2629 59.4157 89.0689 60.2032 88.681 60.932C88.2931 61.649 87.7524 62.225 87.0589 62.6599C86.3771 63.0948 85.5896 63.3123 84.6962 63.3123ZM81.3638 58.587C81.3638 59.2687 81.5107 59.8917 81.8046 60.4559C82.1102 61.0084 82.5157 61.4492 83.0212 61.7783C83.5266 62.0957 84.085 62.2544 84.6962 62.2544C85.3074 62.2544 85.8658 62.0898 86.3712 61.7607C86.8767 61.4316 87.2822 60.9849 87.5878 60.4207C87.8935 59.8565 88.0463 59.2335 88.0463 58.5517C88.0463 57.8699 87.8935 57.2469 87.5878 56.6827C87.2822 56.1185 86.8767 55.6718 86.3712 55.3427C85.8658 55.0136 85.3074 54.849 84.6962 54.849C84.0967 54.849 83.5443 55.0194 83.0388 55.3603C82.5334 55.6895 82.1278 56.1361 81.8222 56.7004C81.5166 57.2646 81.3638 57.8934 81.3638 58.587ZM104.933 63.136H103.734V58.0051C103.734 56.9472 103.563 56.1655 103.222 55.6601C102.882 55.1429 102.376 54.8843 101.706 54.8843C101.001 54.8843 100.378 55.1311 99.8372 55.6248C99.2965 56.1185 98.9144 56.7532 98.6911 57.5291V63.136H97.4921V58.0051C97.4921 56.9237 97.3217 56.1361 96.9808 55.6424C96.6517 55.137 96.1521 54.8843 95.4821 54.8843C94.7886 54.8843 94.1656 55.1252 93.6131 55.6072C93.0724 56.0891 92.6904 56.7239 92.467 57.5114V63.136H91.2681V53.9498H92.3612V56.0303C92.7374 55.3251 93.2311 54.7785 93.8423 54.3906C94.4536 53.9909 95.1295 53.7911 95.87 53.7911C96.634 53.7911 97.2512 54.0144 97.7213 54.4611C98.1915 54.896 98.4795 55.4602 98.5853 56.1538C99.4316 54.5787 100.613 53.7911 102.129 53.7911C103.164 53.7911 103.887 54.1555 104.298 54.8843C104.721 55.6013 104.933 56.5593 104.933 57.7583V63.136ZM121.135 63.136H119.937V58.0051C119.937 56.9472 119.766 56.1655 119.425 55.6601C119.084 55.1429 118.579 54.8843 117.909 54.8843C117.204 54.8843 116.581 55.1311 116.04 55.6248C115.499 56.1185 115.117 56.7532 114.894 57.5291V63.136H113.695V58.0051C113.695 56.9237 113.524 56.1361 113.184 55.6424C112.854 55.137 112.355 54.8843 111.685 54.8843C110.991 54.8843 110.368 55.1252 109.816 55.6072C109.275 56.0891 108.893 56.7239 108.67 57.5114V63.136H107.471V53.9498H108.564V56.0303C108.94 55.3251 109.434 54.7785 110.045 54.3906C110.656 53.9909 111.332 53.7911 112.073 53.7911C112.837 53.7911 113.454 54.0144 113.924 54.4611C114.394 54.896 114.682 55.4602 114.788 56.1538C115.634 54.5787 116.816 53.7911 118.332 53.7911C119.366 53.7911 120.089 54.1555 120.501 54.8843C120.924 55.6013 121.135 56.5593 121.135 57.7583V63.136ZM123.585 59.3451V53.9498H124.784V59.1336C124.784 61.2141 125.495 62.2544 126.918 62.2544C127.623 62.2544 128.281 62.0252 128.893 61.5668C129.516 61.1083 129.962 60.4971 130.233 59.733V53.9498H131.432V61.6902C131.432 62.0075 131.573 62.1721 131.855 62.1839V63.136C131.714 63.1595 131.602 63.1713 131.52 63.1713C131.449 63.1713 131.373 63.1713 131.29 63.1713C131.044 63.1477 130.832 63.0537 130.656 62.8891C130.491 62.7246 130.409 62.5247 130.409 62.2897L130.374 61.0554C129.974 61.7725 129.427 62.3308 128.734 62.7305C128.052 63.1184 127.312 63.3123 126.512 63.3123C124.561 63.3123 123.585 61.9899 123.585 59.3451ZM141.865 63.136H140.666V58.0051C140.666 56.9237 140.502 56.1361 140.173 55.6424C139.855 55.137 139.361 54.8843 138.691 54.8843C138.221 54.8843 137.757 55.0018 137.299 55.2369C136.84 55.4602 136.435 55.7717 136.082 56.1714C135.741 56.5593 135.494 57.006 135.341 57.5114V63.136H134.142V53.9498H135.236V56.0303C135.6 55.3603 136.135 54.8196 136.84 54.4082C137.545 53.9968 138.309 53.7911 139.132 53.7911C139.814 53.7911 140.355 53.9557 140.754 54.2848C141.154 54.6022 141.436 55.0606 141.601 55.6601C141.777 56.2478 141.865 56.9472 141.865 57.7583V63.136ZM144.422 52.0279V50.2647H145.621V52.0279H144.422ZM144.422 63.136V53.9498H145.621V63.136H144.422ZM152.67 62.6952C152.529 62.754 152.27 62.8598 151.894 63.0126C151.518 63.1654 151.083 63.2418 150.589 63.2418C150.072 63.2418 149.619 63.0948 149.231 62.801C148.844 62.5071 148.65 62.0663 148.65 61.4786V54.9019H147.38V53.9498H148.65V50.8466H149.849V53.9498H151.964V54.9019H149.849V61.1436C149.872 61.4845 149.99 61.7372 150.201 61.9018C150.425 62.0546 150.677 62.131 150.959 62.131C151.289 62.131 151.582 62.0781 151.841 61.9723C152.111 61.8547 152.282 61.7725 152.352 61.7254L152.67 62.6952ZM154.697 65.9571C154.861 65.9688 155.02 65.9747 155.173 65.9747C155.326 65.9865 155.437 65.9806 155.508 65.9571C155.649 65.9453 155.778 65.863 155.896 65.7102C156.025 65.5692 156.178 65.2988 156.354 64.8992C156.542 64.5113 156.795 63.9235 157.112 63.136L153.11 53.9498H154.379L157.747 61.9018L160.85 53.9498H162.049L157.289 65.7984C157.159 66.1393 156.942 66.4331 156.636 66.68C156.331 66.9268 155.925 67.0561 155.42 67.0679C155.314 67.0796 155.202 67.0796 155.085 67.0679C154.967 67.0679 154.838 67.0561 154.697 67.0326V65.9571Z" fill="white"/>
<path d="M28.4775 1.01685L1.46484 12.6054" stroke="white" stroke-width="1.82837"/>
<path d="M54.6816 12.6926L27.9102 1" stroke="white" stroke-width="1.82837"/>
<path d="M1.70728 12.0686V31.724" stroke="white" stroke-width="1.82837"/>
<path d="M27.9427 57.9182L1.49854 46.5205" stroke="white" stroke-width="1.82837"/>
<path d="M54.7002 46.3826L27.5498 57.9191" stroke="white" stroke-width="1.82837"/>
<path d="M27.7876 42.5489L1.34351 31.1338" stroke="white" stroke-width="1.82837"/>
<path d="M53.9924 30.9602L27.4622 42.6528" stroke="white" stroke-width="1.82837"/>
<path d="M54.3015 30.3877V46.9378" stroke="white" stroke-width="1.82837"/>
<path d="M27.7383 58.0932V16.2842" stroke="white" stroke-width="1.82837"/>
<path d="M12.301 15.9893H43.0865" stroke="white" stroke-width="1.82837"/>
<path d="M1 46.5569L8.56285 42.9485" stroke="white" stroke-width="1.82837"/>
<path d="M54.3555 12.1731V19.7889" stroke="white" stroke-width="1.82837"/>
<path d="M54.3358 23.0665C54.7639 23.0665 55.111 22.7169 55.111 22.2858C55.111 21.8546 54.7639 21.5051 54.3358 21.5051C53.9076 21.5051 53.5605 21.8546 53.5605 22.2858C53.5605 22.7169 53.9076 23.0665 54.3358 23.0665Z" fill="white"/>
</svg>
