<svg width="120" height="63" viewBox="0 0 120 63" fill="none" xmlns="http://www.w3.org/2000/svg">
<path d="M4.32386 18.033C6.71226 8.07366 16.7221 1.93618 26.6814 4.32458L116.774 25.93C118.444 26.3306 119.474 28.0097 119.073 29.6803L111.875 59.6966C111.474 61.3672 109.795 62.3967 108.125 61.996L18.0323 40.3906C8.07293 38.0022 1.93546 27.9924 4.32386 18.033Z" fill="#FEB913"/>
<path d="M6.58324 18.4512C8.7128 9.5712 17.6378 4.09886 26.5179 6.22842L115.168 27.4881C116.209 27.7377 116.851 28.7841 116.601 29.8251L109.794 58.2126C109.544 59.2537 108.498 59.8952 107.457 59.6455L18.8061 38.3859C9.92601 36.2563 4.45368 27.3313 6.58324 18.4512Z" stroke="black" stroke-width="0.908734"/>
<path d="M13.3706 23.9994C13.9358 24.1349 14.4529 24.1859 14.9228 24.148C15.3874 24.1134 15.779 23.9837 16.1029 23.7557C16.4258 23.532 16.6327 23.2211 16.7289 22.8198C16.9752 21.7929 16.2649 21.2347 15.4193 20.822C14.363 20.3177 13.1012 20.0425 13.2535 19.4265C13.3414 19.0598 13.8768 18.9965 14.6664 19.1859C15.0979 19.2893 15.5062 19.4512 15.8968 19.668C16.2874 19.8849 16.5845 20.1113 16.7977 20.3449L17.224 18.5672C16.9715 18.3835 16.6414 18.1994 16.2383 18.016C15.8307 17.8316 15.4182 17.687 14.9954 17.5856C13.3771 17.1793 11.9427 17.6429 11.6795 18.8164C11.1135 21.1766 15.3723 21.1895 15.1312 22.1948C15.0273 22.5897 14.424 22.6321 13.6882 22.4465C13.192 22.3275 12.7091 22.1342 12.2308 21.8643C11.7525 21.5945 11.3728 21.2753 11.0862 20.9099L10.5679 22.7477C10.92 22.9919 11.3679 23.2362 11.9159 23.4817C12.4639 23.7272 12.9477 23.8979 13.3706 23.9994ZM20.5416 25.5868C20.5309 25.137 20.6227 24.5065 20.8183 23.691L21.4692 20.977L22.4314 21.2077C22.8456 21.3071 23.1851 21.4706 23.4552 21.6951L23.6263 19.7832L18.4312 18.5373L17.7122 20.3178C18.0634 20.2424 18.4445 20.2516 18.8544 20.3499L19.8511 20.5889L19.2002 23.303C19.014 24.0797 18.8142 24.6843 18.6 25.1211L20.5416 25.5868ZM26.3323 27.1078C26.8329 27.2278 27.2866 27.2956 27.6979 27.312C28.1048 27.3275 28.5125 27.3021 28.9241 27.2411L29.3711 25.3771C29.0638 25.5361 28.701 25.6407 28.2935 25.6845C27.8807 25.7315 27.4586 25.7032 27.0314 25.6008C26.6172 25.5015 26.2606 25.3521 25.9606 25.1569C25.6563 24.9607 25.4322 24.7154 25.2894 24.4165C25.1413 24.1209 25.1092 23.7983 25.193 23.4488C25.312 22.9526 25.6153 22.601 26.102 22.3983C26.5886 22.1956 27.1556 22.1718 27.8071 22.3281C28.1437 22.4088 28.4602 22.5349 28.76 22.7117C29.0598 22.8886 29.2963 23.0822 29.4791 23.2903L29.9179 21.5749C29.6869 21.3963 29.3937 21.2302 29.0359 21.0668C28.6781 20.9034 28.2937 20.7747 27.8924 20.6785C27.146 20.4995 26.398 20.4981 25.7037 20.7103C25.3549 20.8137 25.04 20.9663 24.7556 21.1628C24.1815 21.559 23.7261 22.2209 23.5274 23.0494C23.0163 25.1809 24.4942 26.667 26.3323 27.1078ZM33.953 23.624C34.2248 23.6892 34.4538 23.6665 34.6497 23.5538C34.8445 23.4454 34.9667 23.2785 35.0215 23.0498C35.0764 22.8211 35.0442 22.6126 34.9208 22.4233C34.7974 22.234 34.6035 22.11 34.3317 22.0448C34.0685 21.9816 33.8395 22.0043 33.6436 22.117C33.4477 22.2298 33.3202 22.3999 33.2654 22.6286C33.2116 22.853 33.2491 23.0582 33.3725 23.2475C33.4959 23.4368 33.6898 23.5609 33.953 23.624ZM33.758 28.7562C33.7493 28.2978 33.8411 27.6674 34.0346 26.8605L34.433 25.1993C34.523 24.8239 34.616 24.5313 34.7097 24.312C34.4878 24.4002 34.1918 24.3977 33.8164 24.3076C33.441 24.2176 33.1631 24.0825 32.9794 23.897C32.9748 24.0876 32.924 24.3948 32.8236 24.8133L32.4252 26.4745C32.2317 27.2814 32.0276 27.885 31.812 28.2895L33.758 28.7562ZM36.7354 29.6026C37.4689 29.7785 38.0738 29.7867 38.5458 29.6261C39.0178 29.4655 39.3088 29.1657 39.4153 28.7212C39.8137 27.06 36.4597 27.004 36.6294 26.2964C36.6873 26.0547 37.0741 25.9832 37.6436 26.1198C37.9888 26.2026 38.3237 26.3285 38.6428 26.5009C38.9619 26.6732 39.21 26.8377 39.3955 26.9962L39.6884 25.7751C39.1238 25.3705 38.4979 25.0881 37.8119 24.9236C37.1086 24.7549 36.5338 24.754 36.0791 24.9187C35.6244 25.0834 35.3526 25.3605 35.2584 25.7531C35.0556 26.5988 35.7937 27.0222 36.564 27.3302C37.33 27.6371 38.1239 27.8275 38.0318 28.2115C37.9656 28.4876 37.5916 28.544 36.9142 28.3815C36.5906 28.3039 36.2276 28.1621 35.822 27.9507C35.412 27.7384 35.0763 27.521 34.8105 27.2975L34.4908 28.6308C34.741 28.8049 35.0937 28.9898 35.5476 29.19C36.0026 29.3858 36.3988 29.5219 36.7354 29.6026ZM44.6359 31.4972C45.0113 31.5872 45.4546 31.5841 45.7337 31.505L46.0338 30.2537C45.8634 30.336 45.5666 30.3561 45.2861 30.2888C44.7209 30.1533 44.4525 29.7695 44.5984 29.1611L44.9967 27.4999L46.5587 27.8745L46.7222 27.1927L45.1602 26.8181L45.5845 25.0491L43.991 25.0913L43.663 26.4591L42.7741 26.2459L42.6106 26.9277L43.4995 27.1408L42.9676 29.3587C42.6686 30.6056 43.4924 31.223 44.6359 31.4972ZM48.3249 32.2496C48.3007 32.0841 48.3124 31.845 48.361 31.5282C48.4086 31.2156 48.4649 30.9234 48.5291 30.6559L48.6777 29.9979C48.7554 29.6743 48.9401 29.4175 49.2311 29.2317C49.5177 29.045 49.8401 28.9945 50.1896 29.0783C50.867 29.2408 51.1628 29.7771 50.992 30.4891L50.8254 31.1838C50.693 31.7361 50.5107 32.249 50.2795 32.7183L52.2039 33.1798C52.2111 32.6933 52.2969 32.107 52.4635 31.4123L52.6591 30.5968C52.8091 29.9712 52.7534 29.4422 52.4931 29.0056C52.2328 28.569 51.7833 28.2741 51.149 28.122C50.2559 27.9078 49.5568 28.1782 49.0484 28.9278L48.9492 28.904L49.1955 27.8771C49.3828 27.0961 49.5868 26.4926 49.8087 26.0621L47.8757 25.5985C47.879 26.0602 47.7828 26.6896 47.5904 27.4922L46.9964 29.9689C46.8039 30.7715 46.6042 31.3761 46.3918 31.786L48.3249 32.2496ZM55.889 34.1959C56.2989 34.2942 56.7224 34.3547 57.1649 34.3741C57.6074 34.3935 57.9505 34.3709 58.2006 34.2985L58.4624 33.0928C58.2613 33.2271 57.9823 33.3062 57.6252 33.3301C57.2671 33.3582 56.9052 33.3262 56.5427 33.2393C55.5462 33.0186 54.7949 32.2315 54.941 31.5273L55.014 31.5083C55.4067 31.9447 55.9887 32.2577 56.7611 32.4429C58.0081 32.742 58.7441 32.5078 58.9479 31.6578C59.0483 31.2393 58.9485 30.8183 58.6402 30.4296C58.3276 30.0397 57.7076 29.6949 56.8619 29.492C55.9989 29.2851 55.2119 29.3701 54.6488 29.6823C54.0857 29.9944 53.6925 30.5115 53.5363 31.1631C53.3697 31.8578 53.4983 32.4818 53.9256 33.0406C54.3528 33.5993 55.0044 33.9838 55.889 34.1959ZM56.3055 31.7359C55.7661 31.6066 55.3669 31.3876 55.0981 31.0814C55.2172 30.8133 55.408 30.6264 55.675 30.5216C55.9409 30.4211 56.2228 30.4065 56.5205 30.4779C56.8441 30.5555 57.0885 30.678 57.2623 30.8475C57.4351 31.0212 57.4961 31.2047 57.4495 31.3988C57.3553 31.7915 56.8017 31.8549 56.3055 31.7359ZM63.3407 35.9829C64.0742 36.1588 64.6791 36.167 65.1511 36.0064C65.6231 35.8458 65.914 35.546 66.0206 35.1016C66.419 33.4403 63.0649 33.3843 63.2346 32.6767C63.2926 32.4351 63.6793 32.3635 64.2489 32.5001C64.5941 32.5829 64.9289 32.7088 65.2481 32.8812C65.5672 33.0536 65.8153 33.218 66.0008 33.3766L66.2936 32.1555C65.729 31.7508 65.1032 31.4684 64.4171 31.3039C63.7138 31.1352 63.1391 31.1343 62.6844 31.299C62.2296 31.4638 61.9579 31.7408 61.8637 32.1335C61.6609 32.9792 62.3989 33.4026 63.1692 33.7105C63.9352 34.0174 64.7292 34.2078 64.6371 34.5918C64.5708 34.868 64.1969 34.9243 63.5194 34.7618C63.1958 34.6842 62.8328 34.5424 62.4272 34.3311C62.0173 34.1187 61.6816 33.9013 61.4158 33.6778L61.096 35.0111C61.3463 35.1852 61.6989 35.3702 62.1529 35.5703C62.6078 35.7661 63.0041 35.9022 63.3407 35.9829ZM68.9715 37.3333C69.3469 37.4233 69.7903 37.4201 70.0694 37.341L70.3694 36.0897C70.1991 36.1721 69.9023 36.1921 69.6218 36.1249C69.0566 35.9893 68.7881 35.6055 68.934 34.9971L69.3324 33.3359L70.8944 33.7105L71.0579 33.0288L69.4959 32.6542L69.9201 30.8851L68.3267 30.9273L67.9987 32.2951L67.1098 32.082L66.9463 32.7637L67.8352 32.9769L67.3033 35.1947C67.0042 36.4417 67.8281 37.0591 68.9715 37.3333ZM72.3069 38.1331C73.1828 38.3432 73.8524 38.1387 74.202 37.6704L74.2969 37.6932L74.2783 37.7709C74.209 38.06 74.1174 38.2707 73.9981 38.4064L75.806 38.84C75.7805 38.6422 75.7858 38.4107 75.8253 38.151C75.8604 37.8902 75.9365 37.516 76.0513 37.0371L76.311 35.9541C76.4362 35.432 76.3242 34.967 76.0649 34.6402C75.9352 34.4768 75.7649 34.331 75.5558 34.1942C75.1357 33.9291 74.6864 33.7666 74.1298 33.6332C73.8019 33.5545 73.4269 33.5011 73.0101 33.4696C72.5879 33.4413 72.2693 33.4379 72.0532 33.4637L71.8049 34.4993C71.9752 34.4169 72.2288 34.3682 72.5601 34.3564C72.8915 34.3446 73.2298 34.3801 73.5706 34.4618C74.0021 34.5653 74.3256 34.7387 74.541 34.982C74.7511 35.2286 74.8153 35.5315 74.7274 35.8982L74.6063 36.4031L74.4941 36.3762C74.442 36.099 74.2931 35.8443 74.0423 35.6153C73.7915 35.3863 73.4574 35.2195 73.0302 35.1171C72.4563 34.9794 71.9734 35.0142 71.5826 35.2171C71.1917 35.4199 70.9451 35.7441 70.8406 36.1799C70.7361 36.6157 70.8088 37.0164 71.0642 37.3788C71.3184 37.7455 71.733 37.9955 72.3069 38.1331ZM73.2096 37.4325C72.5753 37.2803 72.2618 36.9131 72.357 36.5162C72.4512 36.1235 72.895 35.9471 73.5293 36.0992C73.8443 36.1747 74.0877 36.3015 74.2541 36.4829C74.4205 36.6642 74.4825 36.8434 74.4411 37.016C74.3417 37.4302 73.8698 37.5908 73.2096 37.4325ZM78.6668 39.526C78.6469 39.3615 78.6639 39.1192 78.7093 38.797C78.7546 38.4748 78.81 38.1869 78.871 37.9323L79.0283 37.2764C79.1059 36.9528 79.2897 36.7003 79.5773 36.5092C79.864 36.3224 80.182 36.2709 80.5315 36.3547C81.2176 36.5193 81.5133 37.0556 81.3426 37.7676L81.176 38.4623C81.0435 39.0146 80.8612 39.5275 80.63 39.9968L82.5544 40.4583C82.5616 39.9718 82.6475 39.3855 82.814 38.6908L83.0096 37.8753C83.1597 37.2497 83.104 36.7207 82.8437 36.2841C82.579 35.8465 82.1339 35.5526 81.4996 35.4005C80.6107 35.1874 79.9073 35.4567 79.3904 36.2043L79.2911 36.1805L79.3336 36.0036C79.4236 35.6282 79.5638 35.3287 79.7523 35.1138L77.802 34.6461C77.797 35.1423 77.7174 35.7027 77.5674 36.3283L77.258 37.6185C77.1338 38.1363 76.963 38.62 76.7424 39.0645L78.6668 39.526ZM85.3938 41.2716C85.8512 41.3812 86.2621 41.3612 86.6319 41.208C87.0007 41.0592 87.2998 40.8206 87.5334 40.4933L87.6369 40.5182L87.5924 40.7037C87.519 41.0101 87.3937 41.304 87.2188 41.5769L89.1432 42.0384C89.15 41.5153 89.2429 40.8805 89.4199 40.1427L90.0138 37.6659C90.1908 36.9281 90.3959 36.3202 90.627 35.8509L88.7026 35.3894C88.6789 35.945 88.5827 36.5744 88.413 37.2821L88.1667 38.309L88.0718 38.2862C88.0194 37.8767 87.8632 37.5198 87.5934 37.2178C87.3236 36.9158 86.9578 36.7095 86.4962 36.5988C85.836 36.4405 85.2216 36.5669 84.7793 36.908C84.3327 37.2481 84.0042 37.7807 83.848 38.4323C83.7435 38.8681 83.727 39.2793 83.8028 39.6671C83.8743 40.0539 84.0454 40.387 84.3183 40.676C84.5902 40.9693 84.9494 41.165 85.3938 41.2716ZM86.332 40.3467C85.948 40.2546 85.6652 40.0636 85.4838 39.7737C85.3024 39.4838 85.2529 39.1571 85.3409 38.7903C85.4268 38.4322 85.619 38.1634 85.9122 37.9873C86.2054 37.8112 86.544 37.7692 86.928 37.8613C87.2948 37.9493 87.5646 38.1372 87.7406 38.4304C87.9167 38.7236 87.9629 39.0449 87.878 39.3987C87.7983 39.731 87.6125 39.9921 87.3152 40.1855C87.0179 40.3788 86.6901 40.4326 86.332 40.3467ZM91.7582 42.7978C92.6341 43.0079 93.3037 42.8034 93.6533 42.3351L93.7482 42.3579L93.7296 42.4356C93.6602 42.7247 93.5686 42.9354 93.4494 43.0711L95.2573 43.5047C95.2317 43.3069 95.237 43.0754 95.2765 42.8157C95.3117 42.5549 95.3877 42.1807 95.5026 41.7018L95.7623 40.6187C95.8875 40.0967 95.7754 39.6317 95.5161 39.3049C95.3865 39.1415 95.2161 38.9957 95.0071 38.8588C94.587 38.5938 94.1377 38.4313 93.5811 38.2978C93.2532 38.2192 92.8781 38.1658 92.4613 38.1343C92.0392 38.106 91.7206 38.1026 91.5045 38.1284L91.2562 39.1639C91.4265 39.0816 91.68 39.0329 92.0114 39.0211C92.3428 39.0093 92.681 39.0448 93.0219 39.1265C93.4534 39.23 93.7768 39.4034 93.9923 39.6467C94.2024 39.8933 94.2666 40.1962 94.1787 40.5629L94.0576 41.0678L93.9454 41.0409C93.8932 40.7637 93.7444 40.509 93.4936 40.28C93.2428 40.051 92.9086 39.8842 92.4815 39.7818C91.9076 39.6441 91.4247 39.6789 91.0338 39.8818C90.643 40.0846 90.3964 40.4088 90.2919 40.8446C90.1874 41.2804 90.2601 41.6811 90.5154 42.0435C90.7697 42.4102 91.1843 42.6602 91.7582 42.7978ZM92.6609 42.0971C92.0266 41.945 91.7131 41.5778 91.8083 41.1809C91.9025 40.7882 92.3463 40.6118 92.9806 40.7639C93.2956 40.8394 93.5389 40.9662 93.7053 41.1476C93.8718 41.3289 93.9337 41.5081 93.8924 41.6807C93.793 42.0949 93.321 42.2555 92.6609 42.0971ZM98.118 44.1907C98.0731 43.8833 98.1112 43.4772 98.2312 42.9767L98.4009 42.2691C98.4961 41.8721 98.7192 41.5697 99.0649 41.3651C99.4105 41.1605 99.7759 41.1021 100.156 41.1932C100.341 41.2377 100.518 41.3167 100.68 41.4239C100.841 41.531 100.96 41.6461 101.037 41.7605L101.387 40.3021C101.182 40.1663 100.964 40.0683 100.731 40.0124C99.9153 39.8169 99.1972 40.2424 98.7671 41.1796L98.6679 41.1558L98.7465 40.8279C98.7921 40.6381 98.8612 40.4448 98.9594 40.2447C99.0565 40.049 99.1563 39.8995 99.2596 39.792L97.2532 39.3108C97.2438 39.7877 97.1642 40.3481 97.01 40.991L96.7006 42.2811C96.5702 42.8248 96.3995 43.3086 96.1936 43.7292L98.118 44.1907ZM102.808 45.4479C103.266 45.5575 103.677 45.5374 104.047 45.3843C104.415 45.2355 104.714 44.9969 104.948 44.6696L105.052 44.6945L105.007 44.88C104.934 45.1864 104.808 45.4803 104.633 45.7532L106.558 46.2147C106.565 45.6916 106.658 45.0568 106.835 44.319L107.428 41.8422C107.605 41.1044 107.811 40.4965 108.042 40.0272L106.117 39.5657C106.094 40.1213 105.997 40.7507 105.828 41.4583L105.581 42.4853L105.486 42.4625C105.434 42.053 105.278 41.6961 105.008 41.3941C104.738 41.0921 104.373 40.8858 103.911 40.7751C103.251 40.6167 102.636 40.7432 102.194 41.0843C101.747 41.4244 101.419 41.957 101.263 42.6086C101.158 43.0444 101.142 43.4556 101.217 43.8434C101.289 44.2302 101.46 44.5632 101.733 44.8523C102.005 45.1456 102.364 45.3413 102.808 45.4479ZM103.747 44.523C103.363 44.4309 103.08 44.2399 102.898 43.95C102.717 43.6601 102.668 43.3334 102.756 42.9666C102.841 42.6085 103.034 42.3397 103.327 42.1636C103.62 41.9875 103.959 41.9455 104.343 42.0376C104.709 42.1256 104.979 42.3135 105.155 42.6067C105.331 42.8999 105.378 43.2212 105.293 43.575C105.213 43.9073 105.027 44.1684 104.73 44.3618C104.433 44.5551 104.105 44.6089 103.747 44.523Z" fill="black"/>
</svg>
