<svg width="400" height="36" viewBox="0 0 400 36" fill="none" xmlns="http://www.w3.org/2000/svg">
<path d="M16.7676 27L20.1953 12.8848H20.6172L24.0449 27H35.1367C35.084 25.8223 35.1543 24.3809 35.3125 22.6582C35.4707 20.9355 35.7168 19.3184 36.0332 17.7891L37.7559 10.916C38.4414 7.22461 39.2676 4.18359 40.2695 1.79297H30.4082C30.4258 2.79492 30.25 4.67578 29.8633 7.45312L28.5449 12.7793C28.4922 13.1133 28.4219 13.5703 28.334 14.1504C28.123 15.3105 28.0176 16.0488 27.9297 16.9629H27.5254L23.5 1.79297H17.2773L13.2695 16.9629H12.8828C12.8652 16.6641 12.6543 15.2578 12.2676 12.7441L10.9668 7.45312C10.5625 4.81641 10.3867 2.93555 10.4395 1.79297H0.525391C1.50977 4.16602 2.37109 7.20703 3.0918 10.916L4.81445 17.7891C5.11328 19.3184 5.3418 20.9531 5.51758 22.6582C5.67578 24.3809 5.74609 25.8223 5.71094 27H16.7676ZM51.5195 27.5098C53.2949 27.5098 55.0879 27.3516 56.8809 27.0527C58.6738 26.7363 60.0449 26.332 61.0117 25.8398L60.8711 19.916C60.2031 20.6543 59.2012 21.2344 57.8652 21.6562C56.5293 22.0781 55.123 22.2891 53.6641 22.2891C51.7656 22.2891 50.1133 21.8672 48.707 21.041C47.2832 20.2148 46.5098 19.248 46.3691 18.1406L46.6504 17.9648C48.5664 19.4238 50.9395 19.916 54.0332 19.916C58.7266 19.916 61.416 18.2637 61.416 14.9414C61.416 13.5879 60.9941 12.375 59.957 11.25C58.4805 9.63281 55.5449 8.50781 50.9746 8.49023C47.1953 8.49023 44.084 9.5625 42.1855 11.3027C40.2695 13.0605 39.2324 15.3809 39.2324 18C39.2324 20.8477 40.3398 23.1504 42.5723 24.8906C44.8047 26.6309 47.7754 27.5098 51.5195 27.5098ZM50.9043 17.8594C49.0234 17.8594 47.5996 17.4023 46.6152 16.4883C46.7734 15.4863 47.2305 14.7305 47.9512 14.2031C48.6719 13.6934 49.5156 13.4297 50.4648 13.4297C52.5918 13.4297 53.9277 14.3438 53.9277 15.7676C53.9277 16.3828 53.6289 16.875 53.0312 17.2617C52.4336 17.666 51.7305 17.8594 50.9043 17.8594ZM80.5586 27C80.5586 25.752 80.8398 23.959 81.4199 21.6035L81.6836 20.8125H88.7676L89.0488 21.5684C89.6113 24.0117 89.9102 25.8223 89.9277 27H99.7891C98.5762 24.3809 97.4863 21.3398 96.5371 17.8945L94.0586 10.916C93.6543 9.47461 93.3379 7.89258 93.0742 6.1875C92.8105 4.48242 92.6348 3.02344 92.582 1.79297H77.9043C77.8691 2.9707 77.7109 4.39453 77.4473 6.09961C77.1836 7.80469 76.832 9.42188 76.4277 10.916L73.9316 17.8945C72.877 21.6387 71.7871 24.6621 70.6621 27H80.5586ZM84.0566 13.2891C84.3555 12.3574 84.6543 10.916 84.9883 8.92969H85.4629C85.7617 10.7754 86.0781 12.2344 86.4297 13.2891L87.9414 17.209H82.5449L84.0566 13.2891ZM110.564 27C110.037 25.6465 109.773 23.8359 109.773 21.5684V19.9512C109.773 18.457 110.318 17.2266 111.391 16.2422C112.463 15.2578 113.746 14.7656 115.223 14.7656C116.928 14.7656 118.65 15.4863 119.564 16.4531V9.03516C118.738 8.66602 117.789 8.49023 116.699 8.49023C113.254 8.49023 110.898 10.8457 110.213 15.0117H109.773V13.9395C109.773 13.0781 109.879 12.1816 110.107 11.25C110.318 10.3184 110.635 9.58008 111.039 9H100.738C101.283 11.4082 101.564 14.0625 101.564 16.9629V19.9512C101.564 21.3926 101.494 22.6055 101.371 23.5898C101.248 24.5918 101.037 25.7168 100.738 27H110.564ZM133.398 27.5098C135.174 27.5098 136.967 27.3516 138.76 27.0527C140.553 26.7363 141.924 26.332 142.891 25.8398L142.75 19.916C142.082 20.6543 141.08 21.2344 139.744 21.6562C138.408 22.0781 137.002 22.2891 135.543 22.2891C133.645 22.2891 131.992 21.8672 130.586 21.041C129.162 20.2148 128.389 19.248 128.248 18.1406L128.529 17.9648C130.445 19.4238 132.818 19.916 135.912 19.916C140.605 19.916 143.295 18.2637 143.295 14.9414C143.295 13.5879 142.873 12.375 141.836 11.25C140.359 9.63281 137.424 8.50781 132.854 8.49023C129.074 8.49023 125.963 9.5625 124.064 11.3027C122.148 13.0605 121.111 15.3809 121.111 18C121.111 20.8477 122.219 23.1504 124.451 24.8906C126.684 26.6309 129.654 27.5098 133.398 27.5098ZM132.783 17.8594C130.902 17.8594 129.479 17.4023 128.494 16.4883C128.652 15.4863 129.109 14.7305 129.83 14.2031C130.551 13.6934 131.395 13.4297 132.344 13.4297C134.471 13.4297 135.807 14.3438 135.807 15.7676C135.807 16.3828 135.508 16.875 134.91 17.2617C134.312 17.666 133.609 17.8594 132.783 17.8594ZM177.555 27.5449C178.451 27.5449 179.33 27.2988 180.191 26.8242C181.035 26.3496 181.633 25.7695 181.984 25.084L181.879 14.291C180.912 16.7344 179.295 17.9648 177.027 17.9648C176.061 17.9648 175.182 17.5078 174.479 16.9277C173.459 16.1016 172.352 15.0469 170.541 15.0469H170.471V14.8359H170.787C172.633 14.8359 174.268 14.5898 175.691 14.1152C177.115 13.6406 178.258 12.9023 179.119 11.8828C179.98 10.8809 180.402 9.66797 180.402 8.24414C180.402 6.85547 179.963 5.67773 179.084 4.67578C177.309 2.70703 174.32 1.79297 170.576 1.79297H155.283C155.828 4.20117 156.109 7.24219 156.109 10.916V17.8945C156.109 21.5508 155.828 24.5918 155.283 27H165.145C164.6 24.5918 164.318 21.5508 164.318 17.8945V16.418C164.635 16.2949 165.145 16.2422 165.865 16.2422C168.713 16.2422 169.645 18.4746 170.576 20.9531C171.701 24.0469 172.791 27.5625 177.555 27.5449ZM164.318 9.58008H169.135C170.84 9.58008 172.053 10.3887 172.053 11.6367C172.053 12.9727 170.857 13.7109 168.959 13.7109H164.318V9.58008ZM195.309 27.5098C197.084 27.5098 198.877 27.3516 200.67 27.0527C202.463 26.7363 203.834 26.332 204.801 25.8398L204.66 19.916C203.992 20.6543 202.99 21.2344 201.654 21.6562C200.318 22.0781 198.912 22.2891 197.453 22.2891C195.555 22.2891 193.902 21.8672 192.496 21.041C191.072 20.2148 190.299 19.248 190.158 18.1406L190.439 17.9648C192.355 19.4238 194.729 19.916 197.822 19.916C202.516 19.916 205.205 18.2637 205.205 14.9414C205.205 13.5879 204.783 12.375 203.746 11.25C202.27 9.63281 199.334 8.50781 194.764 8.49023C190.984 8.49023 187.873 9.5625 185.975 11.3027C184.059 13.0605 183.021 15.3809 183.021 18C183.021 20.8477 184.129 23.1504 186.361 24.8906C188.594 26.6309 191.564 27.5098 195.309 27.5098ZM194.693 17.8594C192.812 17.8594 191.389 17.4023 190.404 16.4883C190.562 15.4863 191.02 14.7305 191.74 14.2031C192.461 13.6934 193.305 13.4297 194.254 13.4297C196.381 13.4297 197.717 14.3438 197.717 15.7676C197.717 16.3828 197.418 16.875 196.82 17.2617C196.223 17.666 195.52 17.8594 194.693 17.8594ZM219.602 27.5098C220.92 27.5098 222.414 27.4043 224.084 27.2109C225.754 27 227.002 26.7539 227.811 26.4551V20.2676C226.984 20.7773 225.947 21.1992 224.717 21.5156C223.486 21.832 222.326 21.9902 221.254 21.9902C217.035 21.9902 214.627 20.5137 214.627 18C214.627 15.4688 216.93 14.0098 220.727 14.0098C221.834 14.0098 222.959 14.168 224.102 14.502C225.244 14.8359 226.123 15.2227 226.738 15.6621L227.09 9.68555C226.316 9.35156 225.121 9.07031 223.521 8.8418C221.904 8.61328 220.604 8.49023 219.602 8.49023C215.172 8.49023 211.779 9.54492 209.828 11.3027C207.859 13.0781 206.928 15.3281 206.928 18C206.928 20.6719 207.859 22.9219 209.828 24.6797C211.779 26.4551 215.172 27.5098 219.602 27.5098ZM240.256 27C239.729 25.6465 239.465 23.8359 239.465 21.5684V19.9512C239.465 18.457 240.01 17.2266 241.082 16.2422C242.154 15.2578 243.438 14.7656 244.914 14.7656C246.619 14.7656 248.342 15.4863 249.256 16.4531V9.03516C248.43 8.66602 247.48 8.49023 246.391 8.49023C242.945 8.49023 240.59 10.8457 239.904 15.0117H239.465V13.9395C239.465 13.0781 239.57 12.1816 239.799 11.25C240.01 10.3184 240.326 9.58008 240.73 9H230.43C230.975 11.4082 231.256 14.0625 231.256 16.9629V19.9512C231.256 21.3926 231.186 22.6055 231.062 23.5898C230.939 24.5918 230.729 25.7168 230.43 27H240.256ZM260.77 27.5098C264.408 27.5098 266.834 25.8398 268.047 22.5H268.521V22.9395C268.521 24.4336 268.188 25.7871 267.537 27H277.557C276.977 24.6445 276.695 21.9902 276.695 19.0371V16.084C276.695 14.625 276.766 13.377 276.906 12.375C277.029 11.373 277.258 10.248 277.557 9H267.695C267.977 9.7207 268.188 10.8457 268.328 12.3926C268.451 13.957 268.521 15.3105 268.521 16.4883V18.2109C268.521 19.3711 268.152 20.3555 267.396 21.1465C266.641 21.9551 265.656 22.3594 264.443 22.3594C263.266 22.3594 262.369 21.9727 261.719 21.1992C261.068 20.4434 260.734 19.4414 260.734 18.2109V16.5234C260.734 13.8164 260.998 11.3027 261.525 9H251.699C252.244 11.4082 252.525 14.2031 252.525 17.3848V19.3008C252.525 21.8496 253.229 23.8535 254.652 25.3125C256.076 26.7715 258.115 27.5098 260.77 27.5098ZM288.842 6.99609C289.633 6.27539 290.02 5.36133 290.02 4.25391C290.02 3.12891 289.633 2.19727 288.842 1.47656C288.051 0.755859 286.996 0.404297 285.66 0.404297C284.324 0.404297 283.27 0.755859 282.496 1.47656C281.705 2.19727 281.318 3.12891 281.318 4.25391C281.318 5.36133 281.705 6.27539 282.496 6.99609C283.27 7.7168 284.324 8.06836 285.66 8.06836C286.996 8.06836 288.051 7.7168 288.842 6.99609ZM290.6 27C290.055 24.5918 289.773 21.5508 289.773 17.8945V12.9199C289.773 11.2676 289.861 9.9668 290.02 9C289.018 9.7207 287.611 10.0898 285.766 10.0898C283.92 10.0898 282.461 9.7207 281.354 9C281.512 9.77344 281.6 11.0742 281.6 12.9199V17.8945C281.6 21.5508 281.318 24.5918 280.773 27H290.6ZM304.838 27.5098C305.611 27.5098 306.42 27.4043 307.264 27.2109C308.09 27.0176 308.793 26.7539 309.338 26.4551V20.127C308.828 20.6367 307.721 21.0234 306.719 21.0234C305.752 21.0234 304.926 20.7422 304.258 20.1621C303.59 19.5996 303.256 18.791 303.256 17.7539V11.4082H309.127V9H303.256V1.79297L295.662 3.7793V9H292.463V11.4082H295.662V20.6719C295.662 25.2246 298.721 27.5098 304.838 27.5098ZM319.533 6.99609C320.324 6.27539 320.711 5.36133 320.711 4.25391C320.711 3.12891 320.324 2.19727 319.533 1.47656C318.742 0.755859 317.688 0.404297 316.352 0.404297C315.016 0.404297 313.961 0.755859 313.188 1.47656C312.396 2.19727 312.01 3.12891 312.01 4.25391C312.01 5.36133 312.396 6.27539 313.188 6.99609C313.961 7.7168 315.016 8.06836 316.352 8.06836C317.688 8.06836 318.742 7.7168 319.533 6.99609ZM321.291 27C320.746 24.5918 320.465 21.5508 320.465 17.8945V12.9199C320.465 11.2676 320.553 9.9668 320.711 9C319.709 9.7207 318.303 10.0898 316.457 10.0898C314.611 10.0898 313.152 9.7207 312.045 9C312.203 9.77344 312.291 11.0742 312.291 12.9199V17.8945C312.291 21.5508 312.01 24.5918 311.465 27H321.291ZM334.352 27C334.07 26.3145 333.859 25.1719 333.719 23.6074C333.578 22.043 333.508 20.6895 333.508 19.5469L333.473 17.8242C333.473 16.6465 333.859 15.6621 334.615 14.8711C335.371 14.0801 336.373 13.6758 337.586 13.6758C339.924 13.6758 341.295 15.3457 341.295 17.8242V19.4766C341.295 22.0781 341.014 24.5918 340.469 27H350.33C349.75 24.6445 349.469 21.8496 349.469 18.6152V16.6992C349.469 14.1504 348.766 12.1465 347.342 10.6875C345.918 9.22852 343.879 8.49023 341.225 8.49023C337.656 8.49023 335.23 10.1777 333.947 13.5352H333.508V13.0605C333.508 11.4961 333.842 10.1426 334.492 9H324.473C325.018 11.2676 325.299 13.9219 325.299 16.9629V19.916C325.299 21.4102 325.229 22.6582 325.105 23.6602C324.982 24.6797 324.771 25.7871 324.473 27H334.352ZM364.604 35.209C371.688 35.209 378.068 32.1504 378.068 26.2793C378.068 25.3301 377.822 24.3984 377.348 23.502V18.1055C377.348 14.4492 377.629 11.4082 378.174 9H368.348C368.682 9.82617 368.893 10.4941 369.016 11.0215C369.121 11.5664 369.174 12.2344 369.174 13.0254V13.4297H368.699C367.486 10.4062 364.867 8.49023 361.141 8.49023C358.346 8.49023 356.113 9.5625 354.777 11.3203C353.424 13.0781 352.721 15.3809 352.721 18.0352C352.721 20.6895 353.424 22.957 354.777 24.6973C356.113 26.4551 358.346 27.5098 361.141 27.5098C364.955 27.5098 367.557 25.5234 368.699 22.5H369.104C369.842 23.2734 370.211 24.1172 370.211 25.0488C370.211 26.6484 369.561 27.8789 368.277 28.7578C366.994 29.6191 365.254 30.0586 363.092 30.0586C361.193 30.0586 359.26 29.7773 357.291 29.1973C355.322 28.6172 353.811 27.8613 352.756 26.9297L352.791 33.7676C354.18 34.207 355.973 34.5586 358.17 34.8223C360.367 35.0859 362.512 35.209 364.604 35.209ZM364.709 22.3945C363.355 22.3945 362.283 21.9902 361.492 21.1641C360.684 20.3379 360.279 19.3008 360.279 18.0352C360.279 16.7344 360.684 15.6621 361.492 14.8359C362.283 14.0098 363.355 13.6055 364.709 13.6055C366.027 13.6055 367.064 14.0273 367.855 14.8535C368.646 15.6797 369.033 16.752 369.033 18.0352C369.033 19.248 368.629 20.2852 367.82 21.1289C367.012 21.9727 365.975 22.3945 364.709 22.3945ZM398.406 18.1406L399.672 1.79297H390.672L391.902 18.1406H398.406ZM395.137 27.5098C396.473 27.5098 397.527 27.1582 398.318 26.4375C399.109 25.7168 399.496 24.8203 399.496 23.7305C399.496 22.6055 399.109 21.6738 398.318 20.9531C397.527 20.2324 396.473 19.8633 395.137 19.8633C393.818 19.8633 392.764 20.2324 391.99 20.9531C391.199 21.6738 390.812 22.6055 390.812 23.7305C390.812 24.8203 391.199 25.7168 391.99 26.4375C392.764 27.1582 393.818 27.5098 395.137 27.5098Z" fill="#F4F4F4"/>
</svg>
